<svg width="335" height="128" viewBox="0 0 335 128" fill="none" xmlns="http://www.w3.org/2000/svg">
<rect width="335" height="128" rx="25" fill="url(#paint0_linear_90_7656)"/>
<path d="M53.9453 21.9062C65.013 21.9583 70.651 26.099 70.8594 34.3281C70.8073 41.3073 68.4635 46.6198 63.8281 50.2656C70.8073 52.375 74.3099 56.9974 74.3359 64.1328C74.1536 67.0234 73.5417 69.6016 72.5 71.8672C68.9844 79.4714 60.7552 83.2734 47.8125 83.2734C46.25 83.2734 43.9062 83.1823 40.7812 83C40.1562 83 39.5833 82.8307 39.0625 82.4922C38.0469 81.763 37.5391 80.6693 37.5391 79.2109L44.6484 25.4219C44.6745 24.9792 44.7786 24.5495 44.9609 24.1328C45.5078 22.9609 46.4453 22.375 47.7734 22.375C49.9349 22.0625 51.9922 21.9062 53.9453 21.9062ZM47.2266 54.8359C47.2266 54.8359 46.25 62.2057 44.2969 76.9453C45.7812 77.0495 46.9401 77.1016 47.7734 77.1016C51.862 77.1016 55.4427 76.6198 58.5156 75.6562C64.8958 73.625 68.0859 69.7839 68.0859 64.1328C68.0599 60.2786 65.5078 57.6354 60.4297 56.2031C57.6953 55.474 53.2943 55.0182 47.2266 54.8359ZM50.5469 27.8828L47.9688 48.3906C48.8281 48.3906 49.6224 48.3646 50.3516 48.3125C59.8828 47.7917 64.6484 43.1693 64.6484 34.4453C64.6224 32.3099 63.75 30.6693 62.0312 29.5234C60.1562 28.3516 56.9531 27.7656 52.4219 27.7656C51.8229 27.7656 51.1979 27.8047 50.5469 27.8828ZM99.2578 61.8672C99.4661 60.2786 99.7266 57.2969 100.039 52.9219C100.065 52.7135 100.091 52.5182 100.117 52.3359C100.43 50.6953 101.432 49.849 103.125 49.7969C103.203 49.7969 103.294 49.8099 103.398 49.8359C104.805 49.9922 105.508 51.0859 105.508 53.1172C105.508 53.638 105.456 54.4193 105.352 55.4609C105.299 55.9297 105.26 56.2812 105.234 56.5156C104.792 63.5729 104.57 68.0391 104.57 69.9141C104.57 70.5911 104.609 71.2682 104.688 71.9453C105.104 75.2526 106.263 76.9062 108.164 76.9062C108.424 76.9062 108.698 76.8802 108.984 76.8281C109.74 76.6458 110.846 76.0339 112.305 74.9922C113.737 73.9505 114.883 73.4297 115.742 73.4297C116.081 73.4297 116.406 73.5339 116.719 73.7422C117.526 74.237 117.93 75.0052 117.93 76.0469C117.93 76.125 117.917 76.2292 117.891 76.3594C117.708 77.6094 116.628 78.8984 114.648 80.2266C112.227 81.8672 109.818 82.6875 107.422 82.6875C104.193 82.6615 101.888 81.1901 100.508 78.2734C98.2161 81.0859 95.0781 82.5052 91.0938 82.5312C90.1562 82.5312 89.2708 82.4141 88.4375 82.1797C83.8802 80.7995 81.6016 75.7865 81.6016 67.1406C81.6016 62.974 82.0573 58.7812 82.9688 54.5625C83.0208 54.3542 83.0729 54.1328 83.125 53.8984C83.9323 51.0339 85.0781 49.6016 86.5625 49.6016C88.4115 49.6276 89.362 50.6432 89.4141 52.6484C89.4141 53.0651 89.2969 53.9896 89.0625 55.4219C88.151 61.2552 87.6953 65.474 87.6953 68.0781C87.6953 73.4948 89.0755 76.2292 91.8359 76.2812C95.4036 76.2552 97.8776 71.4505 99.2578 61.8672ZM117.031 49.5234C118.698 49.5495 119.557 50.5651 119.609 52.5703C119.609 52.9609 119.505 53.8073 119.297 55.1094C118.411 60.9167 117.969 65.1224 117.969 67.7266C117.969 73.3516 119.401 76.1901 122.266 76.2422C122.891 76.1901 123.49 75.9818 124.062 75.6172C126.484 74.0547 128.307 69.0547 129.531 60.6172C129.844 58.4297 130.065 55.9948 130.195 53.3125C130.221 53.0521 130.234 52.8958 130.234 52.8438C130.26 52.6615 130.286 52.4922 130.312 52.3359C130.625 50.5911 131.602 49.7188 133.242 49.7188C133.555 49.7188 133.867 49.7708 134.18 49.875C135.352 50.2917 135.938 51.4115 135.938 53.2344C135.938 53.4427 135.924 53.7292 135.898 54.0938C135.898 54.3281 135.898 54.4844 135.898 54.5625L131.953 83.3516C138.229 78.638 141.927 75.7995 143.047 74.8359C144.062 74.0026 145.065 73.5859 146.055 73.5859C146.393 73.5859 146.745 73.6901 147.109 73.8984C147.865 74.3932 148.242 75.0573 148.242 75.8906C148.216 77.1146 147.5 78.3255 146.094 79.5234C143.464 81.763 138.385 85.7604 130.859 91.5156L129.102 104.367C128.659 107.44 127.253 109.771 124.883 111.359C123.216 112.453 121.51 113 119.766 113C117.37 113 115.247 112.102 113.398 110.305C111.602 108.508 110.703 106.49 110.703 104.25C110.703 101.88 111.289 99.9531 112.461 98.4688C113.06 97.7135 114.271 96.6589 116.094 95.3047C116.328 95.0443 119.453 92.6875 125.469 88.2344C125.807 85.8906 126.159 83.612 126.523 81.3984C125.013 82.1016 123.268 82.4531 121.289 82.4531C120.352 82.4531 119.466 82.3359 118.633 82.1016C114.076 80.7214 111.797 75.7083 111.797 67.0625C111.823 62.7656 112.279 58.5859 113.164 54.5234C113.893 51.3724 115.182 49.7057 117.031 49.5234ZM123.555 101.281C123.555 101.281 123.776 99.6797 124.219 96.4766C121.536 98.5078 120.091 99.6146 119.883 99.7969C118.008 101.255 117.057 102.583 117.031 103.781C117.031 104.224 117.109 104.654 117.266 105.07C117.708 106.216 118.542 106.789 119.766 106.789C120.234 106.789 120.651 106.711 121.016 106.555C122.318 106.06 123.164 104.302 123.555 101.281Z" fill="white"/>
<g clip-path="url(#clip0_90_7656)">
<path opacity="0.7" d="M256.091 104.652C256.091 104.652 240.239 105.015 228.949 92.4121C217.66 79.8089 215.864 61.5805 214.022 46.8451C212.179 32.1097 219.921 20.2869 232.502 17.876C245.083 15.4652 249.446 26.5599 264.225 31.8972C279.004 37.2345 283.717 36.425 293.326 48.9172C302.935 61.4094 298.642 81.9996 284.04 93.4798C269.439 104.96 256.091 104.652 256.091 104.652Z" fill="#00FF59"/>
<path d="M271.893 103.537C284.209 96.8851 298.586 80.152 292.598 57.1964C286.609 34.2409 273.94 18.731 251.898 21.2721C229.856 23.8132 211.542 37.1674 211.006 65.9323C210.47 94.6971 244.886 118.124 271.893 103.537Z" fill="#167738"/>
<path opacity="0.7" d="M271.893 103.537C284.209 96.8851 298.586 80.152 292.598 57.1964C286.609 34.2409 273.94 18.731 251.898 21.2721C229.856 23.8132 211.542 37.1674 211.006 65.9323C210.47 94.6971 244.886 118.124 271.893 103.537Z" fill="white"/>
<path d="M254.976 23.787L252.868 37.4091C252.787 37.9295 252.3 38.286 251.78 38.2055L243.483 36.921C242.962 36.8405 242.606 36.3533 242.686 35.833L244.795 22.2109C244.876 21.6905 245.363 21.334 245.883 21.4145L254.18 22.699C254.7 22.7795 255.057 23.2667 254.976 23.787Z" stroke="#263238" stroke-width="0.21" stroke-linecap="round" stroke-linejoin="round"/>
<path d="M250.44 37.9976L252.84 22.4912" stroke="#263238" stroke-width="0.21" stroke-linecap="round" stroke-linejoin="round"/>
<path d="M250.119 23.7036L249.731 26.2085L246.124 25.6501L246.512 23.1453L250.119 23.7036Z" stroke="#263238" stroke-width="0.21" stroke-linecap="round" stroke-linejoin="round"/>
<path d="M249.141 25.1917C249.771 24.6625 249.351 23.7931 247.395 23.9968L247.011 23.2219L246.52 23.1463L246.131 25.6495L246.789 25.7524L247.156 24.8074C247.156 24.8074 248.546 25.6894 249.141 25.1917Z" stroke="#263238" stroke-width="0.21" stroke-linecap="round" stroke-linejoin="round"/>
<path d="M244.73 30.6245C244.73 30.6245 244.715 28.8143 245.077 29.333C245.438 29.8517 245.803 29.9294 245.81 29.4884C245.816 29.0474 244.97 28.3082 245.486 28.367C246.003 28.4258 245.667 28.1066 245.633 28.0457C245.6 27.9848 245.81 27.4619 245.749 27.4367C245.688 27.4115 245.518 27.4472 245.78 25.7441" stroke="#263238" stroke-width="0.21" stroke-linecap="round" stroke-linejoin="round"/>
<path d="M248.829 36.6831L250.005 29.0895" stroke="#263238" stroke-width="0.21" stroke-linecap="round" stroke-linejoin="round"/>
<path d="M247.969 36.5488L248.662 32.0758" stroke="#263238" stroke-width="0.21" stroke-linecap="round" stroke-linejoin="round"/>
<path d="M246.45 36.3135L247.416 30.0744" stroke="#263238" stroke-width="0.21" stroke-linecap="round" stroke-linejoin="round"/>
<path d="M252.128 34.3774L253.309 26.7628" stroke="#263238" stroke-width="0.21" stroke-linecap="round" stroke-linejoin="round"/>
<path d="M257.448 106.896L260.848 89.8718L232.304 83.9267L228.424 102.022L257.448 106.896Z" stroke="#263238" stroke-width="0.21" stroke-linecap="round" stroke-linejoin="round"/>
<path d="M232.495 102.707L235.765 84.6468" stroke="#263238" stroke-width="0.21" stroke-linecap="round" stroke-linejoin="round"/>
<path d="M238.193 86.7869L236.601 95.4116" stroke="#263238" stroke-width="0.21" stroke-linecap="round" stroke-linejoin="round"/>
<path d="M239.625 88.0659L239.253 90.5859" stroke="#263238" stroke-width="0.21" stroke-linecap="round" stroke-linejoin="round"/>
<path d="M242.54 87.6814L240.125 100.554" stroke="#263238" stroke-width="0.21" stroke-linecap="round" stroke-linejoin="round"/>
<path d="M244.188 104.67L247.298 87.0493" stroke="#263238" stroke-width="0.21" stroke-linecap="round" stroke-linejoin="round" stroke-dasharray="0.21 0.42"/>
<path d="M233.229 85.9467L230.986 96.6504" stroke="#263238" stroke-width="0.21" stroke-linecap="round" stroke-linejoin="round"/>
<path d="M234.131 86.2663L233.228 91.2979" stroke="#263238" stroke-width="0.21" stroke-linecap="round" stroke-linejoin="round"/>
<path d="M249.18 88.9877L247.431 97.814" stroke="#263238" stroke-width="0.21" stroke-linecap="round" stroke-linejoin="round"/>
<path d="M251.14 89.6849L250.587 92.4968" stroke="#263238" stroke-width="0.21" stroke-linecap="round" stroke-linejoin="round"/>
<path d="M252.5 89.8506L250.022 102.707" stroke="#263238" stroke-width="0.21" stroke-linecap="round" stroke-linejoin="round"/>
<path d="M259.124 91.0184L258.405 94.4897" stroke="#263238" stroke-width="0.21" stroke-linecap="round" stroke-linejoin="round"/>
<path d="M256.656 102.707L256.075 105.702" stroke="#263238" stroke-width="0.21" stroke-linecap="round" stroke-linejoin="round"/>
<path d="M254.424 104.612C254.637 104.549 254.834 104.442 255.002 104.297C255.17 104.152 255.305 103.973 255.398 103.772" stroke="#263238" stroke-width="0.21" stroke-linecap="round" stroke-linejoin="round"/>
<path d="M252.5 103.28C252.544 103.652 252.72 103.996 252.996 104.249C253.272 104.502 253.63 104.648 254.004 104.66" stroke="#263238" stroke-width="0.21" stroke-linecap="round" stroke-linejoin="round"/>
<path d="M252.857 102.113C252.665 102.326 252.541 102.591 252.5 102.875" stroke="#263238" stroke-width="0.21" stroke-linecap="round" stroke-linejoin="round"/>
<path d="M255.541 103.134C255.532 102.863 255.453 102.6 255.313 102.369C255.172 102.138 254.973 101.947 254.737 101.816C254.5 101.684 254.234 101.616 253.964 101.618C253.693 101.62 253.428 101.692 253.193 101.827" stroke="#263238" stroke-width="0.21" stroke-linecap="round" stroke-linejoin="round"/>
<path d="M255.146 100.072C255.235 100.351 255.335 100.628 255.398 100.912" stroke="#263238" stroke-width="0.21" stroke-linecap="round" stroke-linejoin="round"/>
<path d="M254.945 97.6902C254.38 97.9275 254.894 99.2547 255.012 99.6411" stroke="#263238" stroke-width="0.21" stroke-linecap="round" stroke-linejoin="round"/>
<path d="M256.444 99.9624L255.86 97.4802C255.694 97.5201 255.526 97.5516 255.36 97.5831" stroke="#263238" stroke-width="0.21" stroke-linecap="round" stroke-linejoin="round"/>
<path d="M255.86 101.191C256.49 100.926 256.7 101.031 256.547 100.372" stroke="#263238" stroke-width="0.21" stroke-linecap="round" stroke-linejoin="round"/>
<path d="M219.141 71.159L216.291 72.3136L218.243 69.5591C216.934 68.3369 216.101 66.6893 215.894 64.9103" stroke="#263238" stroke-width="0.21" stroke-linecap="round" stroke-linejoin="round"/>
<path d="M222.794 71.9785C221.785 71.7511 220.818 71.3667 219.928 70.8393" stroke="#263238" stroke-width="0.21" stroke-linecap="round" stroke-linejoin="round"/>
<path d="M233.62 65.5432C233.121 69.7755 228.752 72.7377 223.861 72.1623" stroke="#263238" stroke-width="0.21" stroke-linecap="round" stroke-linejoin="round"/>
<path d="M232.51 60.9181C232.725 61.2522 232.913 61.6027 233.073 61.9665" stroke="#263238" stroke-width="0.21" stroke-linecap="round" stroke-linejoin="round"/>
<path d="M215.908 63.4571C216.405 59.225 220.776 56.2627 225.666 56.8401C227.884 57.0775 229.952 58.0754 231.518 59.6643" stroke="#263238" stroke-width="0.21" stroke-linecap="round" stroke-linejoin="round"/>
<path d="M220.872 61.4876C222.123 59.86 224.099 60.7394 225.017 62.1999C226.214 60.9636 228.329 60.5013 229.219 62.3528C230.721 65.4708 226.72 67.8029 224.85 68.6831C224.639 68.7846 224.465 68.8696 224.32 68.9332C224.189 68.8409 224.035 68.7224 223.849 68.5802C222.202 67.3345 218.762 64.2332 220.872 61.4876Z" stroke="#263238" stroke-width="0.21" stroke-linecap="round" stroke-linejoin="round"/>
<path d="M288.13 63.4019L290.47 62.2856L288.967 64.7025C290.127 65.6648 290.908 67.0075 291.17 68.4915" stroke="#263238" stroke-width="0.21" stroke-linecap="round" stroke-linejoin="round"/>
<path d="M285.019 62.8925C285.879 63.0338 286.712 63.3082 287.488 63.7059" stroke="#263238" stroke-width="0.21" stroke-linecap="round" stroke-linejoin="round"/>
<path d="M276.231 68.8538C276.437 65.2643 279.964 62.5481 284.109 62.7927" stroke="#263238" stroke-width="0.21" stroke-linecap="round" stroke-linejoin="round"/>
<path d="M277.398 72.6891C277.203 72.4185 277.029 72.133 276.879 71.8354" stroke="#263238" stroke-width="0.21" stroke-linecap="round" stroke-linejoin="round"/>
<path d="M291.232 69.7158C291.026 73.3021 287.499 76.0152 283.355 75.777C281.477 75.6883 279.687 74.9528 278.289 73.6953" stroke="#263238" stroke-width="0.21" stroke-linecap="round" stroke-linejoin="round"/>
<path d="M285.306 72.3653C287.183 71.4799 287.987 69.2403 287.102 67.3632C286.216 65.486 283.977 64.682 282.1 65.5674C280.222 66.4529 279.418 68.6924 280.304 70.5696C281.189 72.4468 283.429 73.2508 285.306 72.3653Z" stroke="#263238" stroke-width="0.21" stroke-linecap="round" stroke-linejoin="round"/>
<path d="M282.253 69.3686L283.322 70.4854L285.358 67.3555" stroke="#263238" stroke-width="0.21" stroke-linecap="round" stroke-linejoin="round"/>
<path opacity="0.2" d="M236.252 49.913C236.252 49.913 224.528 50.8819 221.684 49.4803C218.84 48.0788 199.409 47.3766 196.965 48.0053C196.965 48.0053 195.827 43.4931 197.444 41.7078C199.061 39.9225 197.504 37.1765 199.077 32.6535C200.65 28.1304 235.564 31.3934 235.564 31.3934L248.265 31.2546L254.911 38.7142L236.252 49.913Z" fill="black" fill-opacity="0.7"/>
<path d="M230.613 43.899C230.529 43.9272 230.452 43.9726 230.387 44.0324C229.475 44.9958 228.463 49.1079 227.734 52.6404C227.127 55.566 226.716 58.0833 226.716 58.0833C226.716 58.0833 242.819 60.021 244.511 60.021C246.204 60.021 273.609 63.1453 273.609 63.1453L273.933 55.6558L274.363 45.7197C274.363 45.7197 273.631 45.6598 272.352 45.5591C264.204 44.9032 233.827 42.6499 230.613 43.899Z" fill="#167738"/>
<mask id="mask0_90_7656" style="mask-type:luminance" maskUnits="userSpaceOnUse" x="226" y="43" width="49" height="21">
<path d="M230.613 43.899C230.529 43.9272 230.452 43.9726 230.387 44.0324C229.475 44.9958 228.463 49.1079 227.734 52.6404C227.127 55.566 226.716 58.0833 226.716 58.0833C226.716 58.0833 242.819 60.021 244.511 60.021C246.204 60.021 273.609 63.1453 273.609 63.1453L273.933 55.6558L274.363 45.7197C274.363 45.7197 273.631 45.6598 272.352 45.5591C264.204 44.9032 233.827 42.6499 230.613 43.899Z" fill="white"/>
</mask>
<g mask="url(#mask0_90_7656)">
<path opacity="0.2" d="M230.613 43.899L228.825 52.6404L228.147 55.9415C229.026 56.8369 229.043 57.52 229.043 57.52L231.506 57.7921L235.536 58.2194L270.997 61.9805C271.56 61.164 272.793 60.7612 272.793 60.7612L272.976 55.7265L273.294 47.0042L272.363 45.5645C264.204 44.9032 233.827 42.6499 230.613 43.899Z" fill="black" fill-opacity="0.7"/>
<path d="M230.613 43.899L228.825 52.6404L228.147 55.9415C229.026 56.8369 229.043 57.52 229.043 57.52L231.506 57.7921L235.536 58.2194L270.997 61.9805C271.56 61.164 272.793 60.7612 272.793 60.7612L272.976 55.7265L273.294 47.0042L272.363 45.5645C264.204 44.9032 233.827 42.6499 230.613 43.899Z" stroke="#263238" stroke-width="0.21" stroke-linecap="round" stroke-linejoin="round"/>
<path d="M241.053 57.0571L241.058 54.1397L240.146 54.137L239.858 54.948L239.654 56.8176L241.053 57.0571Z" fill="#00FF59" stroke="#263238" stroke-width="0.21" stroke-linecap="round" stroke-linejoin="round"/>
<path d="M239.174 56.8772L239.248 54.7327L238.986 54.1829L237.775 54.2102L237.748 56.7139L239.174 56.8772Z" fill="#00FF59" stroke="#263238" stroke-width="0.21" stroke-linecap="round" stroke-linejoin="round"/>
<path d="M237.24 56.5342L237.417 54.0849L236.499 54.1121L236.08 55.296L236.151 56.5479L237.24 56.5342Z" fill="#00FF59" stroke="#263238" stroke-width="0.21" stroke-linecap="round" stroke-linejoin="round"/>
<path d="M235.694 56.3874L235.593 54.4089L235.087 54.2293L234.529 54.5178L234.415 56.2867L235.277 56.5916L235.694 56.3874Z" fill="#00FF59" stroke="#263238" stroke-width="0.21" stroke-linecap="round" stroke-linejoin="round"/>
<path d="M233.922 54.1069L233.13 53.8347C233.046 53.7913 232.953 53.7686 232.858 53.7686C232.764 53.7686 232.67 53.7913 232.586 53.8347C232.528 53.8853 232.484 53.9499 232.459 54.0224C232.433 54.0948 232.426 54.1726 232.439 54.2484C232.453 54.4008 232.504 54.5505 232.513 54.7029C232.532 55.1628 232.153 55.5846 232.24 56.0364C232.73 56.2133 233.449 56.6596 233.669 56.0555C233.705 55.9439 233.743 54.0416 233.922 54.1069Z" fill="#00FF59" stroke="#263238" stroke-width="0.21" stroke-linecap="round" stroke-linejoin="round"/>
<path d="M231.693 54.1152C231.505 54.072 231.314 54.0411 231.122 54.0226C231 53.995 230.874 53.999 230.754 54.0343C230.634 54.0695 230.526 54.1349 230.439 54.224C230.375 54.3401 230.34 54.4699 230.338 54.6023L230.197 56.1753C230.494 56.1983 230.792 56.2028 231.089 56.1889C231.443 56.0964 231.413 56.1617 231.557 55.827C231.783 55.2963 231.424 54.6595 231.693 54.1152Z" fill="#00FF59" stroke="#263238" stroke-width="0.21" stroke-linecap="round" stroke-linejoin="round"/>
<path d="M270.191 59.8354C270.191 59.8354 264.457 59.2422 263.322 59.215" stroke="#263238" stroke-width="0.21" stroke-linecap="round" stroke-linejoin="round"/>
<path d="M270.129 58.5566L266.969 58.279" stroke="#263238" stroke-width="0.21" stroke-linecap="round" stroke-linejoin="round"/>
<path d="M271.323 54.123L267.619 53.7638L267.57 53.2603L271.288 53.4236L271.323 54.123Z" fill="#00FF59" stroke="#263238" stroke-width="0.21" stroke-linecap="round" stroke-linejoin="round"/>
<path opacity="0.2" d="M230.613 43.8988C230.529 43.9269 230.452 43.9724 230.387 44.0321C229.475 44.9955 228.463 49.1077 227.734 52.6402H230.183L231.5 57.781L231.699 58.5566L235.531 58.2083L250.172 56.8775L272.964 55.7154L273.933 55.6664L274.363 45.7195C274.363 45.7195 273.631 45.6596 272.352 45.5589C264.204 44.903 233.827 42.6496 230.613 43.8988Z" fill="black" fill-opacity="0.7"/>
</g>
<path d="M230.613 43.899C230.529 43.9272 230.452 43.9726 230.387 44.0324C229.475 44.9958 228.463 49.1079 227.734 52.6404C227.127 55.566 226.716 58.0833 226.716 58.0833C226.716 58.0833 242.819 60.021 244.511 60.021C246.204 60.021 273.609 63.1453 273.609 63.1453L273.933 55.6558L274.363 45.7197C274.363 45.7197 273.631 45.6598 272.352 45.5591C264.204 44.9032 233.827 42.6499 230.613 43.899Z" stroke="#263238" stroke-width="0.21" stroke-linecap="round" stroke-linejoin="round"/>
<path d="M194.072 38.6273C194.646 38.5647 202.884 39.4683 203.78 39.4846C206.229 39.5281 209.443 40.2221 209.443 40.2221C211.919 41.1909 217.626 41.9448 221.287 44.5302C224.947 47.1156 229.253 47.1129 232.907 47.5429C236.562 47.9729 236.247 47.8667 239.491 47.7579C241.928 47.6793 244.367 47.7876 246.787 48.0817C248.942 48.2967 252.733 48.7267 254.5 48.0817C256.266 47.4367 256.677 45.7494 254.908 43.9015C253.139 42.0537 245.886 41.2998 244.991 41.2998C244.095 41.2998 241.298 41.2998 240.22 40.6521C240.22 40.6521 242.092 36.9917 242.61 36.9917C243.127 36.9917 247.696 37.1006 247.941 36.5617L254.908 38.7144L256.358 34.6322C255.669 33.8638 254.872 33.2 253.991 32.6619C253.261 32.2011 252.487 31.8154 251.68 31.5107C247.111 29.788 243.924 27.0202 242.61 26.4487C241.295 25.8772 230.855 26.4487 228.915 26.4487C226.975 26.4487 218.029 27.7006 216.524 27.668C215.436 27.6435 211.386 26.9087 208.281 26.1766C207.083 25.9044 198.407 24.2525 197.719 23.9994L194.072 38.6273Z" fill="white"/>
<path opacity="0.4" d="M248.401 35.4051C247.816 35.4323 243.151 34.7329 243.151 34.7329C241.989 34.2485 238.027 36.8937 238.027 36.8937C237.705 37.4653 235.713 37.7102 235.713 37.7102C236.111 39.5009 240.234 43.6022 240.234 43.6022C240.234 43.6022 238.544 44.0866 234.361 44.6309C230.178 45.1752 220.242 41.7244 213.381 40.2548C206.52 38.7852 203.788 39.4846 203.788 39.4846C206.237 39.5281 209.451 40.2221 209.451 40.2221C211.928 41.1909 217.635 41.9448 221.295 44.5302C224.955 47.1156 229.253 47.1129 232.907 47.5429C236.562 47.9729 236.247 47.8667 239.491 47.7579C241.928 47.6793 244.367 47.7876 246.787 48.0817C248.942 48.2967 252.733 48.7267 254.5 48.0817C256.266 47.4367 256.677 45.7494 254.908 43.9015C253.139 42.0537 245.886 41.2998 244.991 41.2998C244.095 41.2998 241.298 41.2998 240.22 40.6521C240.22 40.6521 242.092 36.9917 242.61 36.9917C243.127 36.9917 247.696 37.1006 247.941 36.5617L254.908 38.7144L256.358 34.6322C255.669 33.8638 254.872 33.2 253.991 32.6619C251.351 33.9818 248.765 35.3779 248.401 35.4051Z" fill="#167738"/>
<path opacity="0.4" d="M215.803 28.5418C217.436 28.3622 221.317 27.8261 223.739 27.4859C221.847 27.9023 220.889 28.5745 220.889 28.5745C220.889 28.5745 234.769 27.4151 235.615 27.3008C236.462 27.1865 240.266 26.0163 242.623 26.4463C241.311 25.8748 230.869 26.4463 228.929 26.4463C226.988 26.4463 218.043 27.6982 216.538 27.6655C215.449 27.641 208.512 26.4735 205.407 25.7414C207.693 27.3144 214.162 28.7214 215.803 28.5418Z" fill="#167738"/>
<path d="M197.732 24.0047C200.209 24.8647 215.041 27.627 216.537 27.6596C218.034 27.6923 226.991 26.4404 228.928 26.4404C230.866 26.4404 241.311 25.8689 242.623 26.4404C243.934 27.0119 247.124 29.7796 251.693 31.5023C253.48 32.1535 255.084 33.224 256.372 34.6239L254.921 38.7061L247.954 36.5534C247.709 37.0977 243.14 36.9834 242.623 36.9834C242.106 36.9834 240.233 40.6438 240.233 40.6438C241.322 41.2915 244.109 41.2915 245.004 41.2915C245.899 41.2915 253.155 42.0453 254.921 43.8932C256.687 45.7411 256.282 47.4311 254.513 48.0734C252.744 48.7156 248.956 48.2884 246.8 48.0734C244.377 47.7788 241.935 47.6706 239.496 47.7495C236.252 47.8584 236.573 47.9672 232.912 47.5345C229.252 47.1018 224.947 47.1045 221.286 44.5219C217.626 41.9392 211.919 41.1826 209.443 40.2138C209.443 40.2138 196.224 38.3849 194.072 38.619" stroke="#263238" stroke-width="0.21" stroke-linecap="round" stroke-linejoin="round"/>
<path d="M240.234 40.6523C240.234 40.6523 237.221 40.0074 235.714 38.5541" stroke="#263238" stroke-width="0.21" stroke-linecap="round" stroke-linejoin="round"/>
<path d="M238.859 40.2603C238.859 40.2603 238.027 37.5388 237.975 36.4012" stroke="#263238" stroke-width="0.21" stroke-linecap="round" stroke-linejoin="round"/>
<path d="M242.622 36.9917C242.622 36.9917 243.518 35.054 242.979 33.8157" stroke="#263238" stroke-width="0.21" stroke-linecap="round" stroke-linejoin="round"/>
<path d="M247.954 36.5618C247.954 36.5618 248.093 35.0541 248.847 34.7329" stroke="#263238" stroke-width="0.21" stroke-linecap="round" stroke-linejoin="round"/>
<path d="M220.52 44.032C220.52 44.032 216.924 41.1363 215.096 40.2764" stroke="#263238" stroke-width="0.21" stroke-linecap="round" stroke-linejoin="round"/>
<path d="M236.251 27.1944C233.397 27.6788 225.591 28.3265 224.193 28.5415" stroke="#263238" stroke-width="0.21" stroke-linecap="round" stroke-linejoin="round"/>
<path d="M241.635 26.2692C239.05 26.1875 237.705 26.8135 237.705 26.8135" stroke="#263238" stroke-width="0.21" stroke-linecap="round" stroke-linejoin="round"/>
<path d="M277.812 48.5281L272.548 28.5742C272.548 28.5742 251.264 35.5875 248.624 37.0108L230.069 39.3894C230.069 39.3894 230.629 52.1367 232.401 57.9988C232.401 57.9988 251.723 54.2921 254.301 54.0935C256.878 53.8948 277.812 48.5281 277.812 48.5281Z" fill="#167738"/>
<mask id="mask1_90_7656" style="mask-type:luminance" maskUnits="userSpaceOnUse" x="230" y="28" width="48" height="30">
<path d="M277.812 48.5276L272.548 28.5737C272.548 28.5737 251.264 35.587 248.624 37.0103L230.069 39.3889C230.069 39.3889 230.629 52.1362 232.401 57.9983C232.401 57.9983 251.723 54.2916 254.301 54.093C256.878 53.8943 277.812 48.5276 277.812 48.5276Z" fill="white"/>
</mask>
<g mask="url(#mask1_90_7656)">
<path opacity="0.2" d="M255.444 52.819L274.246 48.4211C274.246 48.4211 275.185 46.5297 276.042 45.7976L271.977 31.5017C271.977 31.5017 270.575 31.4582 269.677 30.639L248.888 37.8537L233.563 39.6036C233.563 39.6036 233.378 41.9304 231.658 42.1536C231.658 42.1536 231.25 49.6975 232.583 54.7567C232.583 54.7567 234.442 55.3527 235.618 56.2644L255.444 52.819Z" fill="black" fill-opacity="0.7"/>
<path d="M255.444 52.819L274.246 48.4211C274.246 48.4211 275.185 46.5297 276.042 45.7976L271.977 31.5017C271.977 31.5017 270.575 31.4582 269.677 30.639L248.888 37.8537L233.563 39.6036C233.563 39.6036 233.378 41.9304 231.658 42.1536C231.658 42.1536 231.25 49.6975 232.583 54.7567C232.583 54.7567 234.442 55.3527 235.618 56.2644L255.444 52.819Z" stroke="#263238" stroke-width="0.21" stroke-linecap="round" stroke-linejoin="round"/>
<path d="M254.467 49.1589C254.467 49.1589 259.365 47.8608 258.486 43.2887C257.607 38.7166 251.571 41.2993 251.571 41.2993C251.571 41.2993 246.7 41.2721 247.372 44.9815C247.954 48.1982 249.72 49.9128 254.467 49.1589Z" fill="#00FF59" stroke="#263238" stroke-width="0.21" stroke-linecap="round" stroke-linejoin="round"/>
<path d="M272.458 46.6824C272.458 46.6824 266.86 48.0649 265.783 48.4214" stroke="#263238" stroke-width="0.21" stroke-linecap="round" stroke-linejoin="round"/>
<path d="M271.974 45.4986L268.904 46.3042" stroke="#263238" stroke-width="0.21" stroke-linecap="round" stroke-linejoin="round"/>
<path d="M269.821 35.4045L268.852 32.6531L267.99 32.9552V33.8152L268.42 35.6467L269.821 35.4045Z" fill="#00FF59" stroke="#263238" stroke-width="0.21" stroke-linecap="round" stroke-linejoin="round"/>
<path d="M267.99 35.8622L267.345 33.8156L266.915 33.3856L265.783 33.8156L266.591 36.186L267.99 35.8622Z" fill="#00FF59" stroke="#263238" stroke-width="0.21" stroke-linecap="round" stroke-linejoin="round"/>
<path d="M266.052 36.1857L265.399 33.8153L264.545 34.1501V35.4047L265.029 36.5613L266.052 36.1857Z" fill="#00FF59" stroke="#263238" stroke-width="0.21" stroke-linecap="round" stroke-linejoin="round"/>
<path d="M264.544 36.561L263.791 34.7322H263.254L262.822 35.1894L263.306 36.8931H264.223L264.544 36.561Z" fill="#00FF59" stroke="#263238" stroke-width="0.21" stroke-linecap="round" stroke-linejoin="round"/>
<path d="M262.114 35.0019H261.276C261.183 34.9878 261.089 34.9954 261 35.0242C260.911 35.0531 260.83 35.1023 260.764 35.1679C260.727 35.2355 260.708 35.3113 260.708 35.3884C260.708 35.4654 260.727 35.5412 260.764 35.6088C260.829 35.7476 260.927 35.881 260.984 36.0116C261.156 36.4389 260.941 36.9641 261.17 37.3723C261.689 37.3723 262.514 37.5547 262.53 36.9124C262.522 36.8063 261.923 35.0019 262.114 35.0019Z" fill="#00FF59" stroke="#263238" stroke-width="0.21" stroke-linecap="round" stroke-linejoin="round"/>
<path d="M260.016 35.7554C259.824 35.7759 259.634 35.8105 259.447 35.8588C259.205 35.9187 258.935 36.0357 258.87 36.2779C258.849 36.4083 258.86 36.5421 258.903 36.6671L259.306 38.1965C259.592 38.1226 259.874 38.0317 260.149 37.9244C260.451 37.7176 260.446 37.7883 260.47 37.4264C260.495 36.8385 259.942 36.3595 260.016 35.7554Z" fill="#00FF59" stroke="#263238" stroke-width="0.21" stroke-linecap="round" stroke-linejoin="round"/>
<path d="M271.596 40.9212L267.99 41.8384L267.775 41.3812L271.329 40.2763L271.596 40.9212Z" fill="#00FF59" stroke="#263238" stroke-width="0.21" stroke-linecap="round" stroke-linejoin="round"/>
<path d="M247.38 52.4137L246.648 49.5888L245.767 49.8174L245.69 50.6746L245.965 52.5361L247.38 52.4137Z" fill="#00FF59" stroke="#263238" stroke-width="0.21" stroke-linecap="round" stroke-linejoin="round"/>
<path d="M245.516 52.7132L245.048 50.6204L244.656 50.1523L243.491 50.4843L244.096 52.9146L245.516 52.7132Z" fill="#00FF59" stroke="#263238" stroke-width="0.21" stroke-linecap="round" stroke-linejoin="round"/>
<path d="M243.556 52.8683L243.11 50.4516L242.231 50.7129L242.122 51.962L242.506 53.1567L243.556 52.8683Z" fill="#00FF59" stroke="#263238" stroke-width="0.21" stroke-linecap="round" stroke-linejoin="round"/>
<path d="M242.024 53.1161L241.428 51.2274L240.892 51.1812L240.424 51.6003L240.762 53.3393L241.673 53.4182L242.024 53.1161Z" fill="#00FF59" stroke="#263238" stroke-width="0.21" stroke-linecap="round" stroke-linejoin="round"/>
<path d="M239.736 51.3551L238.9 51.2816C238.809 51.2593 238.714 51.2588 238.623 51.2801C238.532 51.3013 238.447 51.3439 238.375 51.4041C238.333 51.4682 238.307 51.542 238.301 51.6186C238.295 51.6953 238.308 51.7722 238.34 51.8423C238.391 51.9865 238.478 52.1144 238.522 52.2641C238.658 52.7023 238.4 53.2084 238.593 53.6248C239.11 53.6738 239.915 53.9215 239.978 53.2846C239.983 53.1867 239.545 51.3388 239.736 51.3551Z" fill="#00FF59" stroke="#263238" stroke-width="0.21" stroke-linecap="round" stroke-linejoin="round"/>
<path d="M237.58 51.9243C237.382 51.9281 237.185 51.9463 236.99 51.9787C236.745 52.0195 236.465 52.1121 236.38 52.3461C236.347 52.4747 236.347 52.6094 236.38 52.738L236.652 54.2947C236.945 54.2423 237.234 54.1723 237.518 54.0851C237.836 53.9055 237.825 53.9763 237.88 53.617C237.964 53.0455 237.455 52.523 237.58 51.9243Z" fill="#00FF59" stroke="#263238" stroke-width="0.21" stroke-linecap="round" stroke-linejoin="round"/>
<path d="M234.937 40.6511C234.937 40.6511 242.16 40.0034 242.887 40.0034" stroke="#263238" stroke-width="0.21" stroke-linecap="round" stroke-linejoin="round"/>
<path d="M235.262 41.9443C235.262 41.9443 239.017 41.6722 239.67 41.6232" stroke="#263238" stroke-width="0.21" stroke-linecap="round" stroke-linejoin="round"/>
<path d="M237.975 46.9926L233.699 47.8662V46.9926L237.975 46.3585V46.9926Z" fill="#00FF59" stroke="#263238" stroke-width="0.21" stroke-linecap="round" stroke-linejoin="round"/>
<path opacity="0.2" d="M248.73 36.9638C249.124 38.8525 249.704 40.5371 250.54 41.7835C250.54 41.7835 247.943 40.88 243.518 37.6768L230.069 39.3995C230.069 39.3995 230.433 47.719 231.508 54.0056C236.951 52.0734 247.266 48.5627 249.309 48.9791C252.115 49.5424 255.427 47.553 255.427 47.553C256.559 41.2637 261.314 35.1649 265.333 30.9792C259.033 33.1102 250.597 36.0194 248.73 36.9638Z" fill="black" fill-opacity="0.7"/>
</g>
<path d="M277.812 48.5281L272.548 28.5742C272.548 28.5742 251.264 35.5875 248.624 37.0108L230.069 39.3894C230.069 39.3894 230.629 52.1367 232.401 57.9988C232.401 57.9988 251.723 54.2921 254.301 54.0935C256.878 53.8948 277.812 48.5281 277.812 48.5281Z" stroke="#263238" stroke-width="0.21" stroke-linecap="round" stroke-linejoin="round"/>
<path d="M235.441 37.4653L215.095 40.2765C216.426 40.9025 218.696 42.6088 219.831 43.4906C220.255 43.8172 220.519 44.0349 220.519 44.0349L221.287 44.5329C224.947 47.1156 229.252 47.1156 232.913 47.5456C236.573 47.9756 236.252 47.8694 239.496 47.7606C241.931 47.6814 244.368 47.7888 246.787 48.0817C248.942 48.2967 252.733 48.7267 254.5 48.0817C255.365 47.766 255.904 47.1972 256.018 46.4842C256.132 45.7712 255.806 44.8513 254.908 43.9015C253.141 42.0537 245.886 41.2998 244.991 41.2998C244.095 41.2998 241.298 41.2998 240.22 40.6521C240.234 40.6521 236.949 38.9158 235.441 37.4653Z" fill="white"/>
<path opacity="0.4" d="M222.737 44.7452C221.986 44.1574 220.903 43.7573 219.831 43.4906C220.255 43.8172 220.519 44.0349 220.519 44.0349L221.287 44.5329C224.947 47.1156 229.252 47.1156 232.913 47.5456C236.573 47.9756 236.252 47.8694 239.496 47.7606C241.931 47.6814 244.368 47.7888 246.787 48.0817C248.942 48.2967 252.733 48.7267 254.499 48.0817C255.365 47.766 255.904 47.1972 256.018 46.4842C255.632 45.1235 254.246 43.7627 251.876 43.2892C247.897 42.4728 251.111 46.1549 247.739 47.0067C244.367 47.8586 243.458 46.6203 242.609 46.1114C241.76 45.6025 239.888 46.2529 237.373 47.0067C234.859 47.7606 224.803 46.359 222.737 44.7452Z" fill="#C7C7C7"/>
<path d="M235.441 37.4655C236.948 38.9187 240.233 40.6523 240.233 40.6523C241.322 41.3 244.109 41.3 245.004 41.3C245.899 41.3 253.155 42.0539 254.921 43.9017C256.687 45.7496 256.282 47.4396 254.513 48.0819C252.744 48.7242 248.956 48.2969 246.8 48.0819C244.377 47.7874 241.935 47.6791 239.496 47.7581C236.252 47.8669 236.573 47.9758 232.913 47.5431C229.252 47.1104 224.947 47.1131 221.286 44.5304L220.519 44.0324C220.519 44.0324 216.924 41.1367 215.095 40.2767" stroke="#263238" stroke-width="0.21" stroke-linecap="round" stroke-linejoin="round"/>
<path d="M244.051 46.9932C244.051 46.9932 245.328 44.5248 245.219 43.2892" stroke="#263238" stroke-width="0.21" stroke-linecap="round" stroke-linejoin="round"/>
<path opacity="0.2" d="M268.945 78.3788C268.945 78.3788 272.727 81.8139 272.959 82.0505C273.191 82.2871 277.225 82.4653 279.001 83.1181C280.777 83.771 291.205 84.087 291.205 84.087C291.205 84.087 291.975 84.7084 291.56 86.4604C291.146 88.2124 291.917 89.93 290.791 91.8841C289.665 93.8382 273.558 90.0483 273.558 90.0483L261.299 86.2014L268.945 78.3788Z" fill="black" fill-opacity="0.7"/>
<path d="M268.916 76.019C268.916 76.019 259.082 77.5583 257.78 79.1636C257.031 80.0905 256.687 81.5355 256.731 82.8173C256.764 83.7457 256.998 84.5903 257.422 85.0874C258.43 86.2719 258.963 87.9325 259.614 88.7591C260.265 89.5857 262.576 89.5887 264.532 90.1218C266.487 90.6549 266.546 91.4261 268.5 91.6027C270.454 91.7794 276.436 92.4922 278.097 93.78C279.757 95.0678 281.059 95.0978 282.748 95.6308C284.437 96.1639 290.548 100.063 290.548 100.063L292.495 90.5575C292.495 90.5575 288.627 89.6231 285.472 88.6229C283.974 88.1482 282.636 87.6585 281.95 87.2482C280.623 86.4604 279.237 85.778 277.803 85.2072C276.677 84.1321 274.183 83.5436 271.998 83.3654L270.578 80.8198C270.044 78.8626 268.916 76.019 268.916 76.019Z" fill="white"/>
<path opacity="0.4" d="M268.916 76.0189C268.916 76.0189 259.083 77.5583 257.78 79.1635C257.031 80.0905 256.687 81.5355 256.732 82.8173C257.48 85.8571 259.175 86.6747 259.586 87.0865C260.132 87.6345 263.463 88.3548 265.4 87.9595C267.338 87.5641 268.055 87.8486 269.002 88.1751C271.098 88.8983 272.227 86.6926 273.021 86.465C273.814 86.2374 278.253 86.3153 279.696 87.3081C280.464 87.8352 284.424 89.1933 285.469 88.6213C283.971 88.1466 282.633 87.657 281.947 87.2467C280.62 86.4588 279.234 85.7764 277.8 85.2057C276.674 84.1305 274.18 83.542 271.995 83.3638L270.575 80.8182C270.044 78.8626 268.916 76.0189 268.916 76.0189Z" fill="#167738"/>
<path d="M269.608 87.6272C269.608 87.6272 268.977 88.1633 268.977 88.6365" stroke="#263238" stroke-width="0.21" stroke-linecap="round" stroke-linejoin="round"/>
<path d="M267.477 86.4606C267.477 86.4606 266.252 87.0371 265.98 87.958" stroke="#263238" stroke-width="0.21" stroke-linecap="round" stroke-linejoin="round"/>
<path d="M260.298 87.4849C260.298 87.4849 260.861 86.1806 261.809 85.974" stroke="#263238" stroke-width="0.21" stroke-linecap="round" stroke-linejoin="round"/>
<path d="M270.577 80.8166C270.577 80.8166 270.162 81.1431 269.828 81.1431" stroke="#263238" stroke-width="0.21" stroke-linecap="round" stroke-linejoin="round"/>
<path d="M292.495 90.5516C292.495 90.5516 284.084 88.518 281.944 87.2422C280.617 86.4544 279.231 85.772 277.797 85.2012C276.671 84.1261 274.175 83.5376 271.99 83.3594L270.571 80.8138C270.038 78.8596 268.912 76.022 268.912 76.022C268.912 76.022 259.078 77.5613 257.775 79.1666C256.472 80.7718 256.419 83.891 257.425 85.0889C258.431 86.2869 258.966 87.934 259.617 88.7606C260.268 89.5872 262.579 89.5902 264.535 90.1233C266.49 90.6564 266.549 91.4276 268.503 91.6042C270.457 91.7809 276.439 92.4937 278.1 93.7815C279.76 95.0693 281.062 95.0993 282.751 95.6323C284.44 96.1654 290.548 100.063 290.548 100.063" stroke="#263238" stroke-width="0.21" stroke-linecap="round" stroke-linejoin="round"/>
<path d="M269.554 72.4176L245.354 88.1392L244.941 84.4285L244.472 73.1544L265.998 71.9999L269.554 72.4176Z" fill="#263238" stroke="#263238" stroke-width="0.21" stroke-linecap="round" stroke-linejoin="round"/>
<path d="M269.555 72.4176L244.885 73.8701L245.354 88.1392L264.258 87.0131L270.127 86.6627L269.877 80.4454L269.555 72.4176Z" fill="#757575"/>
<mask id="mask2_90_7656" style="mask-type:luminance" maskUnits="userSpaceOnUse" x="244" y="72" width="27" height="17">
<path d="M269.555 72.4176L244.885 73.8701L245.354 88.1392L264.258 87.0131L270.127 86.6627L269.877 80.4454L269.555 72.4176Z" fill="white"/>
</mask>
<g mask="url(#mask2_90_7656)">
<path d="M247.726 76.0057C247.726 75.0463 248.504 74.2686 249.463 74.2686C250.423 74.2686 251.2 75.0463 251.2 76.0057C251.2 76.965 250.423 77.7427 249.463 77.7427C248.504 77.7427 247.726 76.965 247.726 76.0057Z" fill="#BFBFBF" stroke="white" stroke-width="0.21" stroke-miterlimit="10"/>
<path d="M250.616 76.4951L250.462 75.3181" stroke="white" stroke-width="0.21" stroke-linecap="round" stroke-linejoin="round"/>
<path d="M250.33 76.811L250.158 75.0426" stroke="white" stroke-width="0.21" stroke-linecap="round" stroke-linejoin="round"/>
<path d="M248.587 77.0073L248.415 75.2374" stroke="white" stroke-width="0.21" stroke-linecap="round" stroke-linejoin="round"/>
<path d="M249.936 76.2331C249.924 76.1845 249.931 76.1331 249.956 76.0896C249.981 76.0461 250.021 76.0139 250.069 75.9995L250.056 75.8678L248.806 76.001L248.826 76.1972L249.78 76.0954L249.797 76.2451L249.936 76.2331Z" fill="white"/>
<path d="M249.884 75.5787C249.884 75.5008 249.825 75.4649 249.743 75.4739H249.728L249.735 75.5502H249.749C249.785 75.5502 249.801 75.5592 249.804 75.5847C249.807 75.6101 249.794 75.6266 249.758 75.6296C249.722 75.6326 249.69 75.6206 249.639 75.5727C249.619 75.5484 249.593 75.5293 249.563 75.5171C249.534 75.5048 249.502 75.4998 249.47 75.5023C249.388 75.5113 249.346 75.5562 249.355 75.6356C249.364 75.715 249.415 75.7494 249.496 75.7419H249.527L249.52 75.667H249.482C249.446 75.667 249.431 75.6566 249.428 75.6311C249.425 75.6057 249.437 75.5877 249.473 75.5847C249.509 75.5817 249.541 75.5937 249.592 75.6416C249.612 75.6659 249.638 75.685 249.668 75.6972C249.697 75.7095 249.729 75.7145 249.761 75.712C249.851 75.7015 249.898 75.6551 249.884 75.5787Z" fill="white"/>
<path d="M249.863 75.4381L249.837 75.1895L249.764 75.1985L249.773 75.2823L249.336 75.3288L249.343 75.4081L249.782 75.3617L249.791 75.4456L249.863 75.4381Z" fill="white"/>
<path d="M268.46 79.6477L269.068 82.4333C269.084 82.5052 269.038 82.5762 268.966 82.5919L267.23 82.9708C267.158 82.9865 267.087 82.941 267.071 82.8691L266.463 80.0835C266.448 80.0116 266.493 79.9406 266.565 79.9249L268.302 79.5459C268.374 79.5302 268.445 79.5758 268.46 79.6477Z" fill="white" stroke="white" stroke-width="0.21" stroke-linecap="round" stroke-linejoin="round"/>
<path d="M267.356 81.9445L267.366 81.955C267.366 81.955 267.384 81.955 267.392 81.9624C267.399 81.9696 267.407 81.9752 267.416 81.9789C267.419 81.9796 267.422 81.9796 267.425 81.9789C267.425 81.9789 267.425 81.9714 267.435 81.9669C267.438 81.9632 267.441 81.9601 267.444 81.9578C267.448 81.9554 267.452 81.954 267.456 81.9535C267.459 81.954 267.461 81.954 267.464 81.9535V81.9445C267.492 81.9445 267.513 81.9624 267.536 81.9804C267.59 82.0238 267.616 82.0328 267.652 82.0238C267.688 82.0148 267.699 81.9999 267.694 81.9744C267.69 81.949 267.672 81.9385 267.636 81.946H267.615L267.598 81.8711H267.615C267.641 81.861 267.671 81.8614 267.697 81.8723C267.723 81.8831 267.744 81.9036 267.756 81.9295L267.792 81.9205L267.807 81.9849L267.769 81.9924C267.769 82.0508 267.732 82.0882 267.664 82.1032C267.634 82.1089 267.603 82.1068 267.574 82.0971C267.545 82.0874 267.519 82.0704 267.498 82.0478C267.446 82.0044 267.416 81.9954 267.381 82.0044C267.347 82.0134 267.335 82.0298 267.341 82.0553C267.347 82.0807 267.363 82.0927 267.398 82.0852L267.438 82.0762L267.455 82.1511H267.42C267.407 82.1573 267.392 82.1607 267.377 82.1611C267.362 82.1615 267.347 82.1589 267.333 82.1535C267.319 82.148 267.306 82.1398 267.296 82.1294C267.285 82.119 267.276 82.1065 267.271 82.0927H267.235L267.22 82.0283L267.257 82.0208V81.9819C267.261 81.9701 267.268 81.9594 267.277 81.9505C267.286 81.9413 267.296 81.9337 267.308 81.928C267.347 81.9445 267.351 81.9445 267.356 81.9445Z" fill="white"/>
<path d="M267.38 81.5324C267.392 81.5331 267.404 81.5362 267.414 81.5414C267.42 81.5429 267.426 81.5429 267.432 81.5414C267.437 81.5391 267.44 81.5354 267.443 81.5309C267.479 81.4905 267.527 81.5399 267.536 81.5789C267.539 81.5923 267.539 81.6064 267.535 81.6198C267.531 81.6332 267.524 81.6454 267.515 81.6552L267.631 81.6238L267.601 81.486L267.673 81.471L267.718 81.6777C267.708 81.682 267.698 81.6851 267.687 81.6867C267.676 81.6867 267.673 81.6732 267.661 81.6732C267.649 81.6732 267.651 81.6732 267.645 81.6732C267.636 81.6705 267.629 81.6646 267.624 81.6567C267.624 81.6492 267.61 81.6417 267.601 81.6432C267.599 81.6422 267.595 81.6422 267.592 81.6432C267.579 81.6489 267.567 81.6589 267.56 81.6717C267.558 81.6776 267.555 81.6829 267.551 81.6867H267.542C267.531 81.6867 267.525 81.6986 267.519 81.7076C267.513 81.7166 267.465 81.7391 267.432 81.7481L267.416 81.6732H267.431C267.467 81.6657 267.476 81.6462 267.471 81.6223C267.467 81.5983 267.449 81.5833 267.413 81.5923L267.302 81.6163C267.268 81.6163 267.257 81.6417 267.263 81.6672C267.269 81.6927 267.284 81.7046 267.32 81.6972L267.366 81.6867L267.383 81.7615L267.341 81.7705C267.325 81.7763 267.307 81.7786 267.29 81.7772C267.273 81.7758 267.256 81.7707 267.241 81.7623C267.226 81.7539 267.213 81.7424 267.203 81.7286C267.192 81.7147 267.185 81.6988 267.182 81.682C267.178 81.6651 267.178 81.6477 267.182 81.6308C267.185 81.6139 267.192 81.598 267.203 81.5842C267.213 81.5703 267.226 81.5588 267.241 81.5504C267.256 81.542 267.273 81.5369 267.29 81.5354C267.32 81.5301 267.35 81.5291 267.38 81.5324Z" fill="white"/>
<path d="M267.17 80.5547C267.182 80.556 267.193 80.5591 267.204 80.5636C267.21 80.5651 267.216 80.5651 267.222 80.5636C267.227 80.5613 267.23 80.5577 267.233 80.5532C267.269 80.5142 267.317 80.5636 267.326 80.6011C267.329 80.6145 267.329 80.6286 267.325 80.642C267.321 80.6554 267.314 80.6676 267.305 80.6774L267.421 80.646L267.392 80.5082L267.463 80.4933L267.508 80.6999C267.499 80.7049 267.488 80.708 267.477 80.7089C267.466 80.7089 267.463 80.6969 267.451 80.6954C267.439 80.6939 267.441 80.6954 267.435 80.6954C267.426 80.6927 267.419 80.6868 267.414 80.6789C267.414 80.6715 267.4 80.664 267.392 80.6655C267.383 80.667 267.391 80.6655 267.383 80.6655C267.368 80.6712 267.357 80.6818 267.35 80.6954C267.348 80.7007 267.345 80.7054 267.341 80.7089C267.341 80.7089 267.341 80.7089 267.332 80.7089C267.323 80.7089 267.315 80.7194 267.309 80.7284C267.303 80.7373 267.255 80.7598 267.222 80.7688L267.206 80.6939H267.221C267.257 80.6864 267.266 80.667 267.261 80.643C267.257 80.619 267.239 80.6056 267.203 80.6131L267.092 80.637C267.058 80.637 267.047 80.6625 267.053 80.6879C267.059 80.7134 267.074 80.7254 267.11 80.7179L267.156 80.7074L267.173 80.7823L267.131 80.7912C267.115 80.7958 267.099 80.797 267.082 80.7949C267.066 80.7928 267.051 80.7874 267.036 80.779C267.022 80.7706 267.01 80.7594 267.001 80.7461C266.991 80.7328 266.984 80.7176 266.981 80.7016C266.977 80.6856 266.977 80.669 266.98 80.653C266.984 80.6369 266.99 80.6216 266.999 80.6081C267.009 80.5946 267.021 80.5832 267.034 80.5745C267.048 80.5658 267.064 80.5601 267.08 80.5576C267.11 80.5517 267.14 80.5506 267.17 80.5547Z" fill="white"/>
<path d="M267.528 81.3617C267.564 81.3542 267.575 81.3347 267.569 81.3108C267.568 81.3031 267.564 81.296 267.558 81.2908C267.552 81.2856 267.545 81.2826 267.537 81.2823V81.2569C267.533 81.256 267.529 81.2542 267.525 81.2516C267.521 81.249 267.518 81.2457 267.516 81.2419C267.509 81.2329 267.504 81.2209 267.497 81.2104C267.512 81.2055 267.529 81.204 267.545 81.2059C267.562 81.2078 267.578 81.2132 267.592 81.2217C267.606 81.2302 267.618 81.2416 267.628 81.2551C267.637 81.2687 267.643 81.2841 267.646 81.3003C267.652 81.3168 267.654 81.3343 267.651 81.3516C267.649 81.3689 267.643 81.3854 267.633 81.3998C267.623 81.4143 267.611 81.4263 267.595 81.435C267.58 81.4437 267.563 81.4489 267.546 81.45C267.537 81.4507 267.527 81.4507 267.518 81.45C267.494 81.45 267.501 81.45 267.492 81.4261C267.483 81.4021 267.471 81.3946 267.464 81.4156V81.4021C267.464 81.4021 267.453 81.4021 267.449 81.4021C267.444 81.4021 267.441 81.4021 267.435 81.4096C267.431 81.4082 267.427 81.4082 267.423 81.4096C267.423 81.4096 267.404 81.4216 267.401 81.4246C267.393 81.4289 267.387 81.4351 267.383 81.4425C267.371 81.462 267.383 81.471 267.353 81.477C267.323 81.483 267.32 81.4845 267.305 81.4875C267.289 81.4932 267.271 81.4954 267.254 81.4939C267.237 81.4925 267.22 81.4873 267.205 81.4789C267.189 81.4704 267.176 81.4588 267.166 81.4449C267.155 81.4309 267.148 81.415 267.144 81.398C267.141 81.381 267.141 81.3635 267.144 81.3465C267.148 81.3295 267.155 81.3134 267.165 81.2993C267.175 81.2853 267.188 81.2736 267.203 81.265C267.219 81.2564 267.235 81.251 267.253 81.2494L267.357 81.2254V81.2344C267.365 81.2522 267.375 81.2692 267.386 81.2853L267.398 81.2988L267.263 81.3287C267.227 81.3287 267.217 81.3557 267.223 81.3796C267.229 81.4036 267.245 81.4171 267.281 81.4096L267.485 81.3662C267.497 81.3672 267.51 81.364 267.521 81.3572L267.528 81.3617Z" fill="white"/>
<path d="M267.281 80.9934V80.986C267.288 80.986 267.296 80.986 267.306 80.986V80.953L267.422 80.9276C267.438 80.9218 267.455 80.9196 267.473 80.9211C267.49 80.9226 267.507 80.9277 267.522 80.9362C267.537 80.9446 267.55 80.9562 267.561 80.9701C267.571 80.9841 267.578 81.0001 267.582 81.017C267.586 81.034 267.586 81.0516 267.582 81.0686C267.579 81.0856 267.572 81.1016 267.561 81.1157C267.551 81.1297 267.538 81.1414 267.523 81.1501C267.508 81.1587 267.491 81.164 267.474 81.1657H267.453C267.444 81.1552 267.429 81.1492 267.422 81.1387C267.414 81.1282 267.422 81.1117 267.396 81.1162C267.371 81.1207 267.375 81.1252 267.368 81.1162C267.36 81.1073 267.368 81.1058 267.357 81.1043C267.355 81.1024 267.352 81.1015 267.349 81.1015C267.346 81.1015 267.343 81.1024 267.341 81.1043C267.341 81.1043 267.341 81.1147 267.327 81.1162C267.314 81.1177 267.305 81.1162 267.302 81.1252C267.299 81.1342 267.32 81.1537 267.318 81.1701C267.316 81.176 267.313 81.1814 267.309 81.1856C267.304 81.1898 267.299 81.1927 267.293 81.1941C267.267 81.2017 267.241 81.2073 267.215 81.2106C267.199 81.216 267.182 81.2179 267.166 81.2161C267.149 81.2143 267.133 81.2089 267.119 81.2001C267.104 81.1914 267.092 81.1796 267.083 81.1657C267.074 81.1517 267.068 81.1358 267.065 81.1192C267.061 81.1022 267.06 81.0844 267.063 81.0671C267.066 81.0497 267.073 81.0333 267.083 81.0189C267.095 81.0056 267.108 80.9945 267.124 80.986C267.131 80.9792 267.141 80.9755 267.151 80.9755C267.161 80.9755 267.171 80.9792 267.179 80.986V80.9934L267.215 81.0039C267.215 81.0039 267.215 81.0039 267.224 80.9934C267.233 80.983 267.252 80.9935 267.263 80.9785C267.273 80.9635 267.278 80.9964 267.281 80.9934ZM267.179 81.0563C267.143 81.0638 267.133 81.0833 267.139 81.1088C267.145 81.1342 267.161 81.1462 267.197 81.1387L267.466 81.0788C267.502 81.0713 267.513 81.0533 267.507 81.0279C267.501 81.0024 267.484 80.9905 267.448 80.9979L267.179 81.0563Z" fill="white"/>
<path d="M267.095 80.8603L267.018 80.8768L267.035 80.9531L267.111 80.9367L267.095 80.8603Z" fill="white"/>
<path d="M267.229 80.2343C267.229 80.2254 267.263 80.2254 267.275 80.2224C267.291 80.2166 267.309 80.2144 267.326 80.2159C267.343 80.2174 267.36 80.2225 267.375 80.231C267.391 80.2394 267.404 80.251 267.414 80.2649C267.425 80.2789 267.432 80.2949 267.436 80.3118C267.439 80.3288 267.439 80.3464 267.436 80.3634C267.432 80.3804 267.425 80.3964 267.415 80.4105C267.405 80.4245 267.392 80.4362 267.377 80.4449C267.361 80.4535 267.345 80.4588 267.327 80.4605L267.227 80.4829C267.209 80.4635 267.181 80.4829 267.16 80.4739C267.139 80.4649 267.16 80.4739 267.151 80.4739C267.142 80.4739 267.137 80.4964 267.125 80.4964C267.125 80.4964 267.107 80.5084 267.098 80.5159C267.091 80.5206 267.083 80.5232 267.074 80.5233C267.058 80.5291 267.041 80.5313 267.023 80.5298C267.006 80.5283 266.989 80.5232 266.974 80.5147C266.959 80.5063 266.946 80.4947 266.935 80.4808C266.925 80.4668 266.918 80.4508 266.914 80.4339C266.91 80.4169 266.91 80.3993 266.914 80.3823C266.917 80.3653 266.924 80.3493 266.934 80.3352C266.945 80.3212 266.958 80.3095 266.973 80.3009C266.988 80.2922 267.005 80.2869 267.022 80.2853L267.104 80.2673C267.125 80.2673 267.181 80.2403 267.197 80.2673C267.214 80.2942 267.197 80.2793 267.208 80.2823C267.211 80.2841 267.215 80.2851 267.219 80.2851C267.223 80.2851 267.227 80.2841 267.23 80.2823C267.245 80.2643 267.22 80.2508 267.229 80.2343ZM267.097 80.3257C267.088 80.3257 267.085 80.3407 267.073 80.3482C267.058 80.3539 267.042 80.3574 267.026 80.3586C266.991 80.3661 266.982 80.3856 266.986 80.4095C266.991 80.4335 267.008 80.4485 267.044 80.4395C267.055 80.4395 267.085 80.426 267.094 80.429C267.103 80.432 267.094 80.444 267.112 80.45C267.127 80.4545 267.144 80.4545 267.16 80.45C267.163 80.4492 267.167 80.4492 267.17 80.45C267.17 80.45 267.184 80.4575 267.19 80.45C267.19 80.45 267.209 80.45 267.223 80.45C267.205 80.4021 267.278 80.4036 267.308 80.3961C267.338 80.3886 267.354 80.3691 267.348 80.3452C267.342 80.3212 267.326 80.3077 267.292 80.3152C267.261 80.3254 267.229 80.3314 267.197 80.3332C267.196 80.3269 267.193 80.3212 267.189 80.3168C267.184 80.3125 267.178 80.3098 267.172 80.3092C267.164 80.3107 267.156 80.3107 267.148 80.3092C267.148 80.3092 267.134 80.3092 267.128 80.3092C267.122 80.3092 267.128 80.3182 267.128 80.3242C267.127 80.3283 267.124 80.332 267.121 80.3349C267.117 80.3377 267.113 80.3397 267.109 80.3407L267.097 80.3257Z" fill="white"/>
<path d="M268.317 81.0715L268.206 80.5654" stroke="white" stroke-width="0.21" stroke-linecap="round" stroke-linejoin="round"/>
<path d="M268.569 82.2212L268.371 81.3227" stroke="white" stroke-width="0.21" stroke-linecap="round" stroke-linejoin="round"/>
<path d="M268.221 82.2961L268.092 81.7032" stroke="white" stroke-width="0.21" stroke-linecap="round" stroke-linejoin="round"/>
<path opacity="0.4" d="M245.573 87.4849C245.778 86.698 245.887 85.8888 245.896 85.0755C245.932 83.614 245.655 82.6796 246.248 81.4817C246.841 80.2837 245.773 79.5066 246.366 78.361C246.959 77.2155 247.909 76.6839 247.888 76.022C247.867 75.3602 258.473 74.3749 260.298 74.0574C262.124 73.7399 267.212 73.0646 268.245 72.8325L245.249 74.1368L245.573 87.4849Z" fill="white"/>
<path d="M250.098 87.4218L245.655 83.7696L245.895 87.627L250.098 87.4218Z" fill="#167738" stroke="white" stroke-width="0.21" stroke-linecap="round" stroke-linejoin="round"/>
<path d="M258.883 77.7288L257.193 77.7872C256.957 77.7953 256.725 77.8498 256.51 77.9476C256.295 78.0454 256.102 78.1846 255.941 78.3571C255.78 78.5297 255.654 78.7323 255.572 78.9534C255.489 79.1744 255.451 79.4096 255.459 79.6455L255.52 81.3825C255.528 81.6191 255.583 81.8517 255.681 82.067C255.78 82.2823 255.919 82.4761 256.093 82.6372C256.266 82.7984 256.47 82.9237 256.692 83.0059C256.913 83.0882 257.149 83.1258 257.386 83.1166L259.587 83.0387C260.063 83.0219 260.513 82.8167 260.838 82.4682C261.163 82.1198 261.336 81.6565 261.32 81.1804L261.26 79.4434C261.26 79.3954 261.26 79.3475 261.249 79.2936C261.016 79.5367 260.704 79.6901 260.369 79.7272C260.033 79.7643 259.696 79.6827 259.415 79.4967C259.133 79.3106 258.926 79.0319 258.829 78.7089C258.732 78.3859 258.751 78.0391 258.883 77.7288Z" fill="#167738" stroke="white" stroke-width="0.21" stroke-linecap="round" stroke-linejoin="round"/>
<path d="M260.343 77.4161C260.181 77.4215 260.024 77.475 259.891 77.5698C259.759 77.6647 259.658 77.7965 259.601 77.9488C259.544 78.101 259.533 78.2668 259.57 78.4251C259.607 78.5835 259.691 78.7272 259.809 78.8383C259.928 78.9493 260.077 79.0227 260.238 79.049C260.398 79.0753 260.563 79.0534 260.711 78.9861C260.859 78.9189 260.984 78.8092 261.069 78.671C261.155 78.5328 261.198 78.3723 261.192 78.2097C261.185 77.9921 261.091 77.7863 260.932 77.6376C260.773 77.4889 260.561 77.4092 260.343 77.4161Z" fill="#167738" stroke="white" stroke-width="0.21" stroke-linecap="round" stroke-linejoin="round"/>
<path opacity="0.4" d="M257.176 82.6228L259.36 80.0697C259.36 80.0697 260.529 80.3931 260.899 80.0697V81.2961C260.9 81.5914 260.788 81.876 260.586 82.0917C260.385 82.3074 260.108 82.4379 259.813 82.4566L257.176 82.6228Z" fill="white"/>
<path opacity="0.4" d="M260.298 78.5856L260.897 78.0391C260.897 78.0391 261.126 78.379 260.897 78.5856C260.668 78.7923 260.298 78.5856 260.298 78.5856Z" fill="white"/>
<path d="M247.254 78.8521L247.076 74.7356" stroke="white" stroke-width="0.21" stroke-linecap="round" stroke-linejoin="round"/>
<path d="M246.839 80.2776L246.543 74.7356" stroke="white" stroke-width="0.21" stroke-linecap="round" stroke-linejoin="round"/>
<path d="M245.655 76.1868V74.7358" stroke="white" stroke-width="0.21" stroke-linecap="round" stroke-linejoin="round"/>
<path opacity="0.2" d="M260.774 81.2314C259.753 83.3547 263.331 85.6548 263.823 86.4604C263.949 86.659 264.094 86.8442 264.258 87.0129L270.127 86.6625L269.877 80.4467C269.003 80.4871 268.037 80.4737 267.481 80.279C266.27 79.8597 261.794 79.1095 260.774 81.2314Z" fill="white" fill-opacity="0.7"/>
<path opacity="0.4" d="M260.592 83.6108C260.592 83.6108 259.855 81.9128 260.292 81.1431C260.73 80.3734 261.565 79.5438 263.42 79.4255C263.42 79.4255 260.807 78.4148 260.024 80.4528C259.241 82.4908 260.592 83.6108 260.592 83.6108Z" fill="white"/>
<path opacity="0.4" d="M259.547 84.2729C259.547 84.2729 258.621 80.8289 260.295 79.3554C260.295 79.3554 259.366 79.553 259.097 81.1433C258.829 82.7336 259.547 84.2729 259.547 84.2729Z" fill="white"/>
<path opacity="0.4" d="M265.529 78.7337C265.994 78.9957 261.809 78.6738 261.809 78.6738C261.809 78.6738 264.573 78.2006 265.529 78.7337Z" fill="white"/>
</g>
<path d="M269.555 72.4176L244.885 73.8701L245.354 88.1392L264.258 87.0131L270.127 86.6627L269.877 80.4454L269.555 72.4176Z" stroke="#263238" stroke-width="0.21" stroke-linecap="round" stroke-linejoin="round"/>
<path opacity="0.4" d="M244.754 73.1393L244.885 73.6589L267.477 72.4176L265.986 72.1974L244.754 73.1393Z" fill="white"/>
<path d="M260.775 81.2317C260.67 81.428 260.614 81.6464 260.611 81.8687C260.607 82.0911 260.657 82.311 260.755 82.5105C260.936 82.8557 261.223 83.1342 261.573 83.3056C262.639 83.8971 265.068 85.4979 265.766 85.7929C266.463 86.0878 268.437 86.7407 269.265 87.3921C270.093 88.0435 271.339 88.3999 271.339 88.3999L283.423 88.6365C281.676 88.2816 279.692 87.3038 279.692 87.3038C279.25 86.4542 278.597 85.7324 277.796 85.2074C277.633 85.0545 277.456 84.9176 277.267 84.7986C275.77 83.8312 273.075 83.3625 270.978 83.3116C268.608 83.2517 267.534 82.482 265.469 81.2377C263.404 79.9933 261.234 80.4231 260.775 81.2317Z" fill="white"/>
<path opacity="0.4" d="M260.775 81.2316C260.673 81.4288 260.618 81.6468 260.615 81.8687C260.612 82.0906 260.66 82.3102 260.755 82.5104C260.941 81.8306 261.29 80.9381 261.804 81.1432C262.624 81.4652 261.407 82.4071 261.804 82.8803C262.2 83.3534 264.476 85.0725 265.478 83.9809C266.48 82.8892 268.16 83.2322 268.633 83.9809C269.107 84.7296 270.234 84.2429 272.009 84.0063C273.082 83.8566 275.514 84.3702 277.269 84.7925C275.772 83.8251 273.076 83.3564 270.98 83.3055C268.609 83.2456 267.536 82.476 265.471 81.2316C263.406 79.9872 261.206 80.423 260.775 81.2316Z" fill="#167738"/>
<path d="M283.431 88.6365C281.684 88.2816 279.7 87.3038 279.7 87.3038C279.257 86.4542 278.605 85.7324 277.804 85.2074C276.501 83.963 273.361 83.37 270.992 83.3116C268.623 83.2532 267.548 82.482 265.483 81.2377C263.418 79.9933 261.265 80.3392 260.775 81.2377C260.432 81.8636 260.507 82.7186 261.573 83.3116C262.639 83.9046 265.068 85.5038 265.766 85.7988C266.464 86.0938 268.437 86.7467 269.265 87.3981C270.094 88.0495 271.339 88.4059 271.339 88.4059" stroke="#263238" stroke-width="0.21" stroke-linecap="round" stroke-linejoin="round"/>
<path d="M265.985 84.7896C265.985 84.7896 266.072 83.8222 266.435 83.379" stroke="#263238" stroke-width="0.21" stroke-linecap="round" stroke-linejoin="round"/>
<path d="M271.101 88.7546C271.101 88.7546 270.651 88.9433 270.202 87.955" stroke="#263238" stroke-width="0.21" stroke-linecap="round" stroke-linejoin="round"/>
</g>
<defs>
<linearGradient id="paint0_linear_90_7656" x1="0" y1="0" x2="289.683" y2="195.239" gradientUnits="userSpaceOnUse">
<stop stop-color="#36A4B5"/>
<stop offset="1" stop-color="#3D1F96"/>
</linearGradient>
<clipPath id="clip0_90_7656">
<rect width="105" height="105" fill="white" transform="matrix(0 -1 -1 0 305 116)"/>
</clipPath>
</defs>
</svg>
