<svg width="220" height="196" viewBox="0 0 220 196" fill="none" xmlns="http://www.w3.org/2000/svg">
<path d="M197.505 32.0777C184.02 1.33002 151.652 -10.2471 126.112 10.3977C116.14 18.4518 109.918 31.2701 97.7063 36.4137C86.2484 41.2375 71.7336 39.8174 59.3435 42.4299C32.9589 47.9583 -2.56375 68.9337 0.146249 101.253C1.33323 115.41 10.8833 131.134 15.6041 144.38C21.0241 159.621 24.2761 178.689 38.6228 187.8C63.2188 203.442 92.8879 190.656 115.045 178.044C126.969 171.263 133.532 167.095 146.372 169.42C158.258 171.588 168.963 179.176 180.578 170.174C189.299 163.415 190.02 149.719 197.342 141.675C205.591 132.613 213.954 131.957 218.242 118.337C223.439 101.811 215.781 91.4863 210.605 76.7222C205.429 61.9581 203.857 46.5437 197.505 32.0777Z" fill="white"/>
</svg>
