<svg width="298" height="298" viewBox="0 0 298 298" fill="none" xmlns="http://www.w3.org/2000/svg">
<path d="M241.38 109.259C241.38 109.259 226.813 80.9428 194.647 76.7529C162.481 72.563 140.06 93.0058 116.357 103.489C103.96 108.985 89.8049 106.851 76.6452 109.509C34.5676 118.008 18.714 171.255 36.2423 201.537C51.4165 227.761 78.1233 241.38 118.788 244.527C159.453 247.674 187.978 251.345 224.394 225.652C260.809 199.958 258.383 146.485 241.38 109.259Z" fill="#167738"/>
<path opacity="0.8" d="M241.38 109.259C241.38 109.259 226.813 80.9428 194.647 76.7529C162.481 72.563 140.06 93.0058 116.357 103.489C103.96 108.985 89.8049 106.851 76.6452 109.509C34.5676 118.008 18.714 171.255 36.2423 201.537C51.4165 227.761 78.1233 241.38 118.788 244.527C159.453 247.674 187.978 251.345 224.394 225.652C260.809 199.958 258.383 146.485 241.38 109.259Z" fill="white"/>
<path d="M138.487 262.544C187.979 262.544 228.101 259.916 228.101 256.673C228.101 253.431 187.979 250.803 138.487 250.803C88.9939 250.803 48.8721 253.431 48.8721 256.673C48.8721 259.916 88.9939 262.544 138.487 262.544Z" fill="#167738"/>
<path opacity="0.5" d="M138.487 262.544C187.979 262.544 228.101 259.916 228.101 256.673C228.101 253.431 187.979 250.803 138.487 250.803C88.9939 250.803 48.8721 253.431 48.8721 256.673C48.8721 259.916 88.9939 262.544 138.487 262.544Z" fill="white"/>
<path opacity="0.65" d="M200.745 177.334C199.07 181.464 197.353 178.144 197.628 160.837C197.753 152.731 198.325 136.156 207.295 139.804C215.913 143.308 204.553 167.816 204.553 167.816L200.745 177.334ZM213.058 179.789C213.058 179.789 231.755 160.306 224.746 154.161C217.445 147.808 211.526 163.304 208.773 170.945C202.896 187.222 203.409 190.917 206.359 187.555L213.058 179.789ZM217.004 197.276C217.004 197.276 234.121 185.088 229.645 179.396C224.99 173.478 218.213 184.456 215.007 189.892C208.153 201.484 208.034 204.386 210.758 202.241L217.004 197.276ZM221.635 214.709C221.635 214.709 238.758 202.521 234.282 196.829C229.621 190.911 222.85 201.889 219.638 207.325C212.79 218.917 212.665 221.825 215.388 219.68L221.635 214.709ZM191.739 179.658C191.739 179.658 167.786 167.19 163.894 175.635C159.835 184.426 176.362 185.767 184.462 186.256C201.746 187.323 205.125 185.761 201.078 183.902L191.739 179.658ZM195.113 193.366C195.113 193.366 169.163 185.91 167.023 194.964C164.794 204.386 181.256 202.408 189.29 201.287C206.431 198.903 209.446 196.692 205.113 195.673L195.113 193.366ZM201.073 208.332C201.073 208.332 178.955 202.628 177.352 210.334C175.689 218.351 189.564 216.294 196.334 215.162C210.769 212.742 213.273 210.811 209.583 210.048L201.073 208.332ZM204.535 220.687C204.535 220.687 183.145 212.665 180.737 220.157C178.234 227.952 192.246 227.38 199.094 226.975C213.708 226.105 216.378 224.442 212.802 223.297L204.535 220.687ZM190.231 158.107C190.231 158.107 180.469 127.759 169.371 133.272C157.833 139.005 171.159 152.695 177.834 159.245C192.061 173.222 196.459 174.205 194.588 169.324L190.231 158.107Z" fill="white"/>
<path d="M246.291 201.234L263.146 189.021" stroke="#CCCCCC" stroke-width="1.25197" stroke-linecap="round" stroke-linejoin="round"/>
<path d="M243.495 208.63L262.317 203.409" stroke="#CCCCCC" stroke-width="1.25197" stroke-linecap="round" stroke-linejoin="round"/>
<path d="M244.497 205.93L234.598 189.594" stroke="#CCCCCC" stroke-width="1.25197" stroke-linecap="round" stroke-linejoin="round"/>
<path d="M238.645 217.904L255.315 217.474" stroke="#CCCCCC" stroke-width="1.25197" stroke-linecap="round" stroke-linejoin="round"/>
<path d="M231.647 229.007L241.267 228.018" stroke="#CCCCCC" stroke-width="1.25197" stroke-linecap="round" stroke-linejoin="round"/>
<path d="M74.3031 65.7985C72.8548 69.3744 71.3767 66.4958 71.6091 51.5481C71.7164 44.5391 72.2051 30.2232 79.9531 33.3761C87.3972 36.4037 77.5691 57.5677 77.5691 57.5677L74.3031 65.7985ZM84.9417 67.944C84.9417 67.944 101.099 51.107 95.0379 45.8265C88.7322 40.3314 83.6185 53.7116 81.2345 60.3033C76.1626 74.363 76.6275 77.5873 79.1545 74.655L84.9417 67.944ZM88.3508 83.0467C88.3508 83.0467 103.138 72.5213 99.2695 67.6043C95.2465 62.4907 89.3997 71.973 86.6224 76.6695C80.7041 86.6882 80.6028 89.1855 82.951 87.3438L88.3508 83.0467ZM92.3797 98.0838C92.3797 98.0838 107.172 87.5584 103.304 82.6414C99.2814 77.5277 93.4287 87.016 90.6573 91.7066C84.739 101.725 84.6317 104.223 86.9859 102.381L92.3797 98.0838ZM66.5551 67.801C66.5551 67.801 45.8321 57.0313 42.4647 64.3323C38.9603 71.9253 53.2404 73.0756 60.2315 73.5047C75.1315 74.4285 78.1115 73.0816 74.5951 71.4724L66.5551 67.801ZM69.4695 79.6614C69.4695 79.6614 47.0182 73.2186 45.1706 81.056C43.2455 89.1974 57.4661 87.4869 64.4095 86.5214C79.2141 84.4532 81.8186 82.552 78.0757 81.6699L69.4695 79.6614ZM74.6011 92.5886C74.6011 92.5886 55.4933 87.6597 54.1106 94.317C52.6683 101.249 64.6598 99.4665 70.5065 98.489C82.9808 96.403 85.1383 94.7283 81.9497 94.0727L74.6011 92.5886ZM77.5811 103.263C77.5811 103.263 59.1051 96.3315 57.0191 102.804C54.8556 109.539 66.9603 109.044 72.8786 108.693C85.5079 107.942 87.8323 106.511 84.7331 105.516L77.5811 103.263ZM65.1902 49.1939C65.1902 49.1939 56.7509 22.9699 47.1791 27.7379C37.208 32.6966 48.7287 44.5213 54.4861 50.1773C66.7756 62.2582 70.5781 63.1045 68.9629 58.8848L65.1902 49.1939Z" fill="#167738"/>
<path opacity="0.65" d="M74.3031 65.7985C72.8548 69.3744 71.3767 66.4958 71.6091 51.5481C71.7164 44.5391 72.2051 30.2232 79.9531 33.3761C87.3972 36.4037 77.5691 57.5677 77.5691 57.5677L74.3031 65.7985ZM84.9417 67.944C84.9417 67.944 101.099 51.107 95.0379 45.8265C88.7322 40.3314 83.6185 53.7116 81.2345 60.3033C76.1626 74.363 76.6275 77.5873 79.1545 74.655L84.9417 67.944ZM88.3508 83.0467C88.3508 83.0467 103.138 72.5213 99.2695 67.6043C95.2465 62.4907 89.3997 71.973 86.6224 76.6695C80.7041 86.6882 80.6028 89.1855 82.951 87.3438L88.3508 83.0467ZM92.3797 98.0838C92.3797 98.0838 107.172 87.5584 103.304 82.6414C99.2814 77.5277 93.4287 87.016 90.6573 91.7066C84.739 101.725 84.6317 104.223 86.9859 102.381L92.3797 98.0838ZM66.5551 67.801C66.5551 67.801 45.8321 57.0313 42.4647 64.3323C38.9603 71.9253 53.2404 73.0756 60.2315 73.5047C75.1315 74.4285 78.1115 73.0816 74.5951 71.4724L66.5551 67.801ZM69.4695 79.6614C69.4695 79.6614 47.0182 73.2186 45.1706 81.056C43.2455 89.1974 57.4661 87.4869 64.4095 86.5214C79.2141 84.4532 81.8186 82.552 78.0757 81.6699L69.4695 79.6614ZM74.6011 92.5886C74.6011 92.5886 55.4933 87.6597 54.1106 94.317C52.6683 101.249 64.6598 99.4665 70.5065 98.489C82.9808 96.403 85.1383 94.7283 81.9497 94.0727L74.6011 92.5886ZM77.5811 103.263C77.5811 103.263 59.1051 96.3315 57.0191 102.804C54.8556 109.539 66.9603 109.044 72.8786 108.693C85.5079 107.942 87.8323 106.511 84.7331 105.516L77.5811 103.263ZM65.1902 49.1939C65.1902 49.1939 56.7509 22.9699 47.1791 27.7379C37.208 32.6966 48.7287 44.5213 54.4861 50.1773C66.7756 62.2582 70.5781 63.1045 68.9629 58.8848L65.1902 49.1939Z" fill="#E5E5E5"/>
<path d="M51.1846 37.0831C51.1846 37.0831 72.3724 62.9317 77.4443 75.8708C83.2673 90.7708 87.1413 107.864 87.928 121.763" stroke="#CCCCCC" stroke-width="1.25197" stroke-linecap="round" stroke-linejoin="round"/>
<path d="M73.2246 67.4314L76.1689 42.7809" stroke="#CCCCCC" stroke-width="1.25197" stroke-linecap="round" stroke-linejoin="round"/>
<path d="M77.4443 75.8709L88.1008 55.1539" stroke="#CCCCCC" stroke-width="1.25197" stroke-linecap="round" stroke-linejoin="round"/>
<path d="M75.8827 72.8014L53.5625 68.2539" stroke="#CCCCCC" stroke-width="1.25197" stroke-linecap="round" stroke-linejoin="round"/>
<path d="M81.6338 87.6299L94.7577 72.6763" stroke="#CCCCCC" stroke-width="1.25197" stroke-linecap="round" stroke-linejoin="round"/>
<path d="M79.7981 82.707L62.9492 82.558" stroke="#CCCCCC" stroke-width="1.25197" stroke-linecap="round" stroke-linejoin="round"/>
<path d="M83.0464 94.9369L70.1191 95.4495" stroke="#CCCCCC" stroke-width="1.25197" stroke-linecap="round" stroke-linejoin="round"/>
<path d="M85.6982 102.745L92.6238 93.5244" stroke="#CCCCCC" stroke-width="1.25197" stroke-linecap="round" stroke-linejoin="round"/>
<path d="M86.2054 106.177L71.0908 105.427" stroke="#CCCCCC" stroke-width="1.25197" stroke-linecap="round" stroke-linejoin="round"/>
<path d="M146.706 89.549C144.101 90.5324 144.918 88.357 152.964 81.1097C156.742 77.7244 164.603 70.9777 166.731 76.6218C168.781 82.0692 152.701 87.2544 152.701 87.2544L146.706 89.549ZM150.788 96.2481C150.788 96.2481 167.679 96.5699 167.512 90.7529C167.333 84.6916 157.702 88.5477 153.029 90.5265C143.052 94.7342 141.586 96.558 144.369 96.4865L150.788 96.2481ZM144.447 105.492C144.447 105.492 157.32 108.186 158.03 103.704C158.775 99.0493 150.878 100.605 146.992 101.433C138.755 103.221 137.366 104.413 139.512 104.729L144.447 105.492ZM138.403 115.028C138.403 115.028 151.271 117.716 151.986 113.24C152.731 108.585 144.834 110.135 140.948 110.969C132.711 112.757 131.323 113.919 133.468 114.259L138.403 115.028ZM141.848 86.42C141.848 86.42 137.402 70.1194 131.865 71.9134C126.108 73.7848 132.515 81.9441 135.721 85.8777C142.563 94.2693 144.727 95.1633 143.863 92.5171L141.848 86.42ZM136.973 93.7985C136.973 93.7985 129.332 78.672 124.278 81.5448C119.003 84.5247 126.906 91.2476 130.834 94.4601C139.214 101.326 141.508 101.773 140.132 99.3473L136.973 93.7985ZM132.616 102.882C132.616 102.882 125.816 90.2702 121.584 92.8091C117.192 95.4494 124.028 100.951 127.425 103.579C134.666 109.193 136.615 109.539 135.399 107.501L132.616 102.882ZM128.408 109.724C128.408 109.724 123.015 96.4865 118.551 98.5605C113.902 100.718 120.112 106.905 123.211 109.885C129.815 116.232 131.722 116.762 130.727 114.653L128.408 109.724ZM151.056 76.5622C151.056 76.5622 160.861 59.1888 153.619 56.4353C146.08 53.5685 145.454 65.5064 145.275 71.3353C144.894 83.8095 146.312 86.2353 147.755 83.3149L151.056 76.5622Z" fill="#167738"/>
<path opacity="0.65" d="M146.706 89.549C144.101 90.5324 144.918 88.357 152.964 81.1097C156.742 77.7244 164.603 70.9777 166.731 76.6218C168.781 82.0692 152.701 87.2544 152.701 87.2544L146.706 89.549ZM150.788 96.2481C150.788 96.2481 167.679 96.5699 167.512 90.7529C167.333 84.6916 157.702 88.5477 153.029 90.5265C143.052 94.7342 141.586 96.558 144.369 96.4865L150.788 96.2481ZM144.447 105.492C144.447 105.492 157.32 108.186 158.03 103.704C158.775 99.0493 150.878 100.605 146.992 101.433C138.755 103.221 137.366 104.413 139.512 104.729L144.447 105.492ZM138.403 115.028C138.403 115.028 151.271 117.716 151.986 113.24C152.731 108.585 144.834 110.135 140.948 110.969C132.711 112.757 131.323 113.919 133.468 114.259L138.403 115.028ZM141.848 86.42C141.848 86.42 137.402 70.1194 131.865 71.9134C126.108 73.7848 132.515 81.9441 135.721 85.8777C142.563 94.2693 144.727 95.1633 143.863 92.5171L141.848 86.42ZM136.973 93.7985C136.973 93.7985 129.332 78.672 124.278 81.5448C119.003 84.5247 126.906 91.2476 130.834 94.4601C139.214 101.326 141.508 101.773 140.132 99.3473L136.973 93.7985ZM132.616 102.882C132.616 102.882 125.816 90.2702 121.584 92.8091C117.192 95.4494 124.028 100.951 127.425 103.579C134.666 109.193 136.615 109.539 135.399 107.501L132.616 102.882ZM128.408 109.724C128.408 109.724 123.015 96.4865 118.551 98.5605C113.902 100.718 120.112 106.905 123.211 109.885C129.815 116.232 131.722 116.762 130.727 114.653L128.408 109.724ZM151.056 76.5622C151.056 76.5622 160.861 59.1888 153.619 56.4353C146.08 53.5685 145.454 65.5064 145.275 71.3353C144.894 83.8095 146.312 86.2353 147.755 83.3149L151.056 76.5622Z" fill="white"/>
<path d="M150.615 63.1343C150.615 63.1343 147.283 87.1114 142.867 96.1706C137.819 106.577 130.613 117.031 123.622 124.29" stroke="#CCCCCC" stroke-width="1.25197" stroke-linecap="round" stroke-linejoin="round"/>
<path d="M145.305 89.7755L159.871 79.2263" stroke="#CCCCCC" stroke-width="1.25197" stroke-linecap="round" stroke-linejoin="round"/>
<path d="M142.891 96.1706L159.15 91.653" stroke="#CCCCCC" stroke-width="1.25197" stroke-linecap="round" stroke-linejoin="round"/>
<path d="M143.761 93.8342L135.202 79.7209" stroke="#CCCCCC" stroke-width="1.25197" stroke-linecap="round" stroke-linejoin="round"/>
<path d="M138.695 104.181L153.101 103.811" stroke="#CCCCCC" stroke-width="1.25197" stroke-linecap="round" stroke-linejoin="round"/>
<path d="M140.417 100.784L132.21 91.7483" stroke="#CCCCCC" stroke-width="1.25197" stroke-linecap="round" stroke-linejoin="round"/>
<path d="M135.5 108.526L128.879 101.898" stroke="#CCCCCC" stroke-width="1.25197" stroke-linecap="round" stroke-linejoin="round"/>
<path d="M132.657 113.77L140.965 112.918" stroke="#CCCCCC" stroke-width="1.25197" stroke-linecap="round" stroke-linejoin="round"/>
<path d="M131.078 115.725L124.051 107.316" stroke="#CCCCCC" stroke-width="1.25197" stroke-linecap="round" stroke-linejoin="round"/>
<path d="M157.07 176.946H60.0473C59.415 176.946 58.8086 177.198 58.3615 177.645C57.9144 178.092 57.6633 178.698 57.6633 179.33V225.914C57.6593 226.229 57.7181 226.543 57.8361 226.835C57.9542 227.128 58.1291 227.394 58.3509 227.619C58.5727 227.843 58.8368 228.022 59.128 228.143C59.4192 228.265 59.7317 228.328 60.0473 228.328H147.177L159.484 242.489V179.313C159.482 178.998 159.417 178.688 159.294 178.399C159.172 178.11 158.993 177.848 158.769 177.628C158.545 177.408 158.279 177.235 157.987 177.118C157.696 177.001 157.384 176.943 157.07 176.946Z" fill="#29AAE3"/>
<path d="M123.969 203.588C123.968 202.543 124.276 201.521 124.856 200.652C125.435 199.783 126.26 199.105 127.224 198.705C128.189 198.304 129.251 198.199 130.276 198.402C131.301 198.605 132.242 199.107 132.981 199.846C133.72 200.584 134.224 201.525 134.428 202.549C134.632 203.574 134.528 204.636 134.128 205.601C133.729 206.566 133.052 207.391 132.184 207.972C131.315 208.552 130.294 208.862 129.249 208.862C127.85 208.862 126.508 208.307 125.518 207.318C124.527 206.329 123.97 204.987 123.969 203.588Z" fill="white"/>
<path d="M101.356 203.588C101.355 202.543 101.664 201.521 102.244 200.652C102.824 199.782 103.648 199.105 104.613 198.704C105.579 198.304 106.641 198.199 107.666 198.402C108.691 198.606 109.632 199.109 110.371 199.848C111.11 200.587 111.613 201.528 111.816 202.553C112.02 203.578 111.915 204.64 111.514 205.605C111.114 206.57 110.436 207.395 109.567 207.975C108.698 208.555 107.676 208.863 106.631 208.862C105.232 208.862 103.891 208.307 102.901 207.317C101.912 206.328 101.356 204.987 101.356 203.588Z" fill="white"/>
<path d="M78.7441 203.588C78.7441 202.544 79.0535 201.525 79.6331 200.657C80.2127 199.79 81.0364 199.114 82.0002 198.715C82.964 198.315 84.0246 198.211 85.0478 198.414C86.0709 198.618 87.0108 199.12 87.7484 199.858C88.4861 200.596 88.9885 201.536 89.192 202.559C89.3955 203.582 89.2911 204.642 88.8918 205.606C88.4926 206.57 87.8166 207.394 86.9492 207.973C86.0817 208.553 85.062 208.862 84.0187 208.862C82.6198 208.862 81.2782 208.307 80.289 207.317C79.2999 206.328 78.7441 204.987 78.7441 203.588Z" fill="white"/>
<path d="M157.07 103.62H60.0471C59.4148 103.62 58.8084 103.872 58.3613 104.319C57.9143 104.766 57.6631 105.372 57.6631 106.004V169.18L69.9705 155.02H157.07C157.386 155.02 157.698 154.957 157.989 154.835C158.28 154.714 158.545 154.535 158.766 154.311C158.988 154.086 159.163 153.82 159.281 153.527C159.399 153.235 159.458 152.921 159.454 152.606V106.034C159.458 105.719 159.399 105.406 159.281 105.113C159.163 104.82 158.988 104.554 158.766 104.329C158.545 104.105 158.28 103.926 157.989 103.805C157.698 103.683 157.386 103.62 157.07 103.62Z" fill="#167738" stroke="#263238" stroke-miterlimit="10"/>
<path d="M93.149 130.262C93.149 129.217 92.8392 128.196 92.2587 127.327C91.6782 126.459 90.8531 125.782 89.8879 125.383C88.9226 124.983 87.8606 124.879 86.8361 125.083C85.8116 125.287 84.8707 125.791 84.1324 126.53C83.3942 127.269 82.8917 128.211 82.6886 129.235C82.4856 130.26 82.591 131.322 82.9916 132.287C83.3921 133.251 84.0699 134.076 84.9391 134.655C85.8082 135.235 86.8298 135.543 87.8744 135.542C88.5676 135.542 89.254 135.406 89.8943 135.14C90.5346 134.875 91.1164 134.486 91.6062 133.995C92.0961 133.505 92.4845 132.923 92.7492 132.282C93.0139 131.641 93.1498 130.955 93.149 130.262Z" fill="white" stroke="#263238" stroke-miterlimit="10"/>
<path d="M115.761 130.262C115.76 129.219 115.45 128.2 114.869 127.333C114.289 126.466 113.465 125.791 112.501 125.393C111.537 124.995 110.477 124.891 109.454 125.095C108.431 125.299 107.492 125.802 106.755 126.54C106.018 127.278 105.516 128.218 105.313 129.241C105.11 130.264 105.215 131.324 105.614 132.288C106.013 133.251 106.689 134.074 107.557 134.654C108.424 135.233 109.444 135.542 110.487 135.542C111.18 135.542 111.866 135.406 112.506 135.14C113.147 134.875 113.728 134.486 114.218 133.995C114.708 133.505 115.097 132.923 115.361 132.282C115.626 131.641 115.762 130.955 115.761 130.262Z" fill="white" stroke="#263238" stroke-miterlimit="10"/>
<path d="M138.379 130.262C138.379 129.217 138.07 128.196 137.49 127.328C136.909 126.46 136.085 125.783 135.12 125.383C134.155 124.983 133.093 124.879 132.069 125.083C131.044 125.286 130.104 125.789 129.365 126.528C128.627 127.266 128.124 128.207 127.92 129.232C127.716 130.256 127.821 131.318 128.22 132.283C128.62 133.247 129.297 134.072 130.165 134.652C131.034 135.233 132.055 135.542 133.099 135.542C133.792 135.542 134.479 135.406 135.12 135.14C135.76 134.875 136.342 134.486 136.833 133.996C137.323 133.505 137.712 132.923 137.978 132.283C138.243 131.642 138.379 130.955 138.379 130.262Z" fill="white" stroke="#263238" stroke-miterlimit="10"/>
<path d="M86.1701 78.0044L83.3629 84.5008C83.2651 84.6766 83.2056 84.8711 83.188 85.0715C83.1705 85.2719 83.1955 85.4738 83.2613 85.6639C83.3271 85.854 83.4323 86.0281 83.57 86.1748C83.7076 86.3215 83.8747 86.4375 84.0602 86.5153L85.7767 87.2662C87.374 87.4808 88.9057 86.0742 89.2991 85.5617L92.7797 81.3122L86.1701 78.0044Z" fill="white" stroke="#263238" stroke-linecap="round" stroke-linejoin="round"/>
<path d="M106.153 59.0635L94.1201 63.8911V99.1088H120.118V64.5289L108.764 58.8073L106.153 59.0635Z" fill="#167738" stroke="#263238" stroke-linecap="round" stroke-linejoin="round"/>
<path d="M114.385 63.0687C113.646 62.2224 113.646 58.8252 113.646 58.8252L110.564 57.8716L107.966 58.1577L105.367 57.8716L102.292 58.8252C102.292 58.8252 102.292 62.2224 101.547 63.0687C100.802 63.915 99.1094 65.6136 99.1094 65.6136C99.1094 65.6136 99.5325 66.1441 100.897 64.66C101.642 63.8227 102.543 63.1385 103.55 62.6455C103.542 63.2537 103.728 63.8485 104.08 64.3441C105.292 65.2087 106.552 66.0046 107.853 66.7281V66.8414L107.948 66.7818L108.049 66.8414V66.752C109.351 66.0298 110.611 65.2339 111.822 64.368C112.175 63.8724 112.36 63.2775 112.352 62.6694C113.36 63.1606 114.261 63.8451 115.005 64.6839C116.387 66.1679 116.793 65.6375 116.793 65.6375C116.793 65.6375 115.13 63.921 114.385 63.0687Z" fill="white" stroke="#263238" stroke-linecap="round" stroke-linejoin="round"/>
<path d="M104.812 56.7391V60.8098L108.067 66.8533L111.088 61.0423V56.8583L104.812 56.7391Z" fill="white" stroke="#263238" stroke-linecap="round" stroke-linejoin="round"/>
<path d="M102.023 49.9984C102.023 49.9984 101.32 47.0839 100.629 48.4905C99.9374 49.8971 102.023 52.7877 102.023 52.7877V49.9984Z" fill="white" stroke="#263238" stroke-linecap="round" stroke-linejoin="round"/>
<path d="M113.878 49.8851C113.878 49.8851 115.505 47.9064 115.737 49.1878C115.97 50.4692 114.11 52.7638 114.11 52.7638L113.878 49.8851Z" fill="white" stroke="#263238" stroke-linecap="round" stroke-linejoin="round"/>
<path d="M108.067 58.8311C106.464 58.8311 104.927 58.1944 103.794 57.061C102.66 55.9277 102.023 54.3905 102.023 52.7877V40.7008H114.11V52.7877C114.11 54.3905 113.474 55.9277 112.34 57.061C111.207 58.1944 109.67 58.8311 108.067 58.8311Z" fill="white" stroke="#263238" stroke-linecap="round" stroke-linejoin="round"/>
<path d="M104.211 50.2308C104.211 50.2308 105.129 51.3334 106.72 50.2308H104.211Z" fill="white"/>
<path d="M104.211 50.2308C104.211 50.2308 105.129 51.3334 106.72 50.2308" stroke="#263238" stroke-linecap="round" stroke-linejoin="round"/>
<path d="M109.235 50.2308C109.235 50.2308 110.153 51.3334 111.75 50.2308H109.235Z" fill="white"/>
<path d="M109.235 50.2308C109.235 50.2308 110.153 51.3334 111.75 50.2308" stroke="#263238" stroke-linecap="round" stroke-linejoin="round"/>
<path d="M104.056 48.4071C104.056 48.4071 104.974 46.7204 106.964 47.9958" stroke="#263238" stroke-linecap="round" stroke-linejoin="round"/>
<path d="M108.752 48.0495C108.752 48.0495 109.056 47.3343 110.439 47.3343C110.794 47.3114 111.147 47.4097 111.439 47.6132C111.731 47.8168 111.946 48.1135 112.048 48.4548" stroke="#263238" stroke-linecap="round" stroke-linejoin="round"/>
<path d="M106.964 53.5088L107.935 54.069L108.8 53.5624" stroke="#263238" stroke-linecap="round" stroke-linejoin="round"/>
<path d="M105.635 54.3253C105.936 54.6878 106.36 54.9257 106.827 54.9928" stroke="#263238" stroke-linecap="round" stroke-linejoin="round"/>
<path d="M113.646 44.7714L113.878 49.8851C113.878 49.8851 113.991 50.5824 114.224 49.1878C114.456 47.7932 115.624 43.9549 115.386 42.7927C115.148 41.6305 113.526 41.6007 112.829 41.9822C112.132 42.3636 113.646 44.7714 113.646 44.7714Z" fill="#263238" stroke="#263238" stroke-linecap="round" stroke-linejoin="round"/>
<path d="M102.024 48.4905C102.024 48.4905 101.326 43.1265 100.975 40.3551C100.623 37.5837 104.348 37.3334 104.348 37.3334C104.348 37.3334 106.905 35.2355 111.786 34.6574C116.667 34.0792 118.992 35.8494 118.872 37.101C118.753 38.3526 115.97 39.3062 115.97 39.3062C115.97 39.3062 119.337 39.6578 117.365 41.5173C115.392 43.3768 113.526 43.2576 113.526 43.2576C113.526 43.2576 115.273 44.0742 114.224 44.6523C113.175 45.2304 105.743 43.0252 105.743 43.0252C105.743 43.0252 105.975 44.4198 104.926 44.7715C103.877 45.1231 103.531 45.0039 103.418 45.582C103.305 46.1602 103.299 49.6527 102.721 49.9984C102.143 50.3441 102.024 48.4905 102.024 48.4905Z" fill="#263238" stroke="#263238" stroke-linecap="round" stroke-linejoin="round"/>
<path d="M94.055 64.0402L84.7217 79.2978L93.1134 82.7307L94.055 77.8972V64.0402Z" fill="white" stroke="#263238" stroke-linecap="round" stroke-linejoin="round"/>
<path d="M129.726 78.511L132.247 83.0465C132.345 83.2224 132.404 83.4168 132.422 83.6173C132.439 83.8177 132.414 84.0195 132.348 84.2097C132.283 84.3998 132.177 84.5739 132.04 84.7206C131.902 84.8673 131.735 84.9833 131.55 85.061L127.974 86.557C127.678 86.6795 127.351 86.6996 127.043 86.6143C126.735 86.529 126.465 86.343 126.275 86.0861L123.122 81.8188L129.726 78.511Z" fill="white" stroke="#263238" stroke-linecap="round" stroke-linejoin="round"/>
<path d="M120.118 64.5289L130.739 78.7674L122.478 82.5818L120.118 78.5409V64.5289Z" fill="white" stroke="#263238" stroke-linecap="round" stroke-linejoin="round"/>
<path d="M83.1357 84.5545C83.4635 83.5174 83.8807 82.7665 87.5461 81.1871C91.2115 79.6077 96.6292 77.9806 98.1788 76.3475C98.441 75.8171 103.191 70.912 103.191 70.912C103.191 70.912 104.878 70.6259 105.188 70.5246C105.974 70.4677 106.764 70.5341 107.53 70.7213C107.965 70.8763 108.007 71.1206 107.828 71.2279C107.35 71.3501 106.864 71.4397 106.374 71.4961L106.225 71.5736C106.846 72.0797 107.401 72.6625 107.876 73.3079C107.929 73.4748 108.06 73.4927 107.727 73.6059C107.393 73.7192 106.332 72.9623 106.332 72.9623H105.355L106.594 73.7192C106.594 73.7192 107.786 74.8695 107.375 75.1257C106.964 75.382 106.839 75.3701 106.779 75.1257C106.719 74.8814 105.903 74.3629 105.903 74.3629L104.234 74.1841C104.762 74.4976 105.272 74.8419 105.76 75.2151C105.997 75.4766 106.214 75.7555 106.41 76.0495C106.41 76.0495 106.261 76.5323 105.724 76.2164C105.188 75.9005 104.312 75.3343 104.312 75.3343L103.59 75.2032C102.842 76.0431 102.046 76.8391 101.206 77.5872C100.826 77.8015 100.41 77.9468 99.9787 78.0163V78.064C98.0444 80.4938 95.8003 82.6598 93.3035 84.5068C89.5129 87.2007 86.7475 88.3212 85.478 88.0828C84.2085 87.8444 82.802 85.5915 83.1357 84.5545Z" fill="white" stroke="#263238" stroke-linecap="round" stroke-linejoin="round"/>
<path d="M105.367 72.9504L103.305 72.5928" stroke="#263238" stroke-width="0.75" stroke-linecap="round" stroke-linejoin="round"/>
<path d="M104.234 74.196L102.899 74.0232" stroke="#263238" stroke-width="0.75" stroke-linecap="round" stroke-linejoin="round"/>
<path d="M106.243 71.5617L103.96 71.5081" stroke="#263238" stroke-width="0.75" stroke-linecap="round" stroke-linejoin="round"/>
<path d="M92.5645 96.552H121.703V96.8023C121.703 99.5685 120.604 102.221 118.648 104.177C116.692 106.133 114.039 107.232 111.273 107.232H102.994C100.228 107.232 97.5753 106.133 95.6193 104.177C93.6633 102.221 92.5645 99.5685 92.5645 96.8023V96.552Z" fill="#263238" stroke="#263238" stroke-linecap="round" stroke-linejoin="round"/>
<path d="M112.99 132.753C112.99 132.753 114.349 136.991 116.042 138.683C117.734 140.376 120.619 140.722 120.452 137.67C120.285 134.619 116.381 131.06 116.381 131.06C116.381 131.06 112.99 131.227 112.99 132.753Z" fill="white" stroke="#263238" stroke-linecap="round" stroke-linejoin="round"/>
<path d="M116.381 131.06C116.381 131.06 106.553 111.905 103.835 106.309C101.118 100.712 98.2448 94.7819 95.533 93.7925C92.8212 92.8032 88.5837 95.6521 89.2631 100.569C89.9426 105.486 96.3794 113.961 99.4309 117.853C102.482 121.745 112.99 132.753 112.99 132.753C112.99 132.753 115.028 133.432 116.381 131.06Z" fill="#263238" stroke="#263238" stroke-linecap="round" stroke-linejoin="round"/>
<path d="M99.4191 132.753C99.4191 132.753 98.0602 136.991 96.3675 138.683C94.6749 140.376 91.7902 140.722 91.9571 137.67C92.124 134.619 96.0278 131.06 96.0278 131.06C96.0278 131.06 99.4191 131.227 99.4191 132.753Z" fill="white" stroke="#263238" stroke-linecap="round" stroke-linejoin="round"/>
<path d="M96.0273 131.06C96.0273 131.06 105.855 111.905 108.543 106.309C111.231 100.712 114.14 94.7819 116.852 93.7925C119.563 92.8032 123.801 95.6521 123.122 100.569C122.442 105.486 116.005 113.961 112.954 117.853C109.902 121.745 99.3947 132.753 99.3947 132.753C99.3947 132.753 97.3803 133.432 96.0273 131.06Z" fill="#263238" stroke="#263238" stroke-linecap="round" stroke-linejoin="round"/>
<path d="M122.991 101.32C122.675 100.813 122.002 100.474 120.804 100.235C119.26 99.9253 115.624 99.9908 111.619 100.235C110.588 102.125 109.569 104.228 108.568 106.285C105.856 111.881 96.0518 131.036 96.0518 131.036C97.4047 133.42 99.443 132.729 99.443 132.729C99.443 132.729 109.95 121.709 113.002 117.829C115.875 114.134 121.823 106.308 122.991 101.32Z" stroke="#263238" stroke-linecap="round" stroke-linejoin="round"/>
<path d="M105.373 72.1577H109.796C110.137 72.1577 110.464 72.2933 110.706 72.5348C110.947 72.7762 111.083 73.1036 111.083 73.4451V83.738C111.083 84.0399 110.963 84.3295 110.75 84.5429C110.536 84.7564 110.247 84.8764 109.945 84.8764H105.224C104.922 84.8764 104.633 84.7564 104.419 84.5429C104.206 84.3295 104.086 84.0399 104.086 83.738V73.4391C104.088 73.0987 104.224 72.7728 104.465 72.5327C104.706 72.2925 105.033 72.1577 105.373 72.1577Z" fill="#263238"/>
<path d="M133.111 84.1075C132.467 83.2314 131.841 82.6771 127.86 82.3195C123.879 81.9619 118.229 82.1705 116.238 81.1275C115.821 80.7103 109.759 77.5515 109.759 77.5515C109.759 77.5515 108.061 77.8197 107.739 77.8197C106.975 78.0167 106.247 78.3324 105.582 78.7554C105.218 79.0356 105.26 79.2799 105.462 79.3216C105.953 79.2888 106.441 79.2211 106.923 79.119H107.089C106.662 79.7905 106.322 80.5134 106.076 81.2706C106.076 81.4494 105.963 81.509 106.315 81.509C106.666 81.509 107.429 80.454 107.429 80.454L108.365 80.156L107.429 81.2706C107.429 81.2706 106.666 82.7367 107.131 82.8559C107.596 82.9751 107.727 82.9096 107.727 82.6771C107.873 82.3163 108.074 81.9805 108.323 81.6818L109.849 80.9785C109.447 81.4434 109.075 81.9331 108.734 82.4447C108.591 82.7666 108.473 83.0995 108.383 83.44C108.383 83.44 108.675 83.8512 109.086 83.3804C109.497 82.9096 110.141 82.093 110.141 82.093L110.785 81.7414C111.768 82.3087 112.785 82.8162 113.83 83.2612C114.26 83.3405 114.7 83.3405 115.129 83.2612V83.3029C117.738 84.9878 120.555 86.3262 123.509 87.2842C127.961 88.6312 130.953 88.81 132.062 88.1663C133.17 87.5226 133.76 84.9896 133.111 84.1075Z" fill="white" stroke="#263238" stroke-linecap="round" stroke-linejoin="round"/>
<path d="M108.347 80.1858L110.188 79.1964" stroke="#263238" stroke-width="0.75" stroke-linecap="round" stroke-linejoin="round"/>
<path d="M109.813 81.0083L111.023 80.4182" stroke="#263238" stroke-width="0.75" stroke-linecap="round" stroke-linejoin="round"/>
<path d="M107.071 79.1488L109.217 78.374" stroke="#263238" stroke-width="0.75" stroke-linecap="round" stroke-linejoin="round"/>
<path d="M103.108 104.836L96.9814 105.432L104.533 116.476L102.745 121.721C104.336 123.509 106.172 125.5 107.847 127.3L109.539 126.108C109.539 126.108 111.995 129.553 114.468 132.664C115.283 132.376 115.956 131.785 116.345 131.013C116.345 131.013 106.517 111.857 103.8 106.261C103.603 105.82 103.359 105.325 103.108 104.836Z" stroke="#263238" stroke-linecap="round" stroke-linejoin="round"/>
<path opacity="0.2" d="M125.16 103.62H96.1351L105.266 118.205C105.266 118.205 95.1338 133.736 95.1338 135.596C95.1338 137.455 95.4735 143.028 98.1734 141.842C100.873 140.656 98.8528 134.243 99.5263 132.902C100.2 131.561 107.87 125.982 107.87 125.982C107.87 125.982 113.032 128.676 114.492 131.346C115.952 134.016 116.405 138.278 117.758 140.984C119.111 143.69 122.484 144.53 122.484 141.824C122.484 139.118 111.846 119.367 111.846 119.367C111.846 119.367 114.23 116.667 119.445 111.094C121.616 108.818 123.532 106.312 125.16 103.62Z" fill="#263238"/>
<path d="M241.039 244.118C242.371 243.709 243.617 243.067 244.717 242.225C246.188 240.985 250.834 237.614 252.176 236.75C253.519 235.885 253.355 239.879 252.901 241.936C252.533 243.713 251.761 245.386 250.644 246.833C249.796 247.818 244.262 249.858 243.644 249.996C243.026 250.135 240.553 250.178 240.049 249.944C239.546 249.711 240.597 245.826 241.039 244.118Z" fill="white" stroke="#263238" stroke-width="1.10919" stroke-miterlimit="10"/>
<path d="M250.361 245.151C251.655 243.526 252.569 238.543 252.609 236.633C253.492 236.836 253.298 240.134 252.9 241.949C252.532 243.726 251.761 245.399 250.643 246.846C249.796 247.831 244.262 249.871 243.644 250.009C242.808 250.117 241.964 250.149 241.122 250.104C244.129 249.071 249.058 246.785 250.361 245.151Z" fill="white" stroke="#263238" stroke-width="1.10919" stroke-miterlimit="10"/>
<path d="M180.668 214.505C180.668 214.505 182.196 217.275 182.969 218.883C183.741 220.49 184.404 221.649 184.404 221.649C184.404 221.649 185.141 220.24 185.702 220.503C186.094 220.675 186.502 220.807 186.921 220.897C186.921 220.897 187.619 218.45 188.688 217.167C189.756 215.883 190.662 216.501 191.651 215.646C193.051 214.435 193.616 214.072 194.552 213.338C195.705 212.434 197.467 216.259 197.498 217.703C197.529 219.146 189.973 228.218 188.087 230.699C186.201 233.18 184.298 234.74 183.07 233.231C181.842 231.723 181.259 230.288 180.332 225.452C179.405 220.616 177.139 213.221 180.668 214.505Z" fill="#167738" stroke="#263238" stroke-width="1.10919" stroke-miterlimit="10"/>
<path d="M194.562 213.338L197.993 210.818C198.364 210.105 199.11 208.622 199.517 207.589C200.073 206.185 200.316 205.29 201.592 204.313C202.868 203.337 205.889 202.152 206.273 201.75C206.658 201.348 206.812 202.883 206.114 203.596C205.803 203.965 205.411 204.261 204.966 204.46C204.966 204.46 209.943 203.855 209.952 204.236C209.961 204.616 205.721 209.854 204.189 211.068C203.549 211.587 202.118 212.076 201.305 212.646C200.904 212.928 200.534 213.249 200.201 213.605C200.391 213.709 200.453 213.705 200.475 213.692C200.298 213.934 197.662 217.616 196.854 217.456C196.045 217.296 193.343 217.059 194.562 213.338Z" fill="white" stroke="#263238" stroke-width="1.10919" stroke-miterlimit="10"/>
<path d="M209.812 198.426L210.349 198.784L203.455 208.689L202.918 208.331L209.812 198.426Z" fill="#263238" stroke="#263238" stroke-width="1.10919" stroke-miterlimit="10"/>
<path d="M208.406 201.591C208.406 201.591 211.056 204.391 210.738 204.651C210.42 204.91 209.413 205.882 209.139 205.761C208.866 205.64 207.47 203.384 207.399 203.129C207.329 202.874 208.406 201.591 208.406 201.591Z" fill="white" stroke="#263238" stroke-width="1.10919" stroke-miterlimit="10"/>
<path d="M207.081 203.471C207.081 203.471 209.086 206.349 208.896 206.608C208.707 206.868 206.172 209.768 205.854 209.962C205.536 210.157 203.747 208.48 203.747 208.48L207.081 203.471Z" fill="white" stroke="#263238" stroke-width="1.10919" stroke-miterlimit="10"/>
<path d="M206.013 205.122C206.013 205.122 207.885 208.004 207.691 208.009" stroke="#263238" stroke-width="1.10919" stroke-miterlimit="10"/>
<path d="M204.759 207.114L206.485 209.111" stroke="#263238" stroke-width="1.10919" stroke-miterlimit="10"/>
<path d="M204.966 204.447L203.358 205.173C203.358 205.173 203.76 209.037 201.592 210.36" fill="white"/>
<path d="M204.966 204.447L203.358 205.173C203.358 205.173 203.76 209.037 201.592 210.36" stroke="#263238" stroke-width="1.10919" stroke-miterlimit="10"/>
<path d="M182.112 234.697C182.112 234.697 197.737 216.436 199.433 214.474C201.128 212.512 204.953 211.7 207.196 212.382C209.44 213.065 212.169 219.202 212.712 221.739C213.255 224.276 217.694 235.228 218.453 236.667C219.213 238.107 220.37 239.663 220.383 240.272C220.397 240.881 220.405 241.361 220.405 241.361L221.183 243.042C221.183 243.042 217.597 243.474 216.104 243.263C214.611 243.051 212.474 241.391 212.085 240.549C211.697 239.706 210.601 237.631 209.281 236.724C207.4 235.427 204.127 226.753 204.127 226.753L197.944 239.974C197.944 239.974 185.711 241.664 182.978 241.352C180.244 241.041 182.112 234.697 182.112 234.697Z" fill="#263238" stroke="#263238" stroke-width="1.10919" stroke-miterlimit="10"/>
<path d="M182.704 233.231C182.704 233.231 184.612 235.617 184.621 236.106V236.59L195.061 237.614C195.061 237.614 205.841 237.406 207.457 237.739C209.073 238.072 232.497 244.175 233.99 244.391C235.482 244.607 236.198 243.375 236.816 243.362C237.434 243.349 238.048 242.852 238.914 242.835C239.779 242.818 240.548 244.019 241.047 244.131C241.368 244.248 241.704 244.322 242.045 244.352C242.416 244.352 242.151 243.487 242.416 244.352C242.681 245.216 243.348 247.606 242.752 248.708C242.367 249.394 241.828 249.986 241.175 250.437C241.175 250.437 221.094 250.459 217.769 250.524C214.443 250.588 204.118 249.698 202.877 249.599C201.636 249.499 183.689 250.571 180.84 250.627C177.992 250.683 168.568 250.627 166.938 249.681C165.308 248.734 163.22 243.444 163.551 241.378C163.882 239.312 181.114 233.4 181.114 233.4L182.704 233.231Z" fill="#263238" stroke="#263238" stroke-width="1.10919" stroke-miterlimit="10"/>
<path d="M183.415 231.52C183.591 231.941 183.643 232.402 183.565 232.851C183.459 233.716 164.059 242.792 163.432 242.454C162.805 242.117 162.363 238.591 162.363 238.591L183.393 230.427L183.415 231.52Z" fill="#167738" stroke="#263238" stroke-width="1.10919" stroke-miterlimit="10"/>
<path d="M175.148 202.446C175.148 202.446 178.712 207.231 180.028 210.965C181.344 214.699 183.459 227.514 184.232 229.078C185.005 230.643 185.027 231.611 183.919 231.874C182.81 232.138 172.238 236.706 168.674 238.107C165.11 239.507 161.913 240.786 161.374 238.612C160.835 236.438 160.804 235.107 160.866 231.831C160.928 228.555 160.985 213.147 161.268 208.657C161.55 204.166 164.006 196.836 167.23 197.018C170.454 197.199 175.148 202.446 175.148 202.446Z" fill="#167738" stroke="#263238" stroke-width="1.10919" stroke-miterlimit="10"/>
<path d="M168.396 185.608C168.776 182.972 171.057 180.83 173.261 179.481C173.862 179.492 173.989 180.34 173.473 180.262C172.957 180.183 174.101 180.917 173.651 181.176C173.651 181.176 173.964 181.01 174.821 180.652C175.073 180.556 173.383 180.08 173.651 180.115C173.919 180.15 173.447 179.667 173.664 179.823C173.664 179.823 174.881 180.141 173.927 179.471C172.973 178.801 175.211 180.652 175.211 180.652C175.211 180.652 170.898 179.354 173.261 179.998C175.623 180.642 173.651 181.042 173.651 181.042C173.651 181.042 172.069 181.574 173.473 181.432C174.877 181.289 172.871 179.872 172.871 179.872C172.871 179.872 175.563 179.426 174.305 181.176C173.972 181.595 173.889 179.812 173.801 180.336C173.713 180.859 173.261 179.091 173.801 178.715C174.175 178.571 174.557 178.449 174.945 178.347C178.266 177.483 182.055 178.416 183.672 179.998C184.964 180.31 186.176 180.881 187.231 181.675C188.997 183.14 187.346 185.163 187.103 185.439L186.97 186.166C186.803 187.638 186.557 189.101 186.233 190.548C185.902 191.59 185.323 191.944 185.35 192.519C185.376 193.094 186.343 195.147 185.654 195.847C184.965 196.547 184.369 196.335 184.369 196.335C184.369 196.335 181.662 201.906 180.479 201.465C179.295 201.024 177.259 198.997 177.259 198.997L174.587 200.661L169.663 195.35L170.546 193.033C170.546 193.033 167.879 189.182 168.396 185.608Z" fill="white" stroke="#263238" stroke-width="1.10919" stroke-miterlimit="10"/>
<path d="M184.907 185.357C183.477 184.692 179.816 183.871 180.443 184.947C181.07 186.023 181.211 187.907 180.407 188.119C179.604 188.331 177.899 189.455 177.316 189.848C176.733 190.241 175.991 189.973 175.991 189.377C175.991 188.78 175.346 187.605 174.044 188.223C172.741 188.841 172.661 190.034 172.993 191.417C173.169 192.215 173.655 192.915 174.348 193.37C174.348 193.37 172.794 194.593 170.4 193.422L170.555 193.024C170.555 193.024 167.905 189.165 168.408 185.591C168.788 182.954 170.078 180.802 172.281 179.454C172.506 179.316 173.776 179.208 173.26 179.129C172.744 179.05 173.71 179.222 173.26 179.481C173.26 179.481 172.013 179.488 172.87 179.129C173.122 179.034 173.382 179.837 173.65 179.871C173.918 179.906 173.433 179.418 173.65 179.574C173.65 179.574 173.824 179.799 172.87 179.129C172.538 179.549 172.178 179.05 172.09 179.574C172.002 180.098 173.636 178.196 173.814 178.697C174.188 178.554 174.57 178.431 174.958 178.33C178.279 177.465 182.068 178.399 183.684 179.981C184.977 180.293 186.189 180.864 187.244 181.658C189.01 183.123 187.359 185.146 187.116 185.422C187.102 185.448 186.338 186.023 184.907 185.357Z" fill="#263238"/>
<path d="M172.87 179.129C172.013 179.488 173.26 179.481 173.26 179.481C173.71 179.222 172.744 179.05 173.26 179.129C173.776 179.208 172.506 179.316 172.281 179.454C170.078 180.802 168.788 182.954 168.408 185.591C167.905 189.165 170.555 193.024 170.555 193.024L170.4 193.422C172.794 194.593 174.348 193.37 174.348 193.37C173.655 192.915 173.169 192.215 172.993 191.417C172.661 190.034 172.741 188.841 174.044 188.223C175.346 187.605 175.991 188.78 175.991 189.377C175.991 189.973 176.733 190.241 177.316 189.848C177.899 189.455 179.604 188.331 180.407 188.119C181.211 187.907 181.07 186.023 180.443 184.947C179.816 183.871 183.477 184.692 184.907 185.357C186.338 186.023 187.102 185.448 187.116 185.422C187.359 185.146 189.01 183.123 187.244 181.658C186.189 180.864 184.977 180.293 183.684 179.981C182.068 178.399 178.279 177.465 174.958 178.33C174.57 178.431 174.188 178.554 173.814 178.697C173.636 178.196 172.002 180.098 172.09 179.574C172.178 179.05 172.538 179.549 172.87 179.129ZM172.87 179.129C173.122 179.034 173.382 179.837 173.65 179.871C173.918 179.906 173.433 179.418 173.65 179.574C173.65 179.574 173.824 179.799 172.87 179.129Z" stroke="#263238" stroke-width="1.10919" stroke-miterlimit="10"/>
<path d="M183.795 190.531L183.821 191.827C183.384 191.941 182.924 191.951 182.482 191.856C182.04 191.761 181.627 191.565 181.278 191.283" stroke="#263238" stroke-width="1.10919" stroke-miterlimit="10"/>
<path d="M185.292 189.316C184.946 188.898 184.459 188.614 183.919 188.515C183.378 188.416 182.819 188.508 182.342 188.776" stroke="#263238" stroke-width="1.10919" stroke-miterlimit="10"/>
<path d="M182.699 196.499C182.699 196.499 180.977 196.434 179.926 194.472" stroke="#263238" stroke-width="1.10919" stroke-miterlimit="10"/>
<path d="M179.604 198.738C180.628 199.213 181.918 197.9 182.523 197.791C183.013 197.701 182.929 198.656 182.876 199.028C182.046 200.385 181.061 201.699 180.46 201.474C179.277 201.042 177.241 199.006 177.241 199.006L177.148 199.066C176.876 198.62 176.704 198.122 176.645 197.606C176.631 196.815 178.583 198.284 179.604 198.738Z" fill="#263238" stroke="#263238" stroke-width="1.10919" stroke-miterlimit="10"/>
<path d="M164.448 194.161C164.448 194.161 168.144 192.999 170.295 195.263C172.445 197.528 178.284 204.205 177.043 204.231C175.802 204.257 173.629 200.899 171.129 199.853C168.63 198.807 167.155 198.842 166.311 200.553C165.468 202.265 162.597 213.238 161.453 211.319C160.31 209.4 158.243 205.562 159.285 201.902C160.327 198.241 163.224 194.913 164.448 194.161Z" fill="white" stroke="#263238" stroke-width="1.10919" stroke-miterlimit="10"/>
<path d="M173.88 207.2C173.88 207.2 176.972 212.478 177.268 215.382C177.563 218.286 178.557 230.401 178.557 230.401C178.557 230.401 179.78 229.649 180.416 230.362C181.052 231.075 181.454 232.648 181.454 232.648C181.454 232.648 183.176 232.129 183.565 232.851C183.787 233.27 184.044 233.67 184.334 234.048L195.061 237.614C195.061 237.614 178.102 238.547 176.738 238.452C175.904 238.387 175.115 238.061 174.485 237.523C174.485 237.523 173.39 238.388 171.518 237.7C169.645 237.013 169.005 236.175 168.484 234.727C167.963 233.279 165.498 215.624 165.498 215.624" fill="#167738"/>
<path d="M173.88 207.2C173.88 207.2 176.972 212.478 177.268 215.382C177.563 218.286 178.557 230.401 178.557 230.401C178.557 230.401 179.78 229.649 180.416 230.362C181.052 231.075 181.454 232.648 181.454 232.648C181.454 232.648 183.176 232.129 183.565 232.851C183.787 233.27 184.044 233.67 184.334 234.048L195.061 237.614C195.061 237.614 178.102 238.547 176.738 238.452C175.904 238.387 175.115 238.061 174.485 237.523C174.485 237.523 173.39 238.388 171.518 237.7C169.645 237.013 169.005 236.175 168.484 234.727C167.963 233.279 165.498 215.624 165.498 215.624" stroke="#263238" stroke-width="1.10919" stroke-miterlimit="10"/>
<path d="M195.061 237.614C195.061 237.614 189.907 237.899 185.053 238.137C185.756 237.017 185.429 235.401 185.053 234.299L195.061 237.614Z" fill="white" stroke="#263238" stroke-width="1.10919" stroke-miterlimit="10"/>
</svg>
