<svg width="271" height="239" viewBox="0 0 271 239" fill="none" xmlns="http://www.w3.org/2000/svg">
<path d="M221.749 39.826C208.264 9.07831 175.896 -2.49881 150.357 18.146C140.384 26.2001 134.162 39.0184 121.95 44.162C110.493 48.9858 95.9777 47.5657 83.5876 50.1782C57.2031 55.7066 21.6804 76.682 24.3904 109.001C25.5774 123.158 35.1274 138.882 39.8482 152.128C45.2682 167.369 48.5202 186.437 62.867 195.548C87.4629 211.19 117.132 198.404 139.289 185.792C151.213 179.012 157.777 174.844 170.617 177.169C182.503 179.337 193.207 186.925 204.822 177.922C213.543 171.163 214.264 157.467 221.586 149.424C229.835 140.362 238.199 139.706 242.486 126.085C247.684 109.56 240.025 99.2346 234.849 84.4705C229.673 69.7064 228.101 54.292 221.749 39.826Z" fill="#167738"/>
<g opacity="0.7">
<path d="M221.749 39.826C208.264 9.07831 175.896 -2.49881 150.357 18.146C140.384 26.2001 134.162 39.0184 121.95 44.162C110.493 48.9858 95.9777 47.5657 83.5876 50.1782C57.2031 55.7066 21.6804 76.682 24.3904 109.001C25.5774 123.158 35.1274 138.882 39.8482 152.128C45.2682 167.369 48.5202 186.437 62.867 195.548C87.4629 211.19 117.132 198.404 139.289 185.792C151.213 179.012 157.777 174.844 170.617 177.169C182.503 179.337 193.207 186.925 204.822 177.922C213.543 171.163 214.264 157.467 221.586 149.424C229.835 140.362 238.199 139.706 242.486 126.085C247.684 109.56 240.025 99.2346 234.849 84.4705C229.673 69.7064 228.101 54.292 221.749 39.826Z" fill="white"/>
</g>
<path d="M119.138 221.222C165.41 221.222 202.92 218.886 202.92 216.003C202.92 213.12 165.41 210.783 119.138 210.783C72.8661 210.783 35.3555 213.12 35.3555 216.003C35.3555 218.886 72.8661 221.222 119.138 221.222Z" fill="#167738"/>
<path opacity="0.8" d="M119.138 221.222C165.41 221.222 202.92 218.886 202.92 216.003C202.92 213.12 165.41 210.783 119.138 210.783C72.8661 210.783 35.3555 213.12 35.3555 216.003C35.3555 218.886 72.8661 221.222 119.138 221.222Z" fill="white"/>
<path d="M182.095 17.5283H97.8523C92.0362 17.5283 87.3213 22.2432 87.3213 28.0594V205.911C87.3213 211.727 92.0362 216.442 97.8523 216.442H182.095C187.912 216.442 192.626 211.727 192.626 205.911V28.0594C192.626 22.2432 187.912 17.5283 182.095 17.5283Z" fill="#263238"/>
<path d="M187.944 39.3708H91.999V194.6H187.944V39.3708Z" fill="white" stroke="#263238" stroke-width="0.724865" stroke-miterlimit="10"/>
<path d="M154.68 102.228C162.801 94.106 162.801 80.9384 154.68 72.8168C146.558 64.6953 133.39 64.6953 125.269 72.8168C117.147 80.9384 117.147 94.106 125.269 102.228C133.39 110.349 146.558 110.349 154.68 102.228Z" fill="#167738"/>
<path d="M167.277 184.838H112.676C112.553 184.839 112.431 184.815 112.318 184.769C112.204 184.722 112.1 184.654 112.013 184.567C111.926 184.48 111.857 184.377 111.81 184.264C111.763 184.15 111.738 184.029 111.738 183.906C111.738 183.783 111.761 183.66 111.808 183.546C111.855 183.432 111.924 183.329 112.011 183.241C112.099 183.154 112.202 183.085 112.316 183.038C112.43 182.991 112.553 182.968 112.676 182.968H167.277C167.4 182.968 167.522 182.993 167.635 183.04C167.749 183.087 167.852 183.156 167.938 183.243C168.025 183.33 168.093 183.434 168.14 183.548C168.186 183.661 168.21 183.783 168.209 183.906C168.209 184.153 168.111 184.39 167.936 184.565C167.761 184.74 167.524 184.838 167.277 184.838Z" fill="#167738"/>
<path d="M169.055 120.01H110.893C109.693 120.01 108.72 120.983 108.72 122.183V129.039C108.72 130.24 109.693 131.213 110.893 131.213H169.055C170.256 131.213 171.229 130.24 171.229 129.039V122.183C171.229 120.983 170.256 120.01 169.055 120.01Z" fill="#167738"/>
<path d="M169.055 140.963H110.893C109.693 140.963 108.72 141.936 108.72 143.137V149.993C108.72 151.193 109.693 152.167 110.893 152.167H169.055C170.256 152.167 171.229 151.193 171.229 149.993V143.137C171.229 141.936 170.256 140.963 169.055 140.963Z" fill="#167738"/>
<path d="M150.329 97.8962L144.21 94.3732V91.4627C145.096 90.3907 145.737 89.1386 146.09 87.7934C146.301 87.8682 146.523 87.9067 146.746 87.9072C147.505 87.9072 147.987 85.5549 148.069 83.8747C148.952 82.0048 147.749 80.91 147.749 80.91C147.749 80.91 148.247 80.4113 148.578 78.4113C148.909 76.4114 147.413 77.246 146.247 75.4141C145.082 73.5821 144.247 71.5876 140.421 71.5876C139.367 71.5529 138.326 71.8362 137.435 72.4007C136.544 72.9652 135.843 73.7848 135.424 74.7528C134.471 74.7563 133.522 74.8672 132.594 75.0835C131.424 75.4141 131.093 79.246 132.09 80.7474C132.537 81.5678 132.775 82.4854 132.784 83.4194C132.519 83.0942 132.242 83.0075 132.09 83.7446C131.76 85.4086 133.093 87.7392 133.093 87.7392L133.781 87.544C134.128 88.9817 134.797 90.3217 135.738 91.4627V94.3732L129.619 97.8962C128.904 98.3088 128.311 98.9021 127.898 99.6166C127.485 100.331 127.267 101.141 127.267 101.967V103.983C130.906 106.794 135.375 108.32 139.974 108.32C144.573 108.32 149.042 106.794 152.681 103.983V101.967C152.681 101.141 152.464 100.33 152.051 99.6157C151.638 98.9011 151.044 98.308 150.329 97.8962Z" fill="white"/>
<path d="M116.638 149.381C116.497 149.379 116.363 149.322 116.264 149.224C116.21 149.176 116.168 149.117 116.139 149.052C116.11 148.987 116.095 148.916 116.096 148.844C116.097 148.746 116.125 148.651 116.177 148.568L117.153 147.007L115.25 147.066C115.178 147.071 115.107 147.06 115.039 147.035C114.972 147.01 114.911 146.971 114.86 146.92C114.771 146.821 114.723 146.693 114.723 146.56C114.723 146.427 114.771 146.299 114.86 146.199C114.91 146.147 114.971 146.106 115.038 146.08C115.106 146.054 115.178 146.043 115.25 146.048L117.125 146.118L116.161 144.562C116.108 144.478 116.08 144.38 116.079 144.281C116.079 144.209 116.094 144.138 116.123 144.073C116.152 144.007 116.194 143.949 116.247 143.901C116.347 143.802 116.481 143.746 116.621 143.744C116.714 143.745 116.804 143.771 116.882 143.821C116.959 143.871 117.021 143.942 117.06 144.026L117.987 145.701L118.903 144.037C118.947 143.948 119.014 143.873 119.097 143.819C119.18 143.766 119.276 143.736 119.375 143.733C119.443 143.734 119.511 143.748 119.573 143.776C119.636 143.804 119.692 143.845 119.738 143.896C119.837 143.999 119.892 144.137 119.89 144.281C119.889 144.374 119.865 144.465 119.819 144.546L118.838 146.118L120.741 146.048C120.813 146.043 120.885 146.054 120.953 146.08C121.02 146.106 121.081 146.147 121.131 146.199C121.223 146.295 121.274 146.424 121.272 146.557C121.271 146.691 121.221 146.821 121.131 146.92C121.08 146.971 121.019 147.01 120.951 147.035C120.884 147.06 120.812 147.071 120.741 147.066L118.827 147.007L119.781 148.552C119.835 148.638 119.863 148.737 119.863 148.839C119.863 148.983 119.805 149.12 119.704 149.222C119.602 149.324 119.464 149.381 119.321 149.381C119.228 149.38 119.137 149.351 119.06 149.299C118.983 149.247 118.923 149.174 118.887 149.088L117.982 147.462L117.082 149.088C117.042 149.173 116.98 149.245 116.901 149.297C116.823 149.349 116.731 149.378 116.638 149.381Z" fill="#263238"/>
<path d="M125.429 149.381C125.288 149.379 125.154 149.322 125.055 149.224C125.001 149.176 124.959 149.117 124.93 149.052C124.901 148.987 124.886 148.916 124.887 148.844C124.888 148.746 124.917 148.651 124.968 148.568L125.944 147.007L124.047 147.066C123.974 147.07 123.902 147.059 123.834 147.033C123.766 147.008 123.704 146.97 123.651 146.92C123.579 146.846 123.531 146.752 123.513 146.65C123.496 146.548 123.509 146.443 123.552 146.349C123.595 146.255 123.665 146.176 123.753 146.122C123.841 146.068 123.943 146.042 124.047 146.048L125.917 146.118L124.952 144.562C124.899 144.478 124.871 144.38 124.871 144.281C124.87 144.209 124.885 144.138 124.914 144.073C124.943 144.007 124.985 143.949 125.039 143.901C125.138 143.802 125.272 143.746 125.413 143.744C125.505 143.745 125.595 143.771 125.673 143.821C125.751 143.871 125.813 143.942 125.852 144.026L126.778 145.701L127.694 144.037C127.738 143.948 127.805 143.873 127.888 143.819C127.971 143.766 128.067 143.736 128.166 143.733C128.235 143.733 128.302 143.747 128.365 143.775C128.428 143.803 128.484 143.844 128.529 143.896C128.579 143.946 128.619 144.006 128.646 144.073C128.673 144.139 128.687 144.209 128.686 144.281C128.684 144.374 128.658 144.466 128.61 144.546L127.629 146.118L129.537 146.058C129.609 146.054 129.68 146.065 129.747 146.091C129.813 146.117 129.873 146.158 129.922 146.21C130.014 146.306 130.065 146.435 130.063 146.568C130.063 146.702 130.012 146.832 129.922 146.931C129.872 146.981 129.812 147.02 129.745 147.046C129.679 147.071 129.608 147.082 129.537 147.077L127.618 147.018L128.572 148.562C128.626 148.649 128.654 148.748 128.654 148.85C128.654 148.993 128.597 149.131 128.495 149.233C128.393 149.335 128.255 149.392 128.112 149.392C128.019 149.39 127.928 149.362 127.851 149.31C127.774 149.258 127.714 149.185 127.678 149.099L126.773 147.473L125.873 149.099C125.832 149.182 125.769 149.252 125.69 149.302C125.612 149.351 125.522 149.379 125.429 149.381Z" fill="#263238"/>
<path d="M134.226 149.381C134.083 149.38 133.947 149.324 133.846 149.224C133.793 149.176 133.75 149.117 133.721 149.052C133.692 148.987 133.678 148.916 133.678 148.844C133.68 148.746 133.708 148.651 133.76 148.568L134.735 147.007L132.838 147.066C132.736 147.071 132.635 147.044 132.548 146.991C132.461 146.937 132.392 146.859 132.349 146.766C132.307 146.673 132.293 146.569 132.31 146.468C132.326 146.367 132.372 146.274 132.443 146.199C132.494 146.147 132.556 146.106 132.624 146.08C132.692 146.054 132.765 146.043 132.838 146.048L134.708 146.118L133.743 144.562C133.691 144.478 133.663 144.38 133.662 144.281C133.664 144.209 133.679 144.139 133.708 144.074C133.737 144.009 133.778 143.95 133.83 143.901C133.931 143.801 134.067 143.745 134.209 143.744C134.301 143.746 134.39 143.773 134.467 143.823C134.543 143.873 134.604 143.943 134.643 144.026L135.57 145.701L136.486 144.037C136.529 143.948 136.596 143.873 136.679 143.819C136.762 143.766 136.859 143.736 136.957 143.733C137.026 143.733 137.094 143.747 137.156 143.775C137.219 143.803 137.275 143.844 137.321 143.896C137.371 143.946 137.41 144.006 137.437 144.073C137.464 144.139 137.478 144.209 137.478 144.281C137.476 144.374 137.45 144.466 137.402 144.546L136.421 146.118L138.329 146.048C138.399 146.04 138.47 146.049 138.536 146.071C138.603 146.094 138.664 146.131 138.716 146.179C138.767 146.227 138.807 146.286 138.834 146.351C138.861 146.416 138.873 146.487 138.871 146.557C138.872 146.691 138.824 146.82 138.735 146.92C138.684 146.971 138.623 147.01 138.556 147.035C138.488 147.06 138.417 147.071 138.345 147.066L136.432 147.007L137.38 148.552C137.434 148.638 137.462 148.737 137.461 148.839C137.46 148.91 137.444 148.98 137.415 149.045C137.386 149.11 137.345 149.169 137.293 149.218C137.246 149.269 137.189 149.31 137.126 149.337C137.063 149.365 136.994 149.38 136.925 149.381C136.833 149.379 136.743 149.351 136.667 149.299C136.591 149.247 136.532 149.173 136.497 149.088L135.586 147.462L134.686 149.088C134.646 149.176 134.581 149.25 134.499 149.302C134.417 149.354 134.322 149.381 134.226 149.381Z" fill="#263238"/>
<path d="M143.017 149.381C142.875 149.38 142.739 149.324 142.638 149.224C142.536 149.124 142.477 148.987 142.475 148.844C142.473 148.747 142.5 148.651 142.551 148.568L143.527 147.007L141.63 147.066C141.557 147.07 141.485 147.059 141.417 147.033C141.349 147.008 141.287 146.97 141.234 146.92C141.146 146.821 141.097 146.693 141.097 146.56C141.097 146.427 141.146 146.299 141.234 146.199C141.286 146.149 141.348 146.109 141.416 146.083C141.484 146.057 141.557 146.045 141.63 146.048L143.505 146.118L142.546 144.562C142.493 144.478 142.465 144.38 142.464 144.281C142.466 144.209 142.482 144.139 142.51 144.074C142.539 144.009 142.581 143.95 142.632 143.901C142.733 143.801 142.869 143.745 143.012 143.744C143.104 143.745 143.194 143.771 143.272 143.821C143.35 143.871 143.412 143.942 143.451 144.026L144.372 145.701L145.288 144.037C145.332 143.948 145.398 143.873 145.482 143.819C145.565 143.766 145.661 143.736 145.76 143.733C145.828 143.733 145.896 143.747 145.959 143.775C146.021 143.803 146.077 143.844 146.123 143.896C146.173 143.946 146.213 144.006 146.24 144.073C146.267 144.139 146.28 144.209 146.28 144.281C146.278 144.374 146.252 144.466 146.204 144.546L145.223 146.118L147.131 146.048C147.201 146.04 147.272 146.049 147.339 146.071C147.405 146.094 147.466 146.131 147.518 146.179C147.569 146.227 147.61 146.286 147.636 146.351C147.663 146.416 147.676 146.487 147.673 146.557C147.674 146.691 147.626 146.82 147.537 146.92C147.486 146.971 147.425 147.01 147.358 147.035C147.291 147.06 147.219 147.071 147.147 147.066L145.234 147.007L146.182 148.552C146.236 148.638 146.264 148.737 146.264 148.839C146.264 148.91 146.249 148.981 146.22 149.047C146.192 149.112 146.149 149.171 146.096 149.218C146.048 149.269 145.991 149.31 145.928 149.337C145.865 149.365 145.796 149.38 145.727 149.381C145.635 149.379 145.545 149.351 145.469 149.299C145.393 149.247 145.334 149.173 145.299 149.088L144.388 147.462L143.489 149.088C143.447 149.178 143.381 149.253 143.297 149.305C143.213 149.357 143.116 149.384 143.017 149.381Z" fill="#263238"/>
<path d="M151.808 149.381C151.666 149.38 151.53 149.324 151.429 149.224C151.345 149.139 151.291 149.028 151.277 148.91C151.262 148.791 151.287 148.671 151.347 148.568L152.318 147.007L150.421 147.066C150.348 147.07 150.276 147.059 150.208 147.033C150.14 147.008 150.078 146.97 150.025 146.92C149.937 146.821 149.888 146.693 149.888 146.56C149.888 146.427 149.937 146.299 150.025 146.199C150.077 146.149 150.139 146.109 150.207 146.083C150.275 146.057 150.348 146.045 150.421 146.048L152.296 146.118L151.331 144.562C151.279 144.478 151.251 144.38 151.25 144.281C151.252 144.138 151.31 144.001 151.412 143.901C151.513 143.801 151.65 143.745 151.792 143.744C151.884 143.745 151.974 143.771 152.052 143.821C152.13 143.871 152.192 143.942 152.231 144.026L153.152 145.701L154.068 144.037C154.112 143.948 154.179 143.873 154.262 143.819C154.345 143.766 154.441 143.736 154.54 143.733C154.609 143.733 154.678 143.747 154.741 143.775C154.805 143.803 154.862 143.844 154.908 143.896C155.008 143.999 155.062 144.137 155.06 144.281C155.058 144.374 155.032 144.466 154.984 144.546L154.003 146.118L155.911 146.048C155.981 146.04 156.052 146.049 156.119 146.071C156.185 146.094 156.247 146.131 156.298 146.179C156.349 146.227 156.39 146.286 156.416 146.351C156.443 146.416 156.456 146.487 156.453 146.557C156.454 146.691 156.406 146.82 156.318 146.92C156.266 146.971 156.205 147.01 156.138 147.035C156.071 147.06 155.999 147.071 155.927 147.066L154.014 147.007L154.963 148.552C155.016 148.638 155.044 148.737 155.044 148.839C155.044 148.91 155.03 148.981 155.001 149.047C154.972 149.112 154.929 149.171 154.876 149.218C154.829 149.269 154.772 149.31 154.708 149.337C154.645 149.365 154.577 149.38 154.507 149.381C154.415 149.379 154.325 149.351 154.249 149.299C154.173 149.247 154.114 149.173 154.079 149.088L153.169 147.462L152.269 149.088C152.228 149.176 152.163 149.25 152.081 149.302C152 149.354 151.905 149.381 151.808 149.381Z" fill="#263238"/>
<path d="M160.599 149.381C160.459 149.379 160.325 149.322 160.226 149.224C160.172 149.176 160.13 149.117 160.101 149.052C160.072 148.987 160.057 148.916 160.057 148.844C160.059 148.746 160.087 148.651 160.139 148.568L161.109 147.007L159.212 147.066C159.142 147.072 159.072 147.062 159.006 147.039C158.94 147.016 158.88 146.979 158.829 146.931C158.778 146.883 158.737 146.825 158.71 146.761C158.683 146.696 158.669 146.627 158.67 146.557C158.67 146.491 158.682 146.425 158.707 146.364C158.733 146.302 158.77 146.246 158.816 146.199C158.866 146.147 158.927 146.106 158.995 146.08C159.062 146.054 159.134 146.043 159.207 146.048L161.082 146.118L160.117 144.562C160.065 144.478 160.036 144.38 160.036 144.281C160.038 144.138 160.096 144.001 160.198 143.901C160.299 143.801 160.436 143.745 160.578 143.744C160.67 143.745 160.76 143.771 160.838 143.821C160.916 143.871 160.978 143.942 161.017 144.026L161.938 145.701L162.86 144.037C162.903 143.949 162.969 143.874 163.051 143.821C163.133 143.767 163.228 143.737 163.326 143.733C163.395 143.733 163.464 143.747 163.527 143.775C163.591 143.803 163.648 143.844 163.694 143.896C163.794 143.999 163.848 144.137 163.846 144.281C163.846 144.374 163.822 144.465 163.776 144.546L162.795 146.118L164.697 146.048C164.769 146.043 164.842 146.054 164.909 146.08C164.976 146.106 165.037 146.147 165.087 146.199C165.18 146.295 165.23 146.424 165.228 146.557C165.228 146.691 165.178 146.821 165.087 146.92C165.036 146.971 164.975 147.01 164.908 147.035C164.841 147.06 164.769 147.071 164.697 147.066L162.784 147.007L163.732 148.552C163.786 148.638 163.814 148.737 163.814 148.839C163.812 148.982 163.753 149.118 163.651 149.218C163.552 149.319 163.418 149.377 163.277 149.381C163.185 149.379 163.095 149.351 163.019 149.299C162.943 149.247 162.884 149.173 162.849 149.088L161.938 147.462L161.039 149.088C161 149.173 160.938 149.245 160.86 149.297C160.783 149.348 160.693 149.377 160.599 149.381Z" fill="#263238"/>
<path d="M187.944 39.5769H91.999V45.5877H187.944V39.5769Z" fill="#167738"/>
<path d="M150.404 28.5039H129.537C129.161 28.5039 128.799 28.3543 128.533 28.088C128.267 27.8217 128.117 27.4605 128.117 27.0839C128.117 26.7072 128.267 26.346 128.533 26.0797C128.799 25.8134 129.161 25.6638 129.537 25.6638H150.404C150.781 25.6638 151.142 25.8134 151.408 26.0797C151.675 26.346 151.824 26.7072 151.824 27.0839C151.824 27.4605 151.675 27.8217 151.408 28.088C151.142 28.3543 150.781 28.5039 150.404 28.5039Z" fill="#167738" stroke="#263238" stroke-width="0.724865" stroke-linecap="round" stroke-linejoin="round"/>
<path d="M145.662 203.369C145.663 202.243 145.33 201.142 144.705 200.205C144.08 199.269 143.192 198.539 142.152 198.107C141.112 197.676 139.967 197.563 138.862 197.782C137.758 198.001 136.743 198.543 135.947 199.34C135.151 200.136 134.609 201.15 134.389 202.255C134.17 203.359 134.283 204.504 134.715 205.544C135.146 206.584 135.876 207.473 136.813 208.098C137.75 208.723 138.851 209.056 139.977 209.055C141.484 209.053 142.929 208.454 143.995 207.388C145.061 206.322 145.661 204.877 145.662 203.369Z" fill="#167738"/>
<path d="M142.86 200.486H137.093V206.253H142.86V200.486Z" fill="#167738" stroke="#263238" stroke-width="0.724865" stroke-linecap="round" stroke-linejoin="round"/>
<path d="M208.67 137.928C208.67 137.928 201.114 118.73 207.841 116.449C214.843 114.069 214.534 126.747 214.263 132.925C213.694 146.128 212.236 148.584 211.147 145.359L208.67 137.928ZM206.399 152.903C208.475 155.613 209.06 152.806 205.315 140.129C203.559 134.167 199.743 122.107 193.889 126.633C188.269 130.969 201.645 146.687 201.645 146.687L206.399 152.903ZM202.388 163.906C204.366 165.662 204.404 163.445 199.705 154.291C197.499 150.004 192.833 141.326 189.011 145.619C185.342 149.76 197.846 159.825 197.846 159.825L202.388 163.906ZM198.052 176.99C200.03 178.751 200.068 176.529 195.369 167.38C193.163 163.093 188.497 154.41 184.675 158.708C181.028 162.86 193.494 172.925 193.494 172.925L198.052 176.99ZM210.572 150.356C207.407 151.592 209.922 152.936 223.141 152.898C229.342 152.898 242.003 152.616 239.304 145.727C236.718 139.11 217.889 147.538 217.889 147.538L210.572 150.356ZM206.968 159.158C203.618 159.738 205.819 161.559 218.784 164.15C224.859 165.369 237.32 167.619 236.046 160.356C234.827 153.353 214.697 157.874 214.697 157.874L206.968 159.158ZM202.935 169.906C200.085 170.318 201.906 171.906 212.805 174.399C217.916 175.57 228.404 177.765 227.493 171.57C226.626 165.608 209.499 168.979 209.499 168.979L202.935 169.906ZM199.873 179.863C197.082 180.573 199.06 181.96 210.171 183.283C215.374 183.9 226.035 184.974 224.48 178.909C222.979 173.088 206.307 178.242 206.307 178.242L199.873 179.863ZM216.209 139.554C214.583 143.196 217.96 142.643 229.439 132.627C234.816 127.928 245.602 118.096 237.06 113.202C228.859 108.497 220.041 131.196 220.041 131.196L216.209 139.554ZM200.296 192.833C198.578 193.835 200.263 194.226 208.144 192.654C211.84 191.922 219.358 190.296 216.816 187.087C214.355 183.998 204.274 190.502 204.274 190.502L200.296 192.833Z" fill="#167738"/>
<path opacity="0.3" d="M208.67 137.928C208.67 137.928 201.114 118.73 207.841 116.449C214.843 114.069 214.534 126.747 214.263 132.925C213.694 146.128 212.236 148.584 211.147 145.359L208.67 137.928ZM206.399 152.903C208.475 155.613 209.06 152.806 205.315 140.129C203.559 134.167 199.743 122.107 193.889 126.633C188.269 130.969 201.645 146.687 201.645 146.687L206.399 152.903ZM202.388 163.906C204.366 165.662 204.404 163.445 199.705 154.291C197.499 150.004 192.833 141.326 189.011 145.619C185.342 149.76 197.846 159.825 197.846 159.825L202.388 163.906ZM198.052 176.99C200.03 178.751 200.068 176.529 195.369 167.38C193.163 163.093 188.497 154.41 184.675 158.708C181.028 162.86 193.494 172.925 193.494 172.925L198.052 176.99ZM210.572 150.356C207.407 151.592 209.922 152.936 223.141 152.898C229.342 152.898 242.003 152.616 239.304 145.727C236.718 139.11 217.889 147.538 217.889 147.538L210.572 150.356ZM206.968 159.158C203.618 159.738 205.819 161.559 218.784 164.15C224.859 165.369 237.32 167.619 236.046 160.356C234.827 153.353 214.697 157.874 214.697 157.874L206.968 159.158ZM202.935 169.906C200.085 170.318 201.906 171.906 212.805 174.399C217.916 175.57 228.404 177.765 227.493 171.57C226.626 165.608 209.499 168.979 209.499 168.979L202.935 169.906ZM199.873 179.863C197.082 180.573 199.06 181.96 210.171 183.283C215.374 183.9 226.035 184.974 224.48 178.909C222.979 173.088 206.307 178.242 206.307 178.242L199.873 179.863ZM216.209 139.554C214.583 143.196 217.96 142.643 229.439 132.627C234.816 127.928 245.602 118.096 237.06 113.202C228.859 108.497 220.041 131.196 220.041 131.196L216.209 139.554ZM200.296 192.833C198.578 193.835 200.263 194.226 208.144 192.654C211.84 191.922 219.358 190.296 216.816 187.087C214.355 183.998 204.274 190.502 204.274 190.502L200.296 192.833Z" fill="white"/>
<path d="M212.003 146.866L210.686 124.953L212.003 146.866ZM207.835 154.096L199.51 135.251L207.835 154.096ZM229.32 148.616L209.369 151.478L229.32 148.616ZM203.521 164.253L192.719 150.394L203.521 164.253ZM205.418 160.004L220.301 160.752L205.418 160.004ZM201.895 170.632L213.277 171.76L201.895 170.632ZM199.147 177.386L193.494 168.882L199.147 177.386ZM198.496 180.388L211.878 180.513L198.496 180.388ZM195.786 205.494C195.876 205.487 195.959 205.445 196.018 205.377C196.077 205.309 196.107 205.22 196.101 205.131C195.25 192.35 200.193 171.418 208.122 154.237C213.19 143.256 233.054 121.673 233.266 121.457C233.33 121.393 233.366 121.306 233.366 121.215C233.366 121.125 233.33 121.038 233.266 120.974C233.235 120.943 233.197 120.918 233.156 120.901C233.116 120.884 233.072 120.875 233.027 120.875C232.983 120.875 232.939 120.884 232.898 120.901C232.857 120.918 232.82 120.943 232.789 120.974C232.588 121.191 212.643 142.855 207.532 153.933C199.456 171.532 194.578 192.085 195.445 205.174C195.452 205.26 195.491 205.341 195.554 205.4C195.617 205.459 195.7 205.493 195.786 205.494ZM211.998 147.202C212.087 147.196 212.171 147.155 212.231 147.088C212.291 147.021 212.322 146.934 212.317 146.844L211.022 124.92C211.02 124.875 211.009 124.832 210.99 124.791C210.971 124.751 210.944 124.715 210.91 124.685C210.877 124.655 210.838 124.632 210.796 124.618C210.754 124.603 210.709 124.597 210.664 124.6C210.575 124.606 210.491 124.647 210.431 124.713C210.371 124.78 210.34 124.868 210.345 124.958L211.662 146.871C211.666 146.957 211.703 147.039 211.766 147.098C211.828 147.158 211.911 147.191 211.998 147.191V147.202ZM207.954 154.405C208.036 154.368 208.099 154.301 208.132 154.218C208.164 154.135 208.163 154.042 208.128 153.96L199.797 135.115C199.761 135.033 199.694 134.969 199.611 134.936C199.528 134.904 199.435 134.906 199.353 134.942C199.271 134.978 199.207 135.045 199.174 135.128C199.142 135.211 199.143 135.304 199.179 135.386L207.505 154.231C207.531 154.292 207.574 154.344 207.629 154.38C207.683 154.417 207.748 154.437 207.813 154.437C207.87 154.44 207.925 154.429 207.976 154.405H207.954ZM209.396 151.803L229.336 148.952C229.384 148.951 229.432 148.94 229.475 148.92C229.519 148.899 229.558 148.869 229.589 148.833C229.62 148.796 229.643 148.753 229.657 148.707C229.67 148.661 229.674 148.612 229.667 148.565C229.661 148.517 229.644 148.471 229.619 148.43C229.593 148.389 229.56 148.354 229.52 148.327C229.48 148.301 229.434 148.283 229.387 148.274C229.339 148.266 229.291 148.268 229.244 148.28L209.304 151.131C209.215 151.137 209.132 151.178 209.073 151.245C209.014 151.312 208.984 151.4 208.99 151.489C208.995 151.578 209.036 151.661 209.103 151.72C209.17 151.779 209.258 151.809 209.347 151.803H209.396ZM203.711 164.524C203.781 164.468 203.827 164.387 203.838 164.298C203.85 164.208 203.825 164.118 203.77 164.047L192.963 150.161C192.907 150.089 192.826 150.042 192.736 150.03C192.646 150.019 192.555 150.043 192.483 150.099C192.411 150.154 192.364 150.236 192.352 150.326C192.341 150.416 192.365 150.506 192.421 150.578L203.25 164.486C203.281 164.527 203.321 164.559 203.368 164.582C203.414 164.604 203.464 164.616 203.515 164.616C203.596 164.612 203.673 164.579 203.732 164.524H203.711ZM220.599 160.768C220.602 160.678 220.57 160.591 220.509 160.525C220.448 160.459 220.364 160.42 220.274 160.416L205.418 159.662C205.334 159.668 205.256 159.704 205.197 159.764C205.139 159.824 205.104 159.903 205.1 159.987C205.096 160.07 205.123 160.152 205.176 160.217C205.228 160.283 205.303 160.326 205.385 160.34L220.269 161.093C220.358 161.096 220.446 161.064 220.511 161.003C220.577 160.942 220.617 160.858 220.621 160.768H220.599ZM213.591 171.792C213.596 171.748 213.593 171.702 213.58 171.659C213.568 171.616 213.547 171.576 213.518 171.541C213.49 171.506 213.455 171.477 213.415 171.456C213.376 171.435 213.332 171.422 213.288 171.418L201.906 170.296C201.861 170.292 201.817 170.296 201.774 170.309C201.732 170.322 201.692 170.343 201.658 170.371C201.624 170.399 201.595 170.434 201.575 170.473C201.554 170.513 201.541 170.556 201.537 170.6C201.529 170.689 201.557 170.777 201.614 170.846C201.67 170.915 201.752 170.959 201.841 170.968L213.223 172.096H213.255C213.343 172.102 213.429 172.073 213.496 172.017C213.563 171.96 213.605 171.879 213.613 171.792H213.591ZM199.309 177.667C199.385 177.618 199.437 177.54 199.456 177.452C199.474 177.363 199.456 177.271 199.407 177.196L193.781 168.692C193.73 168.619 193.652 168.568 193.564 168.551C193.476 168.534 193.385 168.551 193.31 168.6C193.234 168.65 193.182 168.727 193.163 168.815C193.145 168.904 193.163 168.996 193.212 169.071L198.838 177.575C198.87 177.622 198.913 177.66 198.963 177.686C199.013 177.713 199.069 177.727 199.125 177.727C199.199 177.731 199.271 177.71 199.331 177.667H199.309ZM212.22 180.513C212.219 180.424 212.183 180.339 212.12 180.275C212.058 180.211 211.973 180.174 211.884 180.172L198.502 180.047C198.413 180.047 198.327 180.082 198.264 180.145C198.201 180.208 198.166 180.294 198.166 180.383C198.164 180.428 198.172 180.472 198.188 180.514C198.205 180.556 198.229 180.594 198.261 180.626C198.292 180.658 198.33 180.683 198.371 180.7C198.413 180.717 198.457 180.725 198.502 180.724L211.884 180.849C211.93 180.851 211.975 180.844 212.018 180.828C212.061 180.812 212.101 180.788 212.134 180.757C212.167 180.725 212.194 180.688 212.213 180.646C212.231 180.604 212.241 180.559 212.242 180.513H212.22ZM194.263 200.524C194.291 200.464 196.572 194.177 203.434 192.675C203.522 192.656 203.6 192.602 203.648 192.526C203.697 192.45 203.714 192.357 203.694 192.269C203.672 192.182 203.618 192.107 203.542 192.06C203.466 192.013 203.375 191.996 203.288 192.014C196.052 193.597 193.651 200.236 193.624 200.301C193.596 200.387 193.602 200.48 193.642 200.561C193.681 200.642 193.751 200.704 193.835 200.735H193.944C194.016 200.741 194.088 200.724 194.149 200.686C194.211 200.648 194.259 200.591 194.285 200.524H194.263ZM195.786 205.494C195.876 205.487 195.959 205.445 196.018 205.377C196.077 205.309 196.107 205.22 196.101 205.131C195.25 192.35 200.193 171.418 208.122 154.237C213.19 143.256 233.054 121.673 233.266 121.457C233.33 121.393 233.366 121.306 233.366 121.215C233.366 121.125 233.33 121.038 233.266 120.974C233.235 120.943 233.197 120.918 233.156 120.901C233.116 120.884 233.072 120.875 233.027 120.875C232.983 120.875 232.939 120.884 232.898 120.901C232.857 120.918 232.82 120.943 232.789 120.974C232.588 121.191 212.643 142.855 207.532 153.933C199.456 171.532 194.578 192.085 195.445 205.174C195.452 205.26 195.491 205.341 195.554 205.4C195.617 205.459 195.7 205.493 195.786 205.494ZM211.998 147.202C212.087 147.196 212.171 147.155 212.231 147.088C212.291 147.021 212.322 146.934 212.317 146.844L211.022 124.92C211.02 124.875 211.009 124.832 210.99 124.791C210.971 124.751 210.944 124.715 210.91 124.685C210.877 124.655 210.838 124.632 210.796 124.618C210.754 124.603 210.709 124.597 210.664 124.6C210.575 124.606 210.491 124.647 210.431 124.713C210.371 124.78 210.34 124.868 210.345 124.958L211.662 146.871C211.666 146.957 211.703 147.039 211.766 147.098C211.828 147.158 211.911 147.191 211.998 147.191V147.202ZM207.954 154.405C208.036 154.368 208.099 154.301 208.132 154.218C208.164 154.135 208.163 154.042 208.128 153.96L199.797 135.115C199.761 135.033 199.694 134.969 199.611 134.936C199.528 134.904 199.435 134.906 199.353 134.942C199.271 134.978 199.207 135.045 199.174 135.128C199.142 135.211 199.143 135.304 199.179 135.386L207.505 154.231C207.531 154.292 207.574 154.344 207.629 154.38C207.683 154.417 207.748 154.437 207.813 154.437C207.87 154.44 207.925 154.429 207.976 154.405H207.954ZM209.396 151.803L229.336 148.952C229.384 148.951 229.432 148.94 229.475 148.92C229.519 148.899 229.558 148.869 229.589 148.833C229.62 148.796 229.643 148.753 229.657 148.707C229.67 148.661 229.674 148.612 229.667 148.565C229.661 148.517 229.644 148.471 229.619 148.43C229.593 148.389 229.56 148.354 229.52 148.327C229.48 148.301 229.434 148.283 229.387 148.274C229.339 148.266 229.291 148.268 229.244 148.28L209.304 151.131C209.215 151.137 209.132 151.178 209.073 151.245C209.014 151.312 208.984 151.4 208.99 151.489C208.995 151.578 209.036 151.661 209.103 151.72C209.17 151.779 209.258 151.809 209.347 151.803H209.396ZM203.711 164.524C203.781 164.468 203.827 164.387 203.838 164.298C203.85 164.208 203.825 164.118 203.77 164.047L192.963 150.161C192.935 150.125 192.901 150.096 192.862 150.073C192.823 150.051 192.78 150.036 192.736 150.03C192.691 150.025 192.646 150.028 192.603 150.039C192.559 150.051 192.519 150.071 192.483 150.099C192.447 150.126 192.418 150.16 192.395 150.199C192.373 150.238 192.358 150.281 192.352 150.326C192.347 150.37 192.35 150.415 192.361 150.459C192.373 150.502 192.393 150.543 192.421 150.578L203.25 164.486C203.281 164.527 203.321 164.559 203.368 164.582C203.414 164.604 203.464 164.616 203.515 164.616C203.596 164.612 203.673 164.579 203.732 164.524H203.711ZM220.599 160.768C220.602 160.678 220.57 160.591 220.509 160.525C220.448 160.459 220.364 160.42 220.274 160.416L205.418 159.662C205.334 159.668 205.256 159.704 205.197 159.764C205.139 159.824 205.104 159.903 205.1 159.987C205.096 160.07 205.123 160.152 205.176 160.217C205.228 160.283 205.303 160.326 205.385 160.34L220.269 161.093C220.358 161.096 220.446 161.064 220.511 161.003C220.577 160.942 220.617 160.858 220.621 160.768H220.599ZM213.591 171.792C213.596 171.748 213.593 171.702 213.58 171.659C213.568 171.616 213.547 171.576 213.518 171.541C213.49 171.506 213.455 171.477 213.415 171.456C213.376 171.435 213.332 171.422 213.288 171.418L201.906 170.296C201.861 170.292 201.817 170.296 201.774 170.309C201.732 170.322 201.692 170.343 201.658 170.371C201.624 170.399 201.595 170.434 201.575 170.473C201.554 170.513 201.541 170.556 201.537 170.6C201.529 170.689 201.557 170.777 201.614 170.846C201.67 170.915 201.752 170.959 201.841 170.968L213.223 172.096H213.255C213.343 172.102 213.429 172.073 213.496 172.017C213.563 171.96 213.605 171.879 213.613 171.792H213.591ZM199.309 177.667C199.385 177.618 199.437 177.54 199.456 177.452C199.474 177.363 199.456 177.271 199.407 177.196L193.781 168.692C193.73 168.619 193.652 168.568 193.564 168.551C193.476 168.534 193.385 168.551 193.31 168.6C193.234 168.65 193.182 168.727 193.163 168.815C193.145 168.904 193.163 168.996 193.212 169.071L198.838 177.575C198.87 177.622 198.913 177.66 198.963 177.686C199.013 177.713 199.069 177.727 199.125 177.727C199.199 177.731 199.271 177.71 199.331 177.667H199.309ZM212.22 180.513C212.219 180.424 212.183 180.339 212.12 180.275C212.058 180.211 211.973 180.174 211.884 180.172L198.502 180.047C198.413 180.047 198.327 180.082 198.264 180.145C198.201 180.208 198.166 180.294 198.166 180.383C198.164 180.428 198.172 180.472 198.188 180.514C198.205 180.556 198.229 180.594 198.261 180.626C198.292 180.658 198.33 180.683 198.371 180.7C198.413 180.717 198.457 180.725 198.502 180.724L211.884 180.849C211.93 180.851 211.975 180.844 212.018 180.828C212.061 180.812 212.101 180.788 212.134 180.757C212.167 180.725 212.194 180.688 212.213 180.646C212.231 180.604 212.241 180.559 212.242 180.513H212.22ZM194.263 200.524C194.291 200.464 196.572 194.177 203.434 192.675C203.522 192.656 203.6 192.602 203.648 192.526C203.697 192.45 203.714 192.357 203.694 192.269C203.672 192.182 203.618 192.107 203.542 192.06C203.466 192.013 203.375 191.996 203.288 192.014C196.052 193.597 193.651 200.236 193.624 200.301C193.596 200.387 193.602 200.48 193.642 200.561C193.681 200.642 193.751 200.704 193.835 200.735H193.944C194.016 200.741 194.088 200.724 194.149 200.686C194.211 200.648 194.259 200.591 194.285 200.524H194.263Z" fill="#167738"/>
<path opacity="0.2" d="M212.003 146.866L210.686 124.953L212.003 146.866ZM207.835 154.096L199.51 135.251L207.835 154.096ZM229.32 148.616L209.369 151.478L229.32 148.616ZM203.521 164.253L192.719 150.394L203.521 164.253ZM205.418 160.004L220.301 160.752L205.418 160.004ZM201.895 170.632L213.277 171.76L201.895 170.632ZM199.147 177.386L193.494 168.882L199.147 177.386ZM198.496 180.388L211.878 180.513L198.496 180.388ZM195.786 205.494C195.876 205.487 195.959 205.445 196.018 205.377C196.077 205.309 196.107 205.22 196.101 205.131C195.25 192.35 200.193 171.418 208.122 154.237C213.19 143.256 233.054 121.673 233.266 121.457C233.33 121.393 233.366 121.306 233.366 121.215C233.366 121.125 233.33 121.038 233.266 120.974C233.235 120.943 233.197 120.918 233.156 120.901C233.116 120.884 233.072 120.875 233.027 120.875C232.983 120.875 232.939 120.884 232.898 120.901C232.857 120.918 232.82 120.943 232.789 120.974C232.588 121.191 212.643 142.855 207.532 153.933C199.456 171.532 194.578 192.085 195.445 205.174C195.452 205.26 195.491 205.341 195.554 205.4C195.617 205.459 195.7 205.493 195.786 205.494ZM211.998 147.202C212.087 147.196 212.171 147.155 212.231 147.088C212.291 147.021 212.322 146.934 212.317 146.844L211.022 124.92C211.02 124.875 211.009 124.832 210.99 124.791C210.971 124.751 210.944 124.715 210.91 124.685C210.877 124.655 210.838 124.632 210.796 124.618C210.754 124.603 210.709 124.597 210.664 124.6C210.575 124.606 210.491 124.647 210.431 124.713C210.371 124.78 210.34 124.868 210.345 124.958L211.662 146.871C211.666 146.957 211.703 147.039 211.766 147.098C211.828 147.158 211.911 147.191 211.998 147.191V147.202ZM207.954 154.405C208.036 154.368 208.099 154.301 208.132 154.218C208.164 154.135 208.163 154.042 208.128 153.96L199.797 135.115C199.761 135.033 199.694 134.969 199.611 134.936C199.528 134.904 199.435 134.906 199.353 134.942C199.271 134.978 199.207 135.045 199.174 135.128C199.142 135.211 199.143 135.304 199.179 135.386L207.505 154.231C207.531 154.292 207.574 154.344 207.629 154.38C207.683 154.417 207.748 154.437 207.813 154.437C207.87 154.44 207.925 154.429 207.976 154.405H207.954ZM209.396 151.803L229.336 148.952C229.384 148.951 229.432 148.94 229.475 148.92C229.519 148.899 229.558 148.869 229.589 148.833C229.62 148.796 229.643 148.753 229.657 148.707C229.67 148.661 229.674 148.612 229.667 148.565C229.661 148.517 229.644 148.471 229.619 148.43C229.593 148.389 229.56 148.354 229.52 148.327C229.48 148.301 229.434 148.283 229.387 148.274C229.339 148.266 229.291 148.268 229.244 148.28L209.304 151.131C209.215 151.137 209.132 151.178 209.073 151.245C209.014 151.312 208.984 151.4 208.99 151.489C208.995 151.578 209.036 151.661 209.103 151.72C209.17 151.779 209.258 151.809 209.347 151.803H209.396ZM203.711 164.524C203.781 164.468 203.827 164.387 203.838 164.298C203.85 164.208 203.825 164.118 203.77 164.047L192.963 150.161C192.907 150.089 192.826 150.042 192.736 150.03C192.646 150.019 192.555 150.043 192.483 150.099C192.411 150.154 192.364 150.236 192.352 150.326C192.341 150.416 192.365 150.506 192.421 150.578L203.25 164.486C203.281 164.527 203.321 164.559 203.368 164.582C203.414 164.604 203.464 164.616 203.515 164.616C203.596 164.612 203.673 164.579 203.732 164.524H203.711ZM220.599 160.768C220.602 160.678 220.57 160.591 220.509 160.525C220.448 160.459 220.364 160.42 220.274 160.416L205.418 159.662C205.334 159.668 205.256 159.704 205.197 159.764C205.139 159.824 205.104 159.903 205.1 159.987C205.096 160.07 205.123 160.152 205.176 160.217C205.228 160.283 205.303 160.326 205.385 160.34L220.269 161.093C220.358 161.096 220.446 161.064 220.511 161.003C220.577 160.942 220.617 160.858 220.621 160.768H220.599ZM213.591 171.792C213.596 171.748 213.593 171.702 213.58 171.659C213.568 171.616 213.547 171.576 213.518 171.541C213.49 171.506 213.455 171.477 213.415 171.456C213.376 171.435 213.332 171.422 213.288 171.418L201.906 170.296C201.861 170.292 201.817 170.296 201.774 170.309C201.732 170.322 201.692 170.343 201.658 170.371C201.624 170.399 201.595 170.434 201.575 170.473C201.554 170.513 201.541 170.556 201.537 170.6C201.529 170.689 201.557 170.777 201.614 170.846C201.67 170.915 201.752 170.959 201.841 170.968L213.223 172.096H213.255C213.343 172.102 213.429 172.073 213.496 172.017C213.563 171.96 213.605 171.879 213.613 171.792H213.591ZM199.309 177.667C199.385 177.618 199.437 177.54 199.456 177.452C199.474 177.363 199.456 177.271 199.407 177.196L193.781 168.692C193.73 168.619 193.652 168.568 193.564 168.551C193.476 168.534 193.385 168.551 193.31 168.6C193.234 168.65 193.182 168.727 193.163 168.815C193.145 168.904 193.163 168.996 193.212 169.071L198.838 177.575C198.87 177.622 198.913 177.66 198.963 177.686C199.013 177.713 199.069 177.727 199.125 177.727C199.199 177.731 199.271 177.71 199.331 177.667H199.309ZM212.22 180.513C212.219 180.424 212.183 180.339 212.12 180.275C212.058 180.211 211.973 180.174 211.884 180.172L198.502 180.047C198.413 180.047 198.327 180.082 198.264 180.145C198.201 180.208 198.166 180.294 198.166 180.383C198.164 180.428 198.172 180.472 198.188 180.514C198.205 180.556 198.229 180.594 198.261 180.626C198.292 180.658 198.33 180.683 198.371 180.7C198.413 180.717 198.457 180.725 198.502 180.724L211.884 180.849C211.93 180.851 211.975 180.844 212.018 180.828C212.061 180.812 212.101 180.788 212.134 180.757C212.167 180.725 212.194 180.688 212.213 180.646C212.231 180.604 212.241 180.559 212.242 180.513H212.22ZM194.263 200.524C194.291 200.464 196.572 194.177 203.434 192.675C203.522 192.656 203.6 192.602 203.648 192.526C203.697 192.45 203.714 192.357 203.694 192.269C203.672 192.182 203.618 192.107 203.542 192.06C203.466 192.013 203.375 191.996 203.288 192.014C196.052 193.597 193.651 200.236 193.624 200.301C193.596 200.387 193.602 200.48 193.642 200.561C193.681 200.642 193.751 200.704 193.835 200.735H193.944C194.016 200.741 194.088 200.724 194.149 200.686C194.211 200.648 194.259 200.591 194.285 200.524H194.263ZM195.786 205.494C195.876 205.487 195.959 205.445 196.018 205.377C196.077 205.309 196.107 205.22 196.101 205.131C195.25 192.35 200.193 171.418 208.122 154.237C213.19 143.256 233.054 121.673 233.266 121.457C233.33 121.393 233.366 121.306 233.366 121.215C233.366 121.125 233.33 121.038 233.266 120.974C233.235 120.943 233.197 120.918 233.156 120.901C233.116 120.884 233.072 120.875 233.027 120.875C232.983 120.875 232.939 120.884 232.898 120.901C232.857 120.918 232.82 120.943 232.789 120.974C232.588 121.191 212.643 142.855 207.532 153.933C199.456 171.532 194.578 192.085 195.445 205.174C195.452 205.26 195.491 205.341 195.554 205.4C195.617 205.459 195.7 205.493 195.786 205.494ZM211.998 147.202C212.087 147.196 212.171 147.155 212.231 147.088C212.291 147.021 212.322 146.934 212.317 146.844L211.022 124.92C211.02 124.875 211.009 124.832 210.99 124.791C210.971 124.751 210.944 124.715 210.91 124.685C210.877 124.655 210.838 124.632 210.796 124.618C210.754 124.603 210.709 124.597 210.664 124.6C210.575 124.606 210.491 124.647 210.431 124.713C210.371 124.78 210.34 124.868 210.345 124.958L211.662 146.871C211.666 146.957 211.703 147.039 211.766 147.098C211.828 147.158 211.911 147.191 211.998 147.191V147.202ZM207.954 154.405C208.036 154.368 208.099 154.301 208.132 154.218C208.164 154.135 208.163 154.042 208.128 153.96L199.797 135.115C199.761 135.033 199.694 134.969 199.611 134.936C199.528 134.904 199.435 134.906 199.353 134.942C199.271 134.978 199.207 135.045 199.174 135.128C199.142 135.211 199.143 135.304 199.179 135.386L207.505 154.231C207.531 154.292 207.574 154.344 207.629 154.38C207.683 154.417 207.748 154.437 207.813 154.437C207.87 154.44 207.925 154.429 207.976 154.405H207.954ZM209.396 151.803L229.336 148.952C229.384 148.951 229.432 148.94 229.475 148.92C229.519 148.899 229.558 148.869 229.589 148.833C229.62 148.796 229.643 148.753 229.657 148.707C229.67 148.661 229.674 148.612 229.667 148.565C229.661 148.517 229.644 148.471 229.619 148.43C229.593 148.389 229.56 148.354 229.52 148.327C229.48 148.301 229.434 148.283 229.387 148.274C229.339 148.266 229.291 148.268 229.244 148.28L209.304 151.131C209.215 151.137 209.132 151.178 209.073 151.245C209.014 151.312 208.984 151.4 208.99 151.489C208.995 151.578 209.036 151.661 209.103 151.72C209.17 151.779 209.258 151.809 209.347 151.803H209.396ZM203.711 164.524C203.781 164.468 203.827 164.387 203.838 164.298C203.85 164.208 203.825 164.118 203.77 164.047L192.963 150.161C192.935 150.125 192.901 150.096 192.862 150.073C192.823 150.051 192.78 150.036 192.736 150.03C192.691 150.025 192.646 150.028 192.603 150.039C192.559 150.051 192.519 150.071 192.483 150.099C192.447 150.126 192.418 150.16 192.395 150.199C192.373 150.238 192.358 150.281 192.352 150.326C192.347 150.37 192.35 150.415 192.361 150.459C192.373 150.502 192.393 150.543 192.421 150.578L203.25 164.486C203.281 164.527 203.321 164.559 203.368 164.582C203.414 164.604 203.464 164.616 203.515 164.616C203.596 164.612 203.673 164.579 203.732 164.524H203.711ZM220.599 160.768C220.602 160.678 220.57 160.591 220.509 160.525C220.448 160.459 220.364 160.42 220.274 160.416L205.418 159.662C205.334 159.668 205.256 159.704 205.197 159.764C205.139 159.824 205.104 159.903 205.1 159.987C205.096 160.07 205.123 160.152 205.176 160.217C205.228 160.283 205.303 160.326 205.385 160.34L220.269 161.093C220.358 161.096 220.446 161.064 220.511 161.003C220.577 160.942 220.617 160.858 220.621 160.768H220.599ZM213.591 171.792C213.596 171.748 213.593 171.702 213.58 171.659C213.568 171.616 213.547 171.576 213.518 171.541C213.49 171.506 213.455 171.477 213.415 171.456C213.376 171.435 213.332 171.422 213.288 171.418L201.906 170.296C201.861 170.292 201.817 170.296 201.774 170.309C201.732 170.322 201.692 170.343 201.658 170.371C201.624 170.399 201.595 170.434 201.575 170.473C201.554 170.513 201.541 170.556 201.537 170.6C201.529 170.689 201.557 170.777 201.614 170.846C201.67 170.915 201.752 170.959 201.841 170.968L213.223 172.096H213.255C213.343 172.102 213.429 172.073 213.496 172.017C213.563 171.96 213.605 171.879 213.613 171.792H213.591ZM199.309 177.667C199.385 177.618 199.437 177.54 199.456 177.452C199.474 177.363 199.456 177.271 199.407 177.196L193.781 168.692C193.73 168.619 193.652 168.568 193.564 168.551C193.476 168.534 193.385 168.551 193.31 168.6C193.234 168.65 193.182 168.727 193.163 168.815C193.145 168.904 193.163 168.996 193.212 169.071L198.838 177.575C198.87 177.622 198.913 177.66 198.963 177.686C199.013 177.713 199.069 177.727 199.125 177.727C199.199 177.731 199.271 177.71 199.331 177.667H199.309ZM212.22 180.513C212.219 180.424 212.183 180.339 212.12 180.275C212.058 180.211 211.973 180.174 211.884 180.172L198.502 180.047C198.413 180.047 198.327 180.082 198.264 180.145C198.201 180.208 198.166 180.294 198.166 180.383C198.164 180.428 198.172 180.472 198.188 180.514C198.205 180.556 198.229 180.594 198.261 180.626C198.292 180.658 198.33 180.683 198.371 180.7C198.413 180.717 198.457 180.725 198.502 180.724L211.884 180.849C211.93 180.851 211.975 180.844 212.018 180.828C212.061 180.812 212.101 180.788 212.134 180.757C212.167 180.725 212.194 180.688 212.213 180.646C212.231 180.604 212.241 180.559 212.242 180.513H212.22ZM194.263 200.524C194.291 200.464 196.572 194.177 203.434 192.675C203.522 192.656 203.6 192.602 203.648 192.526C203.697 192.45 203.714 192.357 203.694 192.269C203.672 192.182 203.618 192.107 203.542 192.06C203.466 192.013 203.375 191.996 203.288 192.014C196.052 193.597 193.651 200.236 193.624 200.301C193.596 200.387 193.602 200.48 193.642 200.561C193.681 200.642 193.751 200.704 193.835 200.735H193.944C194.016 200.741 194.088 200.724 194.149 200.686C194.211 200.648 194.259 200.591 194.285 200.524H194.263Z" fill="black"/>
<path d="M204.638 195.938H189.294V199.114H190.633L193.402 216.442H200.53L203.299 199.114H204.638V195.938Z" fill="#167738"/>
<path opacity="0.3" d="M204.638 195.938H189.294V199.114H190.633L193.402 216.442H200.53L203.299 199.114H204.638V195.938Z" fill="white"/>
<path d="M66.4926 99.8957L48.6445 94.0692L47.0564 89.8741L43.4305 89.7603L36.8506 88.5137L37.6419 89.8741L45.9237 95.8849L47.967 96.9038L66.6335 106.654L66.4926 99.8957Z" fill="white" stroke="#263238" stroke-width="0.544146" stroke-miterlimit="10"/>
<path d="M47.0563 89.8742L45.3544 88.8552L41.9561 90.1018L42.5197 90.7793L47.0563 89.8742Z" fill="white" stroke="#263238" stroke-width="0.544146" stroke-linejoin="round"/>
<path d="M66.4926 99.8957L48.6445 94.0692L47.0564 89.8741L43.4305 89.7603L36.8506 88.5137L37.6419 89.8741L45.9237 95.8849L47.967 96.9038L66.6335 106.654L66.4926 99.8957Z" fill="white"/>
<mask id="mask0_160_4956" style="mask-type:luminance" maskUnits="userSpaceOnUse" x="36" y="88" width="31" height="19">
<path d="M66.4926 99.8957L48.6445 94.0692L47.0564 89.8741L43.4305 89.7603L36.8506 88.5137L37.6419 89.8741L45.9237 95.8849L47.967 96.9038L66.6335 106.654L66.4926 99.8957Z" fill="white"/>
</mask>
<g mask="url(#mask0_160_4956)">
<path opacity="0.5" d="M66.4926 99.8957L48.6445 94.0692L47.0564 89.8741L43.4305 89.7603L36.8506 88.5137L37.6419 89.8741L45.9237 95.8849L47.967 96.9038L66.6335 106.654L66.4926 99.8957Z" fill="#167738" stroke="#263238" stroke-width="0.544146" stroke-miterlimit="10"/>
</g>
<path d="M66.4926 99.8957L48.6445 94.0692L47.0564 89.8741L43.4305 89.7603L36.8506 88.5137L37.6419 89.8741L45.9237 95.8849L47.967 96.9038L66.6335 106.654L66.4926 99.8957Z" stroke="#263238" stroke-width="0.544146" stroke-miterlimit="10"/>
<path d="M47.0563 89.8742L45.3544 88.8552L41.9561 90.1018L42.5197 90.7793L47.0563 89.8742Z" fill="white"/>
<mask id="mask1_160_4956" style="mask-type:luminance" maskUnits="userSpaceOnUse" x="41" y="88" width="7" height="3">
<path d="M47.0572 89.8744L45.3554 88.8555L41.957 90.1021L42.5207 90.7796L47.0572 89.8744Z" fill="white"/>
</mask>
<g mask="url(#mask1_160_4956)">
<path opacity="0.5" d="M47.0572 89.8744L45.3554 88.8555L41.957 90.1021L42.5207 90.7796L47.0572 89.8744Z" fill="#167738" stroke="#263238" stroke-width="0.544146" stroke-linejoin="round"/>
</g>
<path d="M47.0563 89.8742L45.3544 88.8552L41.9561 90.1018L42.5197 90.7793L47.0563 89.8742Z" stroke="#263238" stroke-width="0.544146" stroke-linejoin="round"/>
<path d="M70.2812 62.0804C70.2812 62.0804 70.0048 64.5194 70.6932 66.0858C71.3815 67.6522 75.2026 72.9583 75.2026 72.9583L68.0699 78.6764C68.0699 78.6764 65.1106 72.7144 64.5469 71.7497C63.9832 70.7849 63.3057 66.6332 65.1431 63.6576C66.9805 60.682 69.6254 59.8799 70.2812 62.0804Z" fill="white"/>
<mask id="mask2_160_4956" style="mask-type:luminance" maskUnits="userSpaceOnUse" x="63" y="60" width="13" height="19">
<path d="M70.2812 62.0804C70.2812 62.0804 70.0048 64.5194 70.6932 66.0858C71.3815 67.6522 75.2026 72.9583 75.2026 72.9583L68.0699 78.6764C68.0699 78.6764 65.1106 72.7144 64.5469 71.7497C63.9832 70.7849 63.3057 66.6332 65.1431 63.6576C66.9805 60.682 69.6254 59.8799 70.2812 62.0804Z" fill="white"/>
</mask>
<g mask="url(#mask2_160_4956)">
<g opacity="0.5" style="mix-blend-mode:multiply">
<path d="M66.6171 69.918L69.7119 76.3352L68.0642 78.6821L64.9531 73.1266L66.6171 69.918Z" fill="#167738"/>
</g>
</g>
<path d="M70.2812 62.0804C70.2812 62.0804 70.0048 64.5194 70.6932 66.0858C71.3815 67.6522 75.2026 72.9583 75.2026 72.9583L68.0699 78.6764C68.0699 78.6764 65.1106 72.7144 64.5469 71.7497C63.9832 70.7849 63.3057 66.6332 65.1431 63.6576C66.9805 60.682 69.6254 59.8799 70.2812 62.0804Z" stroke="#263238" stroke-width="0.544146" stroke-miterlimit="10"/>
<path d="M72.4927 57.6143C72.0537 54.9043 68.9481 49.3922 64.0213 49.6036C60.8235 49.7445 59.3276 50.3895 57.94 51.1754C56.809 51.8417 55.7548 52.6306 54.7964 53.5276C52.39 56.4165 51.5444 57.2078 52.0106 59.4192C51.9723 60.3012 52.1105 61.182 52.4171 62.0099C53.1542 63.9774 53.6582 65.2619 54.2978 66.1996C54.1027 67.1156 53.5932 69.5329 53.5661 70.0857C53.539 70.6386 55.1921 70.2538 56.0268 70.0424C57.5769 73.5112 60.417 75.9177 61.3004 76.1941C62.8397 76.6765 65.2733 74.1453 66.5633 72.1833C67.8532 70.2212 66.8776 68.0153 66.883 67.1373C66.8885 66.2592 69.7827 64.3297 70.8559 63.7172C71.9291 63.1048 72.9263 60.3189 72.4927 57.6143Z" fill="white"/>
<mask id="mask3_160_4956" style="mask-type:luminance" maskUnits="userSpaceOnUse" x="51" y="49" width="22" height="28">
<path d="M72.4927 57.6143C72.0537 54.9043 68.9481 49.3922 64.0213 49.6036C60.8235 49.7445 59.3276 50.3895 57.94 51.1754C56.809 51.8417 55.7548 52.6306 54.7964 53.5276C52.39 56.4165 51.5444 57.2078 52.0106 59.4192C51.9723 60.3012 52.1105 61.182 52.4171 62.0099C53.1542 63.9774 53.6582 65.2619 54.2978 66.1996C54.1027 67.1156 53.5932 69.5329 53.5661 70.0857C53.539 70.6386 55.1921 70.2538 56.0268 70.0424C57.5769 73.5112 60.417 75.9177 61.3004 76.1941C62.8397 76.6765 65.2733 74.1453 66.5633 72.1833C67.8532 70.2212 66.8776 68.0153 66.883 67.1373C66.8885 66.2592 69.7827 64.3297 70.8559 63.7172C71.9291 63.1048 72.9263 60.3189 72.4927 57.6143Z" fill="white"/>
</mask>
<g mask="url(#mask3_160_4956)">
<g opacity="0.5" style="mix-blend-mode:multiply">
<path d="M52.0318 59.4193C51.9935 60.3014 52.1317 61.1822 52.4383 62.0101C53.1754 63.9776 53.6794 65.2621 54.319 66.1998C54.1239 67.1157 53.6144 69.5331 53.5873 70.0859C53.5602 70.6387 55.2133 70.2539 56.048 70.0425C57.5981 73.5113 60.4382 75.9178 61.3216 76.1942C62.8609 76.6766 65.2945 74.1455 66.5845 72.1834C66.9067 71.6936 67.1159 71.1382 67.1969 70.5574C67.1265 70.3027 67.0777 70.1455 67.0777 70.1455C67.0777 70.1455 66.3514 72.9368 64.9097 72.5737C63.468 72.2105 61.262 69.3217 60.0317 68.3244C58.8013 67.3271 59.3054 66.0155 59.0615 64.5304C58.8176 63.0453 55.1754 61.7391 54.9315 60.8882C54.6876 60.0372 55.5385 56.5142 55.5385 56.5142C55.5385 56.5142 56.9206 54.6714 56.6225 55.4302C56.4118 56.0882 56.3354 56.7817 56.3978 57.4698C56.4601 58.1578 56.66 58.8263 56.9856 59.4356C57.2141 59.9164 57.5765 60.321 58.0294 60.6008C58.4822 60.8806 59.0062 61.0236 59.5385 61.0128L60.8609 54.46L58.0696 52.1511L54.8176 53.5061C52.3895 56.4167 51.5602 57.208 52.0318 59.4193Z" fill="#167738"/>
</g>
</g>
<path d="M72.4927 57.6143C72.0537 54.9043 68.9481 49.3922 64.0213 49.6036C60.8235 49.7445 59.3276 50.3895 57.94 51.1754C56.809 51.8417 55.7548 52.6306 54.7964 53.5276C52.39 56.4165 51.5444 57.2078 52.0106 59.4192C51.9723 60.3012 52.1105 61.182 52.4171 62.0099C53.1542 63.9774 53.6582 65.2619 54.2978 66.1996C54.1027 67.1156 53.5932 69.5329 53.5661 70.0857C53.539 70.6386 55.1921 70.2538 56.0268 70.0424C57.5769 73.5112 60.417 75.9177 61.3004 76.1941C62.8397 76.6765 65.2733 74.1453 66.5633 72.1833C67.8532 70.2212 66.8776 68.0153 66.883 67.1373C66.8885 66.2592 69.7827 64.3297 70.8559 63.7172C71.9291 63.1048 72.9263 60.3189 72.4927 57.6143Z" stroke="#263238" stroke-width="0.542" stroke-miterlimit="10"/>
<path d="M54.9697 64.5627L55.5117 66.1129C55.5117 66.1129 56.677 66.4977 58.0971 64.9476" stroke="#263238" stroke-width="0.542" stroke-miterlimit="10" stroke-linecap="round"/>
<path d="M58.9756 71.8039C58.9756 71.8039 60.2655 71.6738 60.7859 69.8635" stroke="#263238" stroke-width="0.542" stroke-miterlimit="10" stroke-linecap="round"/>
<path d="M54.0645 63.2673C54.0645 63.2673 54.4493 62.1021 56.7745 62.1021" stroke="#263238" stroke-width="0.542" stroke-miterlimit="10" stroke-linecap="round"/>
<path d="M65.9835 47.4465C64.2939 47.2036 62.5901 47.0732 60.8833 47.0563C60.8833 47.0563 55.7776 44.1132 50.8725 47.2514C45.9674 50.3896 48.3251 55.8855 48.3251 57.2567C48.3251 58.628 46.7533 58.6334 47.7344 60.4003C48.7154 62.1672 52.0324 61.1916 52.0324 61.1916C52.0675 60.5252 52.2436 59.8738 52.5491 59.2805C52.8546 58.6872 53.2826 58.1655 53.8048 57.7499C55.5717 56.3787 56.9809 56.0806 57.5662 56.4762C57.5662 56.4762 57.176 59.4193 57.7614 60.5954C57.7614 60.5954 59.7234 61.5765 60.3142 61.5765C60.905 61.5765 59.9294 62.4057 61.886 63.1428C62.2424 63.2709 62.6237 63.3145 62.9999 63.2703C63.3761 63.2261 63.7369 63.0953 64.054 62.8881C64.3412 61.6957 64.97 59.9017 66.1407 60.319C67.8588 60.9315 69.4252 65.1591 67.1 66.6008C69.8967 67.1103 73.2842 62.1618 73.4848 57.6524C73.6853 53.1429 68.8886 47.956 65.9835 47.4465Z" fill="#263238"/>
<path d="M57.6523 54.5412C57.6523 54.5412 59.0941 53.7662 60.861 55.4247C62.6279 57.0832 66.0642 59.3 70.617 58.0805" stroke="white" stroke-width="0.271" stroke-linecap="round" stroke-linejoin="round"/>
<path d="M57.4521 53.2132C57.4521 53.2132 58.444 51.6631 60.1025 51.6631C61.761 51.6631 65.6363 53.9883 68.7312 53.9883" stroke="white" stroke-width="0.271" stroke-linecap="round" stroke-linejoin="round"/>
<path d="M56.3245 56.1999C56.3245 56.1999 54.4437 53.8801 52.6768 55.7609C50.9099 57.6416 52.0318 59.4194 52.0318 59.4194" stroke="white" stroke-width="0.271" stroke-linecap="round" stroke-linejoin="round"/>
<path d="M48.8066 57.7497C49.8844 56.7778 50.5544 55.4339 50.682 53.9882C50.9042 51.5546 54.2266 49.4517 56.3242 51.4462" stroke="white" stroke-width="0.271" stroke-linecap="round" stroke-linejoin="round"/>
<path d="M52.2324 48.899C52.2324 48.899 55.5549 45.6904 58.3191 49.7825" stroke="white" stroke-width="0.271" stroke-linecap="round" stroke-linejoin="round"/>
<path d="M79.2732 206.659C79.2732 206.659 81.3165 209.835 81.0889 211.878L80.8667 213.922C80.8667 213.922 73.3708 215.976 71.7828 215.976C70.1947 215.976 61.7883 215.179 61.7883 215.179L61.4251 213.737C61.3997 213.631 61.4117 213.519 61.4591 213.42C61.5065 213.322 61.5863 213.242 61.6853 213.195L69.1812 209.7L71.5443 207.114L79.2732 206.659Z" fill="white" stroke="#263238" stroke-width="0.544146" stroke-miterlimit="10"/>
<path d="M72.9212 214.377C74.9537 214.534 78.8127 213.293 81.0512 212.502L80.894 213.922C80.894 213.922 73.371 215.976 71.783 215.976C70.1949 215.976 61.7885 215.179 61.7885 215.179L61.5283 214.149C62.8725 214.155 70.2328 214.171 72.9212 214.377Z" fill="#167738" stroke="#263238" stroke-width="0.544146" stroke-miterlimit="10"/>
<path d="M69.192 209.7L58.2815 214.447C58.2815 214.447 57.3493 216.783 58.2815 217.25C59.2138 217.716 79.5388 217.25 79.5388 217.25C79.5388 217.25 80.9425 213.559 78.7258 211.082C76.509 208.605 69.192 209.7 69.192 209.7Z" fill="white" stroke="#263238" stroke-width="0.544146" stroke-miterlimit="10"/>
<path d="M79.5386 217.25C79.5386 217.25 59.2136 217.716 58.2814 217.25C57.8315 217.022 57.8153 216.366 57.9182 215.743H79.8963C79.8245 216.255 79.7048 216.76 79.5386 217.25Z" fill="#167738" stroke="#263238" stroke-width="0.544146" stroke-miterlimit="10"/>
<path d="M64.032 127.202C64.032 127.202 61.1811 139.836 60.1025 147.738C59.0239 155.64 58.3898 171.472 58.6174 173.288C58.845 175.104 70.1945 205.526 70.1945 205.526L71.3273 208.236L79.273 206.648C79.273 206.648 75.6416 195.071 74.2812 188.713C72.9208 182.356 69.9452 171.911 69.9452 170.096C69.9452 168.28 76.9912 133.603 77.4953 131.326C77.9993 129.05 80.2866 125.554 80.2866 125.554L65.0726 125.245L64.032 127.202Z" fill="#167738" stroke="#263238" stroke-width="0.544146" stroke-miterlimit="10"/>
<path d="M64.0322 127.202C64.0322 127.202 62.3629 138.741 63.0512 146.763C63.7395 154.784 65.2192 171.863 65.2192 174.405C65.2192 176.947 69.3221 192.128 69.5552 196.898C69.9183 203.786 69.4089 207.196 69.4089 207.196L69.165 209.694C69.165 209.694 73.9508 210.377 74.9969 210.675C76.2051 210.987 77.4519 211.122 78.6987 211.076C78.6987 211.076 80.4386 203.418 80.4386 196.892C80.4386 190.367 78.9914 176.936 78.2706 171.494C77.5497 166.052 79.8207 145.061 81.1106 141.142C82.4006 137.223 85.219 128.925 83.322 124.687C81.425 120.449 64.0322 127.202 64.0322 127.202Z" fill="#167738" stroke="#263238" stroke-width="0.544146" stroke-miterlimit="10"/>
<path d="M85.4298 122.562L85.2564 127.722C85.2564 127.722 82.167 128.335 78.0044 129.055C74.5681 129.652 65.9395 128.898 63.0344 128.616C62.7696 128.593 62.5249 128.466 62.3533 128.263C62.1818 128.06 62.0974 127.797 62.1184 127.532L62.4002 122.871L85.4298 122.562Z" fill="#263238"/>
<path d="M73.3542 71.1265C73.3542 71.1265 68.4762 76.4001 66.6388 79.6792C64.8014 82.9583 64.0751 87.9827 63.3868 91.9393C62.6985 95.8959 64.5629 105.186 64.0372 109.451L62.3733 122.887C62.3733 122.887 62.0155 123.798 63.2134 124.795C64.4112 125.793 70.2594 126.156 75.5439 126.421C77.4734 126.519 83.2348 125.278 84.1779 125.218C85.3161 125.148 85.3541 123.7 85.4028 122.562C85.6305 117.213 86.5952 102.953 87.2294 96.7414C88.5356 84.0748 81.3866 71.8473 73.3542 71.1265Z" fill="white" stroke="#263238" stroke-width="0.544146" stroke-miterlimit="10"/>
<path d="M86.6331 103.944C86.8499 101.131 87.0667 98.5786 87.2564 96.7413C87.3106 96.1993 87.3431 95.6573 87.3702 95.1153L74.411 97.2833L63.2783 93.4893C63.2795 95.7928 63.4098 98.0945 63.6686 100.383L74.5899 103.44L86.6331 103.944Z" fill="#167738"/>
<path d="M72.8718 71.6577C72.1347 72.4761 70.6713 74.1401 69.2783 75.907L77.5059 84.2701L80.2159 83.1861L72.8718 71.6577Z" fill="#167738"/>
<path d="M73.3547 71.1265C73.3547 71.1265 68.4767 76.4001 66.6393 79.6792C66.0945 80.6758 65.6532 81.7255 65.3223 82.812L75.1325 71.4788C74.5529 71.3032 73.9574 71.1852 73.3547 71.1265Z" fill="#263238"/>
<path d="M63.7666 89.8037L74.4115 93.305L87.3382 91.8199C87.1356 88.5997 86.4202 85.4325 85.219 82.4379L74.7963 86.6167L65.4793 82.3945C64.7175 84.8162 64.1449 87.2934 63.7666 89.8037Z" fill="#167738"/>
<path d="M82.0912 117.213C76.6922 118.119 71.1524 117.667 65.9721 115.896L63.3759 115.007L62.5684 121.511L65.5277 122.34C71.1535 123.913 77.0334 124.366 82.8337 123.673L85.224 123.386C85.3483 123.123 85.4184 122.837 85.4299 122.546C85.495 121.099 85.6088 118.996 85.7551 116.584L82.0912 117.213Z" fill="#167738"/>
<path d="M83.5386 108.356C78.1393 109.266 72.5982 108.812 67.4195 107.034L64.1133 105.901C64.1953 107.082 64.179 108.268 64.0645 109.446L63.6797 112.573L66.975 113.495C72.5987 115.069 78.4768 115.524 84.2757 114.833L85.9017 114.638C86.0372 112.47 86.1944 110.161 86.3624 107.879L83.5386 108.356Z" fill="#167738"/>
<path d="M32.6882 85.4364L43.168 93.8623L43.6197 93.3005L33.1399 84.8746L32.6882 85.4364Z" fill="#263238"/>
<path d="M78.4011 76.9746C78.4011 76.9746 82.2439 79.5925 82.3306 85.7767C82.3685 88.4867 82.0867 91.0178 81.4634 95.4568C80.8401 99.8958 76.9702 114.351 73.9567 116.107C70.9432 117.863 66.2657 114.546 66.2657 114.546L43.6426 99.5272L38.1739 95.1099L35.4639 89.9935L36.3148 88.3675L42.9868 93.4839L39.3934 90.1615L40.098 89.2672L41.3988 90.1723L45.1928 91.5924L46.022 97.0124L47.1927 97.8145L68.8348 105.722C68.8348 105.722 68.5638 94.0747 68.7643 91.8471C68.9649 89.6195 69.2413 84.0206 71.6261 79.961" fill="white"/>
<mask id="mask4_160_4956" style="mask-type:luminance" maskUnits="userSpaceOnUse" x="35" y="76" width="48" height="41">
<path d="M78.4001 76.9746C78.4001 76.9746 82.2429 79.5925 82.3296 85.7767C82.3676 88.4867 82.0857 91.0178 81.4624 95.4568C80.8391 99.8958 76.9692 114.351 73.9557 116.107C70.9422 117.863 66.2648 114.546 66.2648 114.546L43.6417 99.5272L38.1729 95.1099L35.4629 89.9935L36.3138 88.3675L42.9858 93.4839L39.3924 90.1615L40.097 89.2672L41.3978 90.1723L45.1918 91.5924L46.0211 97.0124L47.1918 97.8145L68.8338 105.722C68.8338 105.722 68.5628 94.0747 68.7634 91.8471C68.9639 89.6195 69.2403 84.0206 71.6251 79.961" fill="white"/>
</mask>
<g mask="url(#mask4_160_4956)">
<g opacity="0.5" style="mix-blend-mode:multiply">
<path d="M68.6827 96.9202C68.6827 100.942 68.8182 105.722 68.8182 105.722L47.1978 97.847L46.0271 97.0449L45.1978 91.6249L41.4038 90.2048L40.1084 89.2834L39.4038 90.1777L42.9864 93.4839L36.3144 88.3674L35.5068 89.9663L38.2168 95.0828L43.6856 99.5272L45.0623 100.443L74.9536 110.075L68.6827 96.9202Z" fill="#167738"/>
</g>
</g>
<path d="M78.4011 76.9746C78.4011 76.9746 82.2439 79.5925 82.3306 85.7767C82.3685 88.4867 82.0867 91.0178 81.4634 95.4568C80.8401 99.8958 76.9702 114.351 73.9567 116.107C70.9432 117.863 66.2657 114.546 66.2657 114.546L43.6426 99.5272L38.1739 95.1099L35.4639 89.9935L36.3148 88.3675L42.9868 93.4839L39.3934 90.1615L40.098 89.2672L41.3988 90.1723L45.1928 91.5924L46.022 97.0124L47.1927 97.8145L68.8348 105.722C68.8348 105.722 68.5638 94.0747 68.7643 91.8471C68.9649 89.6195 69.2413 84.0206 71.6261 79.961" stroke="#263238" stroke-width="0.544146" stroke-miterlimit="10"/>
<path d="M68.8345 105.722L77.0945 111.684L79.2354 107.89C79.2354 107.89 80.7151 106.725 80.9319 105.847C81.1487 104.969 80.8723 103.543 81.0945 102.665C81.3167 101.787 82.4224 100.963 82.5254 98.8388C82.6284 96.7142 82.5254 94.9419 82.5254 94.9419C82.5254 94.9419 84.314 87.5869 84.1189 84.3891C83.9237 81.1913 80.8398 75.5383 78.3682 75.4136C75.8967 75.2889 72.6827 75.6629 70.1895 79.4352C67.6963 83.2076 68.2057 94.221 67.8155 94.9093C67.4253 95.5977 67.9673 98.996 67.9673 98.996C67.7507 99.1576 67.5709 99.3634 67.4401 99.5999C67.3093 99.8363 67.2303 100.098 67.2085 100.367C67.1651 101.251 68.119 103.424 68.119 103.424L68.8345 105.722Z" fill="white" stroke="#263238" stroke-width="0.544146" stroke-miterlimit="10"/>
<path d="M68.0322 92.0801C68.0492 93.0259 67.9784 93.9712 67.8208 94.9039C67.4739 95.5218 67.8696 98.3131 67.9563 98.8822C72.6022 100.325 77.5149 100.696 82.3247 99.9662C82.428 99.5892 82.4898 99.2021 82.509 98.8117C82.6174 96.6925 82.509 94.9147 82.509 94.9147C82.509 94.9147 82.6662 94.2589 82.883 93.2616C77.9017 93.5783 72.9007 93.1804 68.0322 92.0801Z" fill="#167738"/>
<path d="M69.8535 80.0369C69.0784 81.5924 68.6448 83.9284 68.3955 86.297C73.3158 88.1748 78.6208 88.8204 83.8479 88.1777C84.0565 86.9242 84.149 85.6542 84.1243 84.3837C84.0305 83.3795 83.7932 82.3938 83.4197 81.4569C78.8556 81.5634 74.2966 81.0862 69.8535 80.0369Z" fill="#167738"/>
<path d="M68.1191 103.484L68.8183 105.722L77.0784 111.684L79.2193 107.89C79.2193 107.89 80.699 106.725 80.9158 105.847C80.9544 105.694 80.978 105.538 80.9862 105.381C76.6334 105.306 72.3085 104.668 68.1191 103.484Z" fill="#263238"/>
<path d="M74.0973 210.605C74.0973 210.605 74.2815 205.911 75.1813 199.049C76.081 192.187 73.9184 182.442 73.5553 180.816C73.1921 179.19 73.7395 175.581 73.3764 174.312C73.0133 173.044 71.2572 167.635 72.2924 161.359C73.3276 155.082 74.1677 138.492 74.1677 138.492C74.1677 138.492 71.5607 136.372 70.7965 133.614C70.0322 130.855 70.6176 129.988 70.6176 129.988" stroke="#263238" stroke-width="0.544146" stroke-miterlimit="10"/>
<path d="M75.3054 130.242L74.3027 135.793" stroke="#263238" stroke-width="0.544146" stroke-miterlimit="10"/>
</svg>
