<svg width="254" height="186" viewBox="0 0 254 186" fill="none" xmlns="http://www.w3.org/2000/svg">
<g clip-path="url(#clip0_34_3954)">
<path opacity="0.1" d="M2.73389 89.1753C6.7447 104.564 15.2281 117.866 28.6345 124.314C56.5047 137.715 119.359 130.804 166.27 122.87C190.536 118.767 211.864 107.443 227.358 91.5066L2.73389 89.1753Z" fill="#010E14"/>
<path opacity="0.1" d="M248.731 16.7407H222.992C221.77 16.7407 220.768 15.8421 220.768 14.7441C220.768 13.6461 221.77 12.7452 222.992 12.7452H227.444C226.22 12.7452 225.22 11.8466 225.22 10.7463C225.22 9.64602 226.22 8.74973 227.444 8.74973H224.266C223.042 8.74973 222.04 7.85114 222.04 6.75083C222.04 5.65053 223.042 4.75424 224.266 4.75424H237.7C234.719 3.50951 231.235 2.62468 227.22 2.15934C190.587 -2.06538 177.508 0.728946 172.895 3.60121C167.144 7.22591 160.756 9.741 154.067 11.0145C131.466 15.2026 89.1985 20.2411 50.889 9.40991C31.8486 4.01611 17.6965 13.1189 9.21533 28.3352H253.201C252.882 23.9133 251.929 19.8284 250.178 16.2547C249.764 16.5725 249.254 16.7435 248.731 16.7407Z" fill="#010E14"/>
<path opacity="0.1" d="M0.55197 57.0555C-0.436659 66.0051 -0.100595 75.0501 1.54948 83.903L227.531 91.3278C233.752 84.9228 239.037 77.6835 243.233 69.8214L0.55197 57.0555ZM89.9306 76.2078H85.4811C86.7049 76.2078 87.707 77.1086 87.707 78.2066C87.707 79.3047 86.7049 80.2033 85.4811 80.2033H59.7421C58.5206 80.2033 57.5185 79.3047 57.5185 78.2066C57.5185 77.1086 58.5206 76.2078 59.7421 76.2078H64.194C62.9702 76.2078 61.9704 75.3092 61.9704 74.2112C61.9704 73.1131 62.9702 72.2123 64.194 72.2123H61.0144C59.7906 72.2123 58.7885 71.3137 58.7885 70.2157C58.7885 69.1177 59.7906 68.2168 61.0144 68.2168H86.7534C87.9772 68.2168 88.977 69.1154 88.977 70.2157C88.977 71.316 87.9772 72.2123 86.7534 72.2123H89.9306C91.1544 72.2123 92.1542 73.1109 92.1542 74.2112C92.1542 75.3115 91.1544 76.2078 89.9306 76.2078Z" fill="#010E14"/>
<path opacity="0.1" d="M253.21 28.4728L6.49284 33.8597C3.49108 40.7893 1.50068 48.6244 0.583984 56.7438H248.888C250.504 51.9935 251.703 47.1133 252.471 42.1578C253.212 37.3876 253.508 32.7731 253.21 28.4728ZM50.6765 46.135H46.227C47.4507 46.135 48.4529 47.0359 48.4529 48.1339C48.4529 49.2319 47.4507 50.1328 46.227 50.1328H20.488C19.2665 50.1328 18.2644 49.2319 18.2644 48.1339C18.2644 47.0359 19.2665 46.135 20.488 46.135H24.9398C23.716 46.135 22.7162 45.2364 22.7162 44.1384C22.7162 43.0404 23.716 42.1395 24.9398 42.1395H21.7603C20.5365 42.1395 19.5343 41.2409 19.5343 40.1429C19.5343 39.0449 20.5365 38.144 21.7603 38.144H47.4992C48.723 38.144 49.7229 39.0426 49.7229 40.1429C49.7229 41.2432 48.723 42.1395 47.4992 42.1395H50.6765C51.9003 42.1395 52.9001 43.0404 52.9001 44.1384C52.9001 45.2364 51.9003 46.135 50.6765 46.135Z" fill="#010E14"/>
<path opacity="0.1" d="M125.862 179.047C182.863 179.047 229.072 174.827 229.072 169.622C229.072 164.416 182.863 160.196 125.862 160.196C68.8605 160.196 22.6519 164.416 22.6519 169.622C22.6519 174.827 68.8605 179.047 125.862 179.047Z" fill="black"/>
<g opacity="0.1">
<path opacity="0.1" d="M228.264 92.8843C228.175 93.0487 228.137 93.235 228.153 93.4207C228.674 92.9095 229.852 93.2098 230.263 92.5519C230.358 92.3893 230.396 92.1995 230.369 92.0132C229.833 92.5175 228.656 92.2172 228.264 92.8843Z" fill="black"/>
<path opacity="0.1" d="M224.871 96.8041C224.828 97.0333 224.784 97.2786 224.728 97.517C226.141 97.9548 227.774 96.8293 228.005 95.4081C227.444 96.5015 226.058 97.2328 224.871 96.8041Z" fill="black"/>
</g>
<path opacity="0.1" d="M197.354 173.745C196.682 173.771 192.863 173.745 192.863 173.745C192.807 173.687 192.755 173.626 192.706 173.562C193.683 173.232 195.793 172.737 197.354 173.745Z" fill="black"/>
<path opacity="0.1" d="M208.278 173.745C207.607 173.771 203.787 173.745 203.787 173.745C203.731 173.687 203.679 173.626 203.63 173.562C204.602 173.232 206.713 172.737 208.278 173.745Z" fill="black"/>
<path d="M187.576 98.5324C188.723 98.5324 189.654 97.9064 189.654 97.1341C189.654 96.3619 188.723 95.7358 187.576 95.7358C186.428 95.7358 185.498 96.3619 185.498 97.1341C185.498 97.9064 186.428 98.5324 187.576 98.5324Z" fill="#575A89"/>
<path d="M119.837 174.969C159.179 174.969 191.072 143.308 191.072 104.252C191.072 65.1955 159.179 33.5342 119.837 33.5342C80.4959 33.5342 48.6033 65.1955 48.6033 104.252C48.6033 143.308 80.4959 174.969 119.837 174.969Z" fill="#49B6E4"/>
<path d="M157.214 139.789C157.214 150.953 139.536 140.743 120.583 140.743C101.63 140.743 82.4607 150.531 82.4607 139.368C82.4607 133.002 88.5704 124.149 97.3356 117.719C103.939 112.873 112.049 109.403 120.195 109.403C128.572 109.403 136.779 113.16 143.325 118.317C151.587 124.821 157.214 133.559 157.214 139.789Z" fill="#444053"/>
<path d="M143.323 118.313C133.248 116.807 115.028 114.971 97.3357 117.715C103.94 112.869 112.049 109.398 120.195 109.398C128.57 109.398 136.777 113.155 143.323 118.313Z" fill="#F6F8FB"/>
<path opacity="0.05" d="M82.4608 54.3323C82.4608 54.3323 61.0028 67.9509 61.1783 89.2533C61.3538 110.556 82.4608 54.3323 82.4608 54.3323Z" fill="black"/>
<path d="M191.044 15.8696C191.044 15.8696 171.602 14.7074 173.895 28.232C173.895 28.232 173.433 30.6206 175.622 31.7071C175.622 31.7071 175.656 30.7054 177.614 31.0447C178.312 31.1606 179.021 31.1944 179.727 31.1455C180.681 31.0812 181.587 30.7093 182.309 30.0865C182.309 30.0865 187.774 27.8469 189.901 18.978C189.901 18.978 191.473 17.0433 191.411 16.5481L188.13 17.9373C188.13 17.9373 189.25 20.2869 188.361 22.2399C188.361 22.2399 188.254 18.0244 187.624 18.1138C187.497 18.1344 185.92 18.9275 185.92 18.9275C185.92 18.9275 187.848 23.0216 186.382 25.9947C186.382 25.9947 186.934 20.9516 185.306 19.2232L182.997 20.562C182.997 20.562 185.25 24.789 183.722 28.2389C183.722 28.2389 184.114 22.9482 182.512 20.8875L180.418 22.5081C180.418 22.5081 182.535 26.6755 181.244 29.5363C181.244 29.5363 181.076 23.3769 179.965 22.9116C179.965 22.9116 178.134 24.5162 177.855 25.1741C177.855 25.1741 179.305 28.1976 178.406 29.7931C178.406 29.7931 177.855 25.6898 177.402 25.6669C177.402 25.6669 175.578 28.3856 175.386 30.2515C175.386 30.2515 175.467 27.4778 176.959 25.4079C176.959 25.4079 175.194 25.7082 174.167 26.8452C174.167 26.8452 174.451 24.9219 177.4 24.7546C177.4 24.7546 178.907 22.6915 179.312 22.5677C179.312 22.5677 176.367 22.3224 174.583 23.1087C174.583 23.1087 176.153 21.2955 179.85 22.1184L181.928 20.445C181.928 20.445 178.053 19.9178 176.409 20.5001C176.409 20.5001 178.3 18.8954 182.484 20.0645L184.735 18.7281C184.735 18.7281 181.431 18.0221 179.462 18.2696C179.462 18.2696 181.54 17.1579 185.394 18.3636L187.01 17.6461C187.01 17.6461 184.588 17.1739 183.879 17.1006C183.17 17.0272 183.133 16.8301 183.133 16.8301C184.671 16.5818 186.249 16.7636 187.689 17.355C187.689 17.355 191.102 16.0828 191.044 15.8696Z" fill="#167738"/>
<path d="M171.103 9.85688C171.103 9.85688 162.328 9.32965 163.354 15.4409C163.354 15.4409 163.148 16.5206 164.134 17.0112C164.134 17.0112 164.148 16.5527 165.035 16.7132C165.35 16.7646 165.67 16.78 165.988 16.759C166.419 16.7285 166.829 16.5604 167.157 16.2799C167.157 16.2799 169.625 15.2667 170.586 11.2598C170.586 11.2598 171.297 10.3864 171.278 10.1618L169.796 10.7898C169.796 10.7898 170.304 11.8512 169.904 12.7337C169.904 12.7337 169.856 10.8288 169.572 10.8747C169.514 10.8747 168.801 11.2414 168.801 11.2414C168.801 11.2414 169.673 13.0913 169.015 14.4346C169.015 14.4346 169.265 12.1561 168.53 11.3744L167.487 11.9796C167.487 11.9796 168.505 13.8913 167.815 15.4501C167.815 15.4501 167.99 13.0592 167.267 12.1285L166.321 12.8598C166.321 12.8598 167.277 14.7418 166.695 16.0346C166.695 16.0346 166.619 13.2518 166.115 13.0409C166.115 13.0409 165.289 13.7653 165.162 14.0633C165.162 14.0633 165.817 15.4386 165.411 16.1515C165.411 16.1515 165.162 14.2971 164.949 14.2902C164.949 14.2902 164.125 15.5166 164.039 16.3533C164.079 15.5746 164.324 14.8199 164.748 14.1641C164.273 14.2534 163.835 14.4789 163.488 14.8128C163.488 14.8128 163.615 13.9441 164.951 13.8684C164.951 13.8684 165.633 12.9377 165.815 12.8804C165.815 12.8804 164.485 12.7704 163.679 13.1257C163.679 13.1257 164.388 12.3051 166.06 12.6672L166.983 11.9131C166.983 11.9131 165.233 11.6838 164.49 11.936C164.49 11.936 165.344 11.2116 167.235 11.7412L168.251 11.136C168.251 11.136 166.759 10.8174 165.868 10.932C165.868 10.932 166.808 10.43 168.549 10.9755L169.276 10.65C169.276 10.65 168.182 10.4368 167.863 10.4047C167.545 10.3726 167.524 10.2832 167.524 10.2832C168.217 10.1688 168.928 10.2481 169.579 10.5125C169.579 10.5125 171.128 9.95315 171.103 9.85688Z" fill="#167738"/>
<path opacity="0.1" d="M247.782 167.341C251.216 167.341 254 166.874 254 166.298C254 165.722 251.216 165.255 247.782 165.255C244.347 165.255 241.563 165.722 241.563 166.298C241.563 166.874 244.347 167.341 247.782 167.341Z" fill="#49B6E4"/>
<path opacity="0.1" d="M10.7993 184.691C14.2336 184.691 17.0176 184.224 17.0176 183.648C17.0176 183.072 14.2336 182.605 10.7993 182.605C7.36507 182.605 4.58105 183.072 4.58105 183.648C4.58105 184.224 7.36507 184.691 10.7993 184.691Z" fill="#49B6E4"/>
<path opacity="0.1" d="M46.8967 186C50.331 186 53.115 185.533 53.115 184.957C53.115 184.381 50.331 183.914 46.8967 183.914C43.4625 183.914 40.6785 184.381 40.6785 184.957C40.6785 185.533 43.4625 186 46.8967 186Z" fill="#49B6E4"/>
<path d="M234.172 179.034C239.3 179.034 243.457 178.336 243.457 177.475C243.457 176.614 239.3 175.916 234.172 175.916C229.044 175.916 224.887 176.614 224.887 177.475C224.887 178.336 229.044 179.034 234.172 179.034Z" fill="#49B6E4"/>
<path d="M238.01 174.928C238.434 174.585 238.743 174.122 238.897 173.601C239.01 173.076 238.783 172.443 238.278 172.251C237.71 172.035 237.102 172.427 236.643 172.822C236.183 173.216 235.655 173.665 235.052 173.583C235.362 173.304 235.594 172.95 235.725 172.556C235.856 172.162 235.882 171.741 235.8 171.334C235.774 171.165 235.702 171.007 235.592 170.875C235.276 170.541 234.706 170.683 234.327 170.946C233.126 171.785 232.791 173.404 232.784 174.862C232.664 174.337 232.766 173.789 232.764 173.257C232.761 172.725 232.611 172.111 232.154 171.829C231.87 171.679 231.552 171.604 231.23 171.614C230.69 171.593 230.09 171.646 229.72 172.038C229.259 172.526 229.381 173.342 229.78 173.871C230.18 174.401 230.785 174.745 231.341 175.114C231.789 175.378 232.171 175.739 232.459 176.171C232.493 176.231 232.52 176.295 232.542 176.361H235.925C236.682 175.979 237.383 175.497 238.01 174.928Z" fill="#167738"/>
<path d="M13.7019 155.707C13.7019 155.707 14.9696 157.353 13.1154 159.833C11.2613 162.314 9.73266 164.418 10.3446 165.968C10.3446 165.968 13.1408 161.351 15.4245 161.284C17.7081 161.218 16.2049 158.483 13.7019 155.707Z" fill="#167738"/>
<path opacity="0.1" d="M13.7019 155.707C13.812 155.866 13.8991 156.04 13.9605 156.223C16.1818 158.813 17.3641 161.232 15.2305 161.291C13.2401 161.349 10.8433 164.879 10.2822 165.77C10.3018 165.84 10.325 165.908 10.3515 165.974C10.3515 165.974 13.1478 161.358 15.4314 161.291C17.7151 161.225 16.2049 158.483 13.7019 155.707Z" fill="black"/>
<path d="M16.0593 157.805C16.0593 158.385 15.9923 158.855 15.9116 158.855C15.8308 158.855 15.7661 158.396 15.7661 157.805C15.7661 157.213 15.8469 157.497 15.93 157.497C16.0131 157.497 16.0593 157.225 16.0593 157.805Z" fill="#FFD037"/>
<path d="M16.8582 158.497C16.3457 158.774 15.9001 158.942 15.8609 158.871C15.8217 158.799 16.2072 158.52 16.7197 158.242C17.2322 157.965 17.029 158.167 17.0683 158.242C17.1075 158.318 17.3799 158.22 16.8582 158.497Z" fill="#FFD037"/>
<path d="M7.00094 155.707C7.00094 155.707 5.73328 157.353 7.58513 159.833C9.43699 162.314 10.9679 164.418 10.356 165.968C10.356 165.968 7.55743 161.351 5.27608 161.284C2.99474 161.218 4.49563 158.483 7.00094 155.707Z" fill="#167738"/>
<path opacity="0.1" d="M7.00112 155.707C6.89002 155.866 6.80289 156.039 6.7425 156.223C4.5212 158.813 3.33666 161.232 5.47253 161.291C7.46062 161.349 9.85972 164.879 10.4185 165.77C10.3997 165.839 10.3773 165.908 10.3515 165.974C10.3515 165.974 7.55298 161.358 5.27164 161.291C2.9903 161.225 4.4958 158.483 7.00112 155.707Z" fill="black"/>
<path d="M4.64355 157.805C4.64355 158.385 4.70819 158.855 4.78899 158.855C4.86979 158.855 4.93443 158.396 4.93443 157.805C4.93443 157.213 4.85363 157.497 4.77283 157.497C4.69203 157.497 4.64355 157.225 4.64355 157.805Z" fill="#FFD037"/>
<path d="M3.83297 158.497C4.34547 158.774 4.79332 158.942 4.83256 158.871C4.87181 158.799 4.48629 158.52 3.97379 158.242C3.4613 157.965 3.66215 158.167 3.62521 158.242C3.58827 158.318 3.32048 158.22 3.83297 158.497Z" fill="#FFD037"/>
<path d="M5.04761 165.759C5.04761 165.759 8.59431 165.651 9.66571 164.895C10.7371 164.138 15.122 163.237 15.3875 164.436C15.6531 165.635 20.7168 170.465 16.7129 170.497C12.709 170.529 7.40976 169.876 6.34298 169.232C5.2762 168.588 5.04761 165.759 5.04761 165.759Z" fill="#A8A8A8"/>
<path opacity="0.2" d="M16.7799 170.087C12.776 170.119 7.47673 169.466 6.40995 168.822C5.59716 168.331 5.27389 166.568 5.16537 165.754H5.04761C5.04761 165.754 5.27851 168.595 6.33837 169.239C7.39822 169.883 12.7044 170.536 16.7083 170.504C17.8628 170.504 18.2623 170.085 18.2415 169.482C18.0799 169.851 17.6412 170.08 16.7799 170.087Z" fill="black"/>
<path d="M94.5116 94.9794C95.867 94.9037 102.247 94.4269 106.299 92.1323C106.95 91.7522 107.685 91.5373 108.44 91.5065C109.728 91.4699 111.211 92.004 110.262 94.9931C108.724 99.8826 99.7947 105.384 94.2529 105.079C88.9237 104.786 82.6015 102.654 78.4267 95.1582C78.0267 94.437 77.8297 93.6222 77.8564 92.7994C77.9049 91.2865 78.4591 89.3907 81.32 91.5042C85.1853 94.3582 92.5189 94.8991 93.9897 94.9794C94.1635 94.9886 94.3377 94.9886 94.5116 94.9794Z" fill="#444053"/>
<path d="M145.773 94.9794C147.128 94.9037 153.508 94.4269 157.56 92.1323C158.211 91.7522 158.946 91.5373 159.701 91.5065C160.989 91.4699 162.472 92.004 161.523 94.9931C159.985 99.8826 151.056 105.384 145.514 105.079C140.185 104.786 133.862 102.654 129.688 95.1582C129.288 94.437 129.091 93.6222 129.117 92.7994C129.166 91.2865 129.72 89.3907 132.581 91.5042C136.446 94.3582 143.78 94.8991 145.251 94.9794C145.425 94.9886 145.599 94.9886 145.773 94.9794Z" fill="#444053"/>
</g>
<defs>
<clipPath id="clip0_34_3954">
<rect width="254" height="186" fill="white"/>
</clipPath>
</defs>
</svg>
