<svg width="335" height="128" viewBox="0 0 335 128" fill="none" xmlns="http://www.w3.org/2000/svg">
<rect width="335" height="128" rx="25" fill="url(#paint0_linear_90_7657)"/>
<path d="M34.4922 81.1797C34.362 80.7891 34.2969 80.3203 34.2969 79.7734C34.2969 79.3047 34.388 78.862 34.5703 78.4453C35.0391 77.4297 35.8073 76.9219 36.875 76.9219C37.8646 76.9479 38.8151 77.5208 39.7266 78.6406C40.013 79.0052 40.2865 79.3438 40.5469 79.6562C44.1927 84.1354 47.6823 86.375 51.0156 86.375C54.2969 86.375 57.1094 85.1901 59.4531 82.8203C61.7448 80.4766 62.8906 77.6901 62.8906 74.4609C62.8646 71.6745 62.1354 69.3047 60.7031 67.3516C59.5573 65.763 57.526 64.1224 54.6094 62.4297C51.5365 60.6328 49.7005 59.526 49.1016 59.1094C47.7474 58.1719 46.6016 57.2083 45.6641 56.2188C43.2943 53.7188 42.1094 50.6328 42.1094 46.9609C42.1094 46.4922 42.1354 45.9974 42.1875 45.4766C42.5521 41.5182 44.1797 38.1849 47.0703 35.4766C50.0391 32.7422 53.5286 31.375 57.5391 31.375C59.2578 31.375 60.9375 31.6484 62.5781 32.1953C65.9896 33.3672 68.6198 35.3984 70.4688 38.2891C70.7812 39.0703 70.9375 39.6432 70.9375 40.0078C70.9375 40.4766 70.8073 40.9453 70.5469 41.4141C69.974 42.3776 69.1536 42.8594 68.0859 42.8594C67.1484 42.8594 66.4844 42.612 66.0938 42.1172C63.4375 38.9141 60.5859 37.2995 57.5391 37.2734C55.1432 37.2734 53.0208 38.1458 51.1719 39.8906C49.1146 41.8438 48.0859 44.2266 48.0859 47.0391C48.0859 48.7839 48.6198 50.3464 49.6875 51.7266C50.651 52.9766 52.5391 54.4479 55.3516 56.1406C58.4245 57.9635 60.7161 59.487 62.2266 60.7109C67.0703 64.6172 69.4922 69.2005 69.4922 74.4609C69.4922 75.6328 69.375 76.8047 69.1406 77.9766C68.2812 82.1172 66.1328 85.5677 62.6953 88.3281C59.2057 91.1406 55.3125 92.5469 51.0156 92.5469C48.2292 92.5469 45.5339 91.8177 42.9297 90.3594C39.3359 88.3021 36.5234 85.2422 34.4922 81.1797ZM78.0859 80.0469C78.0859 79.1615 78.138 78.224 78.2422 77.2344C78.7891 72.7812 80.1953 68.8229 82.4609 65.3594C85.2214 61.1146 88.5417 58.9922 92.4219 58.9922C93.4635 58.9922 94.4661 59.1224 95.4297 59.3828C98.8672 60.3724 100.586 62.7943 100.586 66.6484C100.586 66.9349 100.573 67.2344 100.547 67.5469C100.286 71.0365 98.724 73.9661 95.8594 76.3359C93.0469 78.6797 89.7786 79.8516 86.0547 79.8516C85.3516 79.8516 84.6615 79.7865 83.9844 79.6562C83.9323 80.0469 83.9062 80.5938 83.9062 81.2969C83.9062 82.8073 84.1667 83.9792 84.6875 84.8125C85.3906 85.8802 86.8359 86.5052 89.0234 86.6875C89.987 86.6875 90.9375 86.5833 91.875 86.375C93.5156 85.9844 95.4557 85.0599 97.6953 83.6016C99.1536 82.638 100.182 82.1562 100.781 82.1562C101.12 82.1562 101.471 82.2604 101.836 82.4688C102.669 82.9635 103.086 83.6797 103.086 84.6172C103.086 84.9297 103.021 85.2682 102.891 85.6328C102.188 87.3255 100.078 88.9271 96.5625 90.4375C93.3073 91.8438 90.4427 92.5469 87.9688 92.5469C87.0312 92.5469 86.1589 92.4688 85.3516 92.3125C80.5078 91.3229 78.0859 87.2344 78.0859 80.0469ZM90.625 65.125C88.2552 66.7135 86.3932 69.7344 85.0391 74.1875C85.6901 74.3438 86.3151 74.4219 86.9141 74.4219C89.0755 74.4219 90.9635 73.7578 92.5781 72.4297C94.375 70.9714 95.2734 69.2396 95.2734 67.2344C95.2734 65.2292 94.6354 64.2135 93.3594 64.1875C92.4479 64.2135 91.5365 64.526 90.625 65.125ZM120.078 92C113.802 91.7396 109.154 87.9115 106.133 80.5156C103.893 74.9427 102.773 68.1198 102.773 60.0469C102.773 59.6302 102.799 59.0964 102.852 58.4453C103.216 52.9505 104.232 47.9115 105.898 43.3281C108.607 35.9323 112.435 32.2344 117.383 32.2344C117.643 32.2344 117.917 32.2474 118.203 32.2734C122.708 32.5599 124.961 35.1771 124.961 40.125C124.961 45.5156 122.643 51.5052 118.008 58.0938C115.065 62.2865 111.979 65.6849 108.75 68.2891C109.635 73.237 110.612 76.9479 111.68 79.4219C113.659 84.0052 116.602 86.2969 120.508 86.2969C120.768 86.2969 121.042 86.2708 121.328 86.2188C122.188 86.0625 123.385 85.4375 124.922 84.3438C126.406 83.3281 127.565 82.8203 128.398 82.8203C128.763 82.8203 129.115 82.9375 129.453 83.1719C130.208 83.6927 130.586 84.3958 130.586 85.2812C130.534 86.6354 129.57 88.0286 127.695 89.4609C125.352 91.1536 122.812 92 120.078 92ZM117.422 38.1328C115.885 38.1589 114.531 38.8229 113.359 40.125C110.391 43.4844 108.763 50.5026 108.477 61.1797C110.039 59.5911 111.602 57.7161 113.164 55.5547C117.487 49.6432 119.648 44.6562 119.648 40.5938C119.648 40.3854 119.596 40.138 119.492 39.8516C119.076 38.7057 118.385 38.1328 117.422 38.1328ZM141.484 92C135.208 91.7396 130.56 87.9115 127.539 80.5156C125.299 74.9427 124.18 68.1198 124.18 60.0469C124.18 59.6302 124.206 59.0964 124.258 58.4453C124.622 52.9505 125.638 47.9115 127.305 43.3281C130.013 35.9323 133.841 32.2344 138.789 32.2344C139.049 32.2344 139.323 32.2474 139.609 32.2734C144.115 32.5599 146.367 35.1771 146.367 40.125C146.367 45.5156 144.049 51.5052 139.414 58.0938C136.471 62.2865 133.385 65.6849 130.156 68.2891C131.042 73.237 132.018 76.9479 133.086 79.4219C135.065 84.0052 138.008 86.2969 141.914 86.2969C142.174 86.2969 142.448 86.2708 142.734 86.2188C143.594 86.0625 144.792 85.4375 146.328 84.3438C147.812 83.3281 148.971 82.8203 149.805 82.8203C150.169 82.8203 150.521 82.9375 150.859 83.1719C151.615 83.6927 151.992 84.3958 151.992 85.2812C151.94 86.6354 150.977 88.0286 149.102 89.4609C146.758 91.1536 144.219 92 141.484 92ZM138.828 38.1328C137.292 38.1589 135.938 38.8229 134.766 40.125C131.797 43.4844 130.169 50.5026 129.883 61.1797C131.445 59.5911 133.008 57.7161 134.57 55.5547C138.893 49.6432 141.055 44.6562 141.055 40.5938C141.055 40.3854 141.003 40.138 140.898 39.8516C140.482 38.7057 139.792 38.1328 138.828 38.1328Z" fill="white"/>
<g clip-path="url(#clip0_90_7657)">
<path opacity="0.7" d="M256.09 105.652C256.09 105.652 240.238 106.015 228.948 93.4121C217.659 80.8089 215.863 62.5805 214.021 47.8451C212.178 33.1097 219.92 21.2869 232.501 18.876C245.082 16.4652 249.445 27.5599 264.224 32.8972C279.003 38.2345 283.716 37.425 293.325 49.9172C302.934 62.4094 298.641 82.9996 284.039 94.4798C269.438 105.96 256.09 105.652 256.09 105.652Z" fill="#00FF59"/>
<path d="M233.108 25.4632C220.792 32.1149 206.414 48.848 212.403 71.8036C218.391 94.7591 231.06 110.269 253.102 107.728C275.144 105.187 293.458 91.8326 293.994 63.0677C294.53 34.3029 260.115 10.8765 233.108 25.4632Z" fill="#167738"/>
<path opacity="0.7" d="M233.108 25.4632C220.792 32.1149 206.414 48.848 212.403 71.8036C218.391 94.7591 231.06 110.269 253.102 107.728C275.144 105.187 293.458 91.8326 293.994 63.0677C294.53 34.3029 260.115 10.8765 233.108 25.4632Z" fill="white"/>
<path d="M250.024 105.213L252.132 91.5909C252.213 91.0705 252.7 90.714 253.22 90.7945L261.517 92.079C262.038 92.1595 262.394 92.6467 262.314 93.167L260.205 106.789C260.124 107.309 259.637 107.666 259.117 107.585L250.82 106.301C250.3 106.22 249.943 105.733 250.024 105.213Z" stroke="#263238" stroke-width="0.21" stroke-linecap="round" stroke-linejoin="round"/>
<path d="M254.56 91.0024L252.16 106.509" stroke="#263238" stroke-width="0.21" stroke-linecap="round" stroke-linejoin="round"/>
<path d="M254.881 105.296L255.269 102.792L258.876 103.35L258.488 105.855L254.881 105.296Z" stroke="#263238" stroke-width="0.21" stroke-linecap="round" stroke-linejoin="round"/>
<path d="M255.859 103.808C255.229 104.337 255.649 105.207 257.605 105.003L257.989 105.778L258.48 105.854L258.869 103.35L258.211 103.248L257.844 104.193C257.844 104.193 256.454 103.311 255.859 103.808Z" stroke="#263238" stroke-width="0.21" stroke-linecap="round" stroke-linejoin="round"/>
<path d="M260.27 98.3755C260.27 98.3755 260.285 100.186 259.923 99.667C259.562 99.1483 259.197 99.0706 259.19 99.5116C259.184 99.9526 260.03 100.692 259.514 100.633C258.997 100.574 259.333 100.893 259.367 100.954C259.4 101.015 259.19 101.538 259.251 101.563C259.312 101.588 259.482 101.553 259.22 103.256" stroke="#263238" stroke-width="0.21" stroke-linecap="round" stroke-linejoin="round"/>
<path d="M256.171 92.3169L254.995 99.9105" stroke="#263238" stroke-width="0.21" stroke-linecap="round" stroke-linejoin="round"/>
<path d="M257.031 92.4512L256.338 96.9242" stroke="#263238" stroke-width="0.21" stroke-linecap="round" stroke-linejoin="round"/>
<path d="M258.55 92.6865L257.584 98.9256" stroke="#263238" stroke-width="0.21" stroke-linecap="round" stroke-linejoin="round"/>
<path d="M252.872 94.6226L251.691 102.237" stroke="#263238" stroke-width="0.21" stroke-linecap="round" stroke-linejoin="round"/>
<path d="M247.552 22.1035L244.152 39.1282L272.696 45.0733L276.576 26.9776L247.552 22.1035Z" stroke="#263238" stroke-width="0.21" stroke-linecap="round" stroke-linejoin="round"/>
<path d="M272.505 26.2932L269.235 44.3532" stroke="#263238" stroke-width="0.21" stroke-linecap="round" stroke-linejoin="round"/>
<path d="M266.807 42.2131L268.399 33.5884" stroke="#263238" stroke-width="0.21" stroke-linecap="round" stroke-linejoin="round"/>
<path d="M265.375 40.9341L265.747 38.4141" stroke="#263238" stroke-width="0.21" stroke-linecap="round" stroke-linejoin="round"/>
<path d="M262.46 41.3186L264.875 28.4456" stroke="#263238" stroke-width="0.21" stroke-linecap="round" stroke-linejoin="round"/>
<path d="M260.812 24.3296L257.702 41.9507" stroke="#263238" stroke-width="0.21" stroke-linecap="round" stroke-linejoin="round" stroke-dasharray="0.21 0.42"/>
<path d="M271.771 43.0533L274.014 32.3496" stroke="#263238" stroke-width="0.21" stroke-linecap="round" stroke-linejoin="round"/>
<path d="M270.869 42.7337L271.772 37.7021" stroke="#263238" stroke-width="0.21" stroke-linecap="round" stroke-linejoin="round"/>
<path d="M255.82 40.0123L257.569 31.186" stroke="#263238" stroke-width="0.21" stroke-linecap="round" stroke-linejoin="round"/>
<path d="M253.86 39.3151L254.413 36.5032" stroke="#263238" stroke-width="0.21" stroke-linecap="round" stroke-linejoin="round"/>
<path d="M252.5 39.1494L254.978 26.2932" stroke="#263238" stroke-width="0.21" stroke-linecap="round" stroke-linejoin="round"/>
<path d="M245.876 37.9816L246.595 34.5103" stroke="#263238" stroke-width="0.21" stroke-linecap="round" stroke-linejoin="round"/>
<path d="M248.344 26.2929L248.925 23.2983" stroke="#263238" stroke-width="0.21" stroke-linecap="round" stroke-linejoin="round"/>
<path d="M250.576 24.3882C250.363 24.4506 250.166 24.5579 249.998 24.7028C249.83 24.8477 249.695 25.0268 249.602 25.2282" stroke="#263238" stroke-width="0.21" stroke-linecap="round" stroke-linejoin="round"/>
<path d="M252.5 25.7198C252.456 25.3479 252.28 25.0042 252.004 24.751C251.728 24.4979 251.37 24.3521 250.996 24.3401" stroke="#263238" stroke-width="0.21" stroke-linecap="round" stroke-linejoin="round"/>
<path d="M252.143 26.8873C252.335 26.6741 252.459 26.4088 252.5 26.125" stroke="#263238" stroke-width="0.21" stroke-linecap="round" stroke-linejoin="round"/>
<path d="M249.459 25.8665C249.468 26.1368 249.547 26.4003 249.687 26.6313C249.828 26.8622 250.027 27.0527 250.263 27.1842C250.5 27.3157 250.766 27.3838 251.036 27.3818C251.307 27.3797 251.572 27.3077 251.807 27.1727" stroke="#263238" stroke-width="0.21" stroke-linecap="round" stroke-linejoin="round"/>
<path d="M249.854 28.9284C249.765 28.6491 249.665 28.3719 249.602 28.0884" stroke="#263238" stroke-width="0.21" stroke-linecap="round" stroke-linejoin="round"/>
<path d="M250.055 31.3098C250.62 31.0725 250.106 29.7453 249.988 29.3589" stroke="#263238" stroke-width="0.21" stroke-linecap="round" stroke-linejoin="round"/>
<path d="M248.556 29.0376L249.14 31.5198C249.306 31.4799 249.474 31.4484 249.64 31.4169" stroke="#263238" stroke-width="0.21" stroke-linecap="round" stroke-linejoin="round"/>
<path d="M249.14 27.8093C248.51 28.0739 248.3 27.9689 248.453 28.6283" stroke="#263238" stroke-width="0.21" stroke-linecap="round" stroke-linejoin="round"/>
<path d="M284.649 69.3558L286.865 68.4584L285.348 70.5994C286.365 71.5494 287.012 72.83 287.174 74.2128" stroke="#263238" stroke-width="0.21" stroke-linecap="round" stroke-linejoin="round"/>
<path d="M281.81 68.7189C282.595 68.8956 283.347 69.1944 284.038 69.6043" stroke="#263238" stroke-width="0.21" stroke-linecap="round" stroke-linejoin="round"/>
<path d="M273.396 73.7207C273.783 70.4311 277.179 68.1287 280.981 68.5759" stroke="#263238" stroke-width="0.21" stroke-linecap="round" stroke-linejoin="round"/>
<path d="M274.258 77.3158C274.091 77.0562 273.945 76.7837 273.82 76.501" stroke="#263238" stroke-width="0.21" stroke-linecap="round" stroke-linejoin="round"/>
<path d="M287.163 75.3422C286.776 78.6317 283.379 80.9343 279.578 80.4855C277.854 80.3009 276.247 79.5253 275.03 78.2903" stroke="#263238" stroke-width="0.21" stroke-linecap="round" stroke-linejoin="round"/>
<path d="M283.305 71.9835C282.332 70.7184 280.796 71.402 280.083 72.5371C279.152 71.5762 277.508 71.2169 276.816 72.656C275.649 75.0795 278.759 76.8922 280.212 77.5764C280.376 77.6553 280.511 77.7213 280.624 77.7708C280.726 77.6991 280.845 77.6069 280.99 77.4964C282.271 76.5281 284.944 74.1176 283.305 71.9835Z" stroke="#263238" stroke-width="0.21" stroke-linecap="round" stroke-linejoin="round"/>
<path d="M215.434 58.5056L212.332 57.0254L214.325 60.2302C212.787 61.5063 211.752 63.2867 211.403 65.2545" stroke="#263238" stroke-width="0.21" stroke-linecap="round" stroke-linejoin="round"/>
<path d="M219.561 57.8298C218.42 58.0171 217.315 58.381 216.287 58.9083" stroke="#263238" stroke-width="0.21" stroke-linecap="round" stroke-linejoin="round"/>
<path d="M231.213 65.7347C230.94 60.975 226.264 57.3732 220.767 57.6975" stroke="#263238" stroke-width="0.21" stroke-linecap="round" stroke-linejoin="round"/>
<path d="M229.666 70.8205C229.925 70.4616 230.155 70.0831 230.355 69.6885" stroke="#263238" stroke-width="0.21" stroke-linecap="round" stroke-linejoin="round"/>
<path d="M211.321 66.8777C211.594 71.6332 216.271 75.2308 221.767 74.9149C224.257 74.7973 226.631 73.8221 228.484 72.1546" stroke="#263238" stroke-width="0.21" stroke-linecap="round" stroke-linejoin="round"/>
<path d="M219.18 70.3912C216.69 69.2171 215.624 66.2474 216.798 63.7582C217.973 61.269 220.942 60.2029 223.431 61.377C225.921 62.5511 226.987 65.5208 225.813 68.01C224.638 70.4992 221.669 71.5653 219.18 70.3912Z" stroke="#263238" stroke-width="0.21" stroke-linecap="round" stroke-linejoin="round"/>
<path d="M219.182 66.4173L220.6 67.8982L223.3 63.7479" stroke="#263238" stroke-width="0.21" stroke-linecap="round" stroke-linejoin="round"/>
<path opacity="0.2" d="M268.917 82.5411C268.917 82.5411 274.254 82.1001 275.548 82.738C276.843 83.376 285.688 83.6956 286.8 83.4095C286.8 83.4095 287.318 85.4633 286.582 86.276C285.846 87.0886 286.555 88.3385 285.839 90.3974C285.123 92.4562 269.231 90.9709 269.231 90.9709L263.449 91.0341L260.424 87.6386L268.917 82.5411Z" fill="black" fill-opacity="0.7"/>
<path d="M271.484 85.2787C271.522 85.2658 271.557 85.2452 271.587 85.218C272.002 84.7794 272.462 82.9077 272.794 81.2997C273.071 79.968 273.258 78.8222 273.258 78.8222C273.258 78.8222 265.928 77.9402 265.157 77.9402C264.387 77.9402 251.912 76.5181 251.912 76.5181L251.765 79.9272L251.569 84.4499C251.569 84.4499 251.903 84.4772 252.485 84.523C256.194 84.8216 270.021 85.8473 271.484 85.2787Z" fill="#167738"/>
<mask id="mask0_90_7657" style="mask-type:luminance" maskUnits="userSpaceOnUse" x="251" y="76" width="23" height="10">
<path d="M271.484 85.2787C271.522 85.2658 271.557 85.2452 271.587 85.218C272.002 84.7794 272.462 82.9077 272.794 81.2997C273.071 79.968 273.258 78.8222 273.258 78.8222C273.258 78.8222 265.928 77.9402 265.157 77.9402C264.387 77.9402 251.912 76.5181 251.912 76.5181L251.765 79.9272L251.569 84.4499C251.569 84.4499 251.903 84.4772 252.485 84.523C256.194 84.8216 270.021 85.8473 271.484 85.2787Z" fill="white"/>
</mask>
<g mask="url(#mask0_90_7657)">
<path opacity="0.2" d="M271.484 85.2787L272.298 81.2998L272.606 79.7972C272.206 79.3896 272.199 79.0787 272.199 79.0787L271.077 78.9548L269.243 78.7603L253.102 77.0483C252.845 77.42 252.284 77.6033 252.284 77.6033L252.201 79.895L252.056 83.8653L252.48 84.5206C256.194 84.8216 270.021 85.8473 271.484 85.2787Z" fill="black" fill-opacity="0.7"/>
<path d="M271.484 85.2787L272.298 81.2998L272.606 79.7972C272.206 79.3896 272.199 79.0787 272.199 79.0787L271.077 78.9548L269.243 78.7603L253.102 77.0483C252.845 77.42 252.284 77.6033 252.284 77.6033L252.201 79.895L252.056 83.8653L252.48 84.5206C256.194 84.8216 270.021 85.8473 271.484 85.2787Z" stroke="#263238" stroke-width="0.21" stroke-linecap="round" stroke-linejoin="round"/>
<path d="M266.732 79.2893L266.729 80.6173L267.144 80.6185L267.276 80.2494L267.369 79.3983L266.732 79.2893Z" fill="#00FF59" stroke="#263238" stroke-width="0.21" stroke-linecap="round" stroke-linejoin="round"/>
<path d="M267.587 79.3711L267.554 80.3472L267.673 80.5975L268.224 80.5851L268.236 79.4454L267.587 79.3711Z" fill="#00FF59" stroke="#263238" stroke-width="0.21" stroke-linecap="round" stroke-linejoin="round"/>
<path d="M268.468 79.5272L268.387 80.6421L268.805 80.6297L268.995 80.0908L268.963 79.521L268.468 79.5272Z" fill="#00FF59" stroke="#263238" stroke-width="0.21" stroke-linecap="round" stroke-linejoin="round"/>
<path d="M269.171 79.5941L269.217 80.4947L269.448 80.5765L269.702 80.4452L269.754 79.64L269.361 79.5012L269.171 79.5941Z" fill="#00FF59" stroke="#263238" stroke-width="0.21" stroke-linecap="round" stroke-linejoin="round"/>
<path d="M269.978 80.6323L270.338 80.7561C270.376 80.7759 270.419 80.7862 270.462 80.7862C270.505 80.7862 270.547 80.7759 270.586 80.7561C270.612 80.7331 270.632 80.7037 270.644 80.6707C270.656 80.6378 270.659 80.6023 270.653 80.5678C270.646 80.4985 270.623 80.4303 270.619 80.361C270.611 80.1516 270.783 79.9596 270.743 79.754C270.52 79.6735 270.193 79.4703 270.093 79.7453C270.077 79.7961 270.059 80.662 269.978 80.6323Z" fill="#00FF59" stroke="#263238" stroke-width="0.21" stroke-linecap="round" stroke-linejoin="round"/>
<path d="M270.992 80.6284C271.078 80.6481 271.165 80.6621 271.252 80.6705C271.308 80.6831 271.365 80.6813 271.42 80.6652C271.474 80.6492 271.524 80.6195 271.563 80.5789C271.592 80.526 271.608 80.4669 271.609 80.4067L271.674 79.6907C271.538 79.6802 271.403 79.6782 271.267 79.6845C271.106 79.7266 271.12 79.6969 271.054 79.8492C270.951 80.0908 271.115 80.3807 270.992 80.6284Z" fill="#00FF59" stroke="#263238" stroke-width="0.21" stroke-linecap="round" stroke-linejoin="round"/>
<path d="M253.468 78.0247C253.468 78.0247 256.078 78.2947 256.595 78.3071" stroke="#263238" stroke-width="0.21" stroke-linecap="round" stroke-linejoin="round"/>
<path d="M253.497 78.6067L254.935 78.733" stroke="#263238" stroke-width="0.21" stroke-linecap="round" stroke-linejoin="round"/>
<path d="M252.953 80.6248L254.639 80.7883L254.661 81.0174L252.969 80.9431L252.953 80.6248Z" fill="#00FF59" stroke="#263238" stroke-width="0.21" stroke-linecap="round" stroke-linejoin="round"/>
<path opacity="0.2" d="M271.484 85.2787C271.522 85.2659 271.557 85.2452 271.587 85.218C272.002 84.7795 272.462 82.9077 272.794 81.2998H271.68L271.08 78.9597L270.99 78.6067L269.245 78.7653L262.581 79.371L252.206 79.9L251.765 79.9223L251.569 84.45C251.569 84.45 251.903 84.4772 252.485 84.5231C256.194 84.8216 270.021 85.8473 271.484 85.2787Z" fill="black" fill-opacity="0.7"/>
</g>
<path d="M271.484 85.2787C271.522 85.2658 271.557 85.2452 271.587 85.218C272.002 84.7794 272.462 82.9077 272.794 81.2997C273.071 79.968 273.258 78.8222 273.258 78.8222C273.258 78.8222 265.928 77.9402 265.157 77.9402C264.387 77.9402 251.912 76.5181 251.912 76.5181L251.765 79.9272L251.569 84.4499C251.569 84.4499 251.903 84.4772 252.485 84.523C256.194 84.8216 270.021 85.8473 271.484 85.2787Z" stroke="#263238" stroke-width="0.21" stroke-linecap="round" stroke-linejoin="round"/>
<path d="M288.117 87.6783C287.856 87.7068 284.106 87.2955 283.698 87.2881C282.583 87.2682 281.12 86.9524 281.12 86.9524C279.993 86.5114 277.395 86.1682 275.729 84.9914C274.063 83.8145 272.103 83.8158 270.44 83.6201C268.776 83.4243 268.92 83.4726 267.443 83.5222C266.334 83.5579 265.224 83.5087 264.122 83.3748C263.141 83.2769 261.415 83.0812 260.611 83.3748C259.807 83.6684 259.62 84.4364 260.425 85.2775C261.231 86.1187 264.532 86.4618 264.939 86.4618C265.347 86.4618 266.62 86.4618 267.111 86.7566C267.111 86.7566 266.259 88.4228 266.023 88.4228C265.788 88.4228 263.708 88.3732 263.597 88.6185L260.425 87.6386L259.765 89.4968C260.079 89.8466 260.442 90.1487 260.843 90.3937C261.175 90.6034 261.527 90.779 261.895 90.9177C263.974 91.7018 265.425 92.9616 266.023 93.2218C266.622 93.4819 271.374 93.2218 272.257 93.2218C273.14 93.2218 277.212 92.6519 277.897 92.6668C278.393 92.678 280.236 93.0124 281.649 93.3457C282.194 93.4695 286.144 94.2215 286.457 94.3367L288.117 87.6783Z" fill="white"/>
<path opacity="0.4" d="M263.387 89.145C263.654 89.1326 265.777 89.451 265.777 89.451C266.306 89.6715 268.11 88.4674 268.11 88.4674C268.256 88.2072 269.162 88.0957 269.162 88.0957C268.982 87.2806 267.105 85.4138 267.105 85.4138C267.105 85.4138 267.874 85.1933 269.778 84.9455C271.682 84.6978 276.205 86.2686 279.328 86.9375C282.451 87.6064 283.694 87.2881 283.694 87.2881C282.58 87.2682 281.117 86.9524 281.117 86.9524C279.989 86.5114 277.392 86.1682 275.725 84.9914C274.059 83.8145 272.103 83.8158 270.44 83.6201C268.776 83.4243 268.92 83.4726 267.443 83.5222C266.334 83.5579 265.224 83.5087 264.122 83.3748C263.141 83.2769 261.415 83.0812 260.611 83.3748C259.807 83.6684 259.62 84.4364 260.425 85.2775C261.231 86.1187 264.532 86.4618 264.939 86.4618C265.347 86.4618 266.62 86.4618 267.111 86.7566C267.111 86.7566 266.259 88.4228 266.023 88.4228C265.788 88.4228 263.708 88.3732 263.597 88.6185L260.425 87.6386L259.765 89.4968C260.079 89.8466 260.442 90.1487 260.843 90.3937C262.044 89.7929 263.221 89.1574 263.387 89.145Z" fill="#167738"/>
<path opacity="0.4" d="M278.225 92.269C277.482 92.3508 275.715 92.5948 274.613 92.7497C275.474 92.5601 275.91 92.2542 275.91 92.2542C275.91 92.2542 269.592 92.7819 269.207 92.8339C268.822 92.8859 267.09 93.4186 266.017 93.2229C266.614 93.483 271.367 93.2229 272.251 93.2229C273.134 93.2229 277.206 92.653 277.891 92.6679C278.386 92.679 281.544 93.2105 282.957 93.5437C281.917 92.8277 278.972 92.1873 278.225 92.269Z" fill="#167738"/>
<path d="M286.451 94.3343C285.324 93.9429 278.572 92.6855 277.891 92.6707C277.21 92.6558 273.133 93.2256 272.251 93.2256C271.369 93.2256 266.615 93.4858 266.018 93.2256C265.42 92.9655 263.969 91.7057 261.889 90.9215C261.075 90.6251 260.345 90.1379 259.759 89.5006L260.42 87.6425L263.591 88.6224C263.702 88.3746 265.782 88.4266 266.018 88.4266C266.253 88.4266 267.105 86.7605 267.105 86.7605C266.61 86.4657 265.341 86.4657 264.934 86.4657C264.526 86.4657 261.224 86.1225 260.42 85.2814C259.616 84.4403 259.8 83.671 260.605 83.3786C261.411 83.0863 263.135 83.2808 264.116 83.3786C265.219 83.5127 266.33 83.562 267.441 83.5261C268.918 83.4765 268.771 83.427 270.437 83.6239C272.104 83.8209 274.063 83.8196 275.73 84.9952C277.396 86.1708 279.993 86.5152 281.121 86.9562C281.121 86.9562 287.137 87.7887 288.117 87.6821" stroke="#263238" stroke-width="0.21" stroke-linecap="round" stroke-linejoin="round"/>
<path d="M267.105 86.7566C267.105 86.7566 268.476 87.0502 269.163 87.7117" stroke="#263238" stroke-width="0.21" stroke-linecap="round" stroke-linejoin="round"/>
<path d="M267.73 86.9348C267.73 86.9348 268.11 88.1736 268.133 88.6914" stroke="#263238" stroke-width="0.21" stroke-linecap="round" stroke-linejoin="round"/>
<path d="M266.018 88.4229C266.018 88.4229 265.61 89.3049 265.855 89.8685" stroke="#263238" stroke-width="0.21" stroke-linecap="round" stroke-linejoin="round"/>
<path d="M263.591 88.6184C263.591 88.6184 263.528 89.3047 263.185 89.4509" stroke="#263238" stroke-width="0.21" stroke-linecap="round" stroke-linejoin="round"/>
<path d="M276.079 85.218C276.079 85.218 277.715 86.5361 278.547 86.9275" stroke="#263238" stroke-width="0.21" stroke-linecap="round" stroke-linejoin="round"/>
<path d="M268.917 92.8822C270.217 92.6617 273.77 92.3669 274.406 92.269" stroke="#263238" stroke-width="0.21" stroke-linecap="round" stroke-linejoin="round"/>
<path d="M266.467 93.3034C267.644 93.3406 268.256 93.0557 268.256 93.0557" stroke="#263238" stroke-width="0.21" stroke-linecap="round" stroke-linejoin="round"/>
<path d="M250 83.1715L252.396 92.2542C252.396 92.2542 262.084 89.0619 263.286 88.414L271.732 87.3313C271.732 87.3313 271.477 81.5289 270.67 78.8606C270.67 78.8606 261.875 80.5478 260.702 80.6382C259.529 80.7287 250 83.1715 250 83.1715Z" fill="#167738"/>
<mask id="mask1_90_7657" style="mask-type:luminance" maskUnits="userSpaceOnUse" x="250" y="78" width="22" height="15">
<path d="M250 83.1718L252.396 92.2544C252.396 92.2544 262.084 89.0621 263.286 88.4142L271.732 87.3316C271.732 87.3316 271.477 81.5292 270.67 78.8608C270.67 78.8608 261.875 80.548 260.702 80.6385C259.529 80.7289 250 83.1718 250 83.1718Z" fill="white"/>
</mask>
<g mask="url(#mask1_90_7657)">
<path opacity="0.2" d="M260.181 81.2184L251.623 83.2203C251.623 83.2203 251.195 84.0812 250.805 84.4145L252.656 90.9217C252.656 90.9217 253.294 90.9415 253.703 91.3144L263.166 88.0304L270.141 87.2339C270.141 87.2339 270.225 86.1748 271.008 86.0732C271.008 86.0732 271.194 82.6393 270.587 80.3364C270.587 80.3364 269.741 80.0651 269.206 79.6501L260.181 81.2184Z" fill="black" fill-opacity="0.7"/>
<path d="M260.181 81.2184L251.623 83.2203C251.623 83.2203 251.195 84.0812 250.805 84.4145L252.656 90.9217C252.656 90.9217 253.294 90.9415 253.703 91.3144L263.166 88.0304L270.141 87.2339C270.141 87.2339 270.225 86.1748 271.008 86.0732C271.008 86.0732 271.194 82.6393 270.587 80.3364C270.587 80.3364 269.741 80.0651 269.206 79.6501L260.181 81.2184Z" stroke="#263238" stroke-width="0.21" stroke-linecap="round" stroke-linejoin="round"/>
<path d="M260.626 82.8844C260.626 82.8844 258.396 83.4753 258.797 85.5565C259.197 87.6376 261.944 86.462 261.944 86.462C261.944 86.462 264.162 86.4744 263.856 84.786C263.591 83.3217 262.787 82.5413 260.626 82.8844Z" fill="#00FF59" stroke="#263238" stroke-width="0.21" stroke-linecap="round" stroke-linejoin="round"/>
<path d="M252.437 84.0118C252.437 84.0118 254.985 83.3825 255.475 83.2202" stroke="#263238" stroke-width="0.21" stroke-linecap="round" stroke-linejoin="round"/>
<path d="M252.657 84.5505L254.055 84.1838" stroke="#263238" stroke-width="0.21" stroke-linecap="round" stroke-linejoin="round"/>
<path d="M253.637 89.1452L254.078 90.3976L254.471 90.2601V89.8686L254.275 89.0349L253.637 89.1452Z" fill="#00FF59" stroke="#263238" stroke-width="0.21" stroke-linecap="round" stroke-linejoin="round"/>
<path d="M254.471 88.937L254.764 89.8685L254.96 90.0642L255.475 89.8685L255.107 88.7896L254.471 88.937Z" fill="#00FF59" stroke="#263238" stroke-width="0.21" stroke-linecap="round" stroke-linejoin="round"/>
<path d="M255.353 88.7896L255.65 89.8686L256.039 89.7162V89.1451L255.818 88.6187L255.353 88.7896Z" fill="#00FF59" stroke="#263238" stroke-width="0.21" stroke-linecap="round" stroke-linejoin="round"/>
<path d="M256.039 88.6189L256.382 89.4514H256.626L256.823 89.2432L256.603 88.4678H256.185L256.039 88.6189Z" fill="#00FF59" stroke="#263238" stroke-width="0.21" stroke-linecap="round" stroke-linejoin="round"/>
<path d="M257.145 89.3286H257.527C257.569 89.3351 257.612 89.3316 257.652 89.3185C257.692 89.3053 257.729 89.2829 257.76 89.2531C257.776 89.2223 257.785 89.1878 257.785 89.1527C257.785 89.1177 257.776 89.0832 257.76 89.0524C257.73 88.9892 257.685 88.9285 257.659 88.869C257.581 88.6746 257.679 88.4355 257.575 88.2497C257.338 88.2497 256.963 88.1667 256.956 88.459C256.959 88.5073 257.232 89.3286 257.145 89.3286Z" fill="#00FF59" stroke="#263238" stroke-width="0.21" stroke-linecap="round" stroke-linejoin="round"/>
<path d="M258.1 88.9854C258.188 88.9761 258.274 88.9604 258.359 88.9384C258.469 88.9111 258.592 88.8579 258.622 88.7476C258.632 88.6882 258.627 88.6273 258.607 88.5705L258.424 87.8743C258.293 87.9079 258.165 87.9493 258.04 87.9981C257.902 88.0923 257.905 88.0601 257.893 88.2248C257.882 88.4924 258.134 88.7104 258.1 88.9854Z" fill="#00FF59" stroke="#263238" stroke-width="0.21" stroke-linecap="round" stroke-linejoin="round"/>
<path d="M252.83 86.6343L254.471 86.2168L254.569 86.4249L252.951 86.9279L252.83 86.6343Z" fill="#00FF59" stroke="#263238" stroke-width="0.21" stroke-linecap="round" stroke-linejoin="round"/>
<path d="M263.852 81.4029L264.185 82.6888L264.586 82.5847L264.621 82.1945L264.496 81.3472L263.852 81.4029Z" fill="#00FF59" stroke="#263238" stroke-width="0.21" stroke-linecap="round" stroke-linejoin="round"/>
<path d="M264.7 81.2667L264.913 82.2193L265.092 82.4324L265.622 82.2813L265.347 81.175L264.7 81.2667Z" fill="#00FF59" stroke="#263238" stroke-width="0.21" stroke-linecap="round" stroke-linejoin="round"/>
<path d="M265.592 81.196L265.795 82.296L266.196 82.1771L266.245 81.6085L266.07 81.0647L265.592 81.196Z" fill="#00FF59" stroke="#263238" stroke-width="0.21" stroke-linecap="round" stroke-linejoin="round"/>
<path d="M266.29 81.0833L266.561 81.943L266.805 81.9641L267.018 81.7733L266.864 80.9817L266.449 80.9458L266.29 81.0833Z" fill="#00FF59" stroke="#263238" stroke-width="0.21" stroke-linecap="round" stroke-linejoin="round"/>
<path d="M267.331 81.8849L267.712 81.9183C267.753 81.9285 267.796 81.9287 267.838 81.919C267.88 81.9093 267.918 81.89 267.951 81.8626C267.97 81.8334 267.982 81.7998 267.985 81.7649C267.987 81.73 267.981 81.695 267.967 81.6631C267.943 81.5975 267.904 81.5392 267.884 81.4711C267.822 81.2717 267.94 81.0412 267.852 80.8517C267.616 80.8294 267.25 80.7167 267.221 81.0066C267.219 81.0512 267.418 81.8923 267.331 81.8849Z" fill="#00FF59" stroke="#263238" stroke-width="0.21" stroke-linecap="round" stroke-linejoin="round"/>
<path d="M268.312 81.6258C268.403 81.6241 268.492 81.6158 268.581 81.6011C268.693 81.5825 268.82 81.5404 268.859 81.4338C268.874 81.3753 268.874 81.314 268.859 81.2555L268.735 80.5469C268.602 80.5707 268.47 80.6026 268.341 80.6423C268.196 80.724 268.201 80.6918 268.176 80.8553C268.138 81.1155 268.369 81.3533 268.312 81.6258Z" fill="#00FF59" stroke="#263238" stroke-width="0.21" stroke-linecap="round" stroke-linejoin="round"/>
<path d="M269.515 86.7571C269.515 86.7571 266.228 87.0519 265.897 87.0519" stroke="#263238" stroke-width="0.21" stroke-linecap="round" stroke-linejoin="round"/>
<path d="M269.368 86.1685C269.368 86.1685 267.659 86.2923 267.361 86.3146" stroke="#263238" stroke-width="0.21" stroke-linecap="round" stroke-linejoin="round"/>
<path d="M268.133 83.8705L270.079 83.4729V83.8705L268.133 84.1592V83.8705Z" fill="#00FF59" stroke="#263238" stroke-width="0.21" stroke-linecap="round" stroke-linejoin="round"/>
<path opacity="0.2" d="M263.237 88.4354C263.058 87.5757 262.794 86.8089 262.414 86.2415C262.414 86.2415 263.595 86.6528 265.61 88.1109L271.732 87.3267C271.732 87.3267 271.566 83.5398 271.076 80.6782C268.599 81.5578 263.904 83.1558 262.974 82.9662C261.696 82.7098 260.189 83.6154 260.189 83.6154C259.673 86.4782 257.509 89.2542 255.68 91.1595C258.547 90.1895 262.388 88.8653 263.237 88.4354Z" fill="black" fill-opacity="0.7"/>
</g>
<path d="M250 83.1715L252.396 92.2542C252.396 92.2542 262.084 89.0619 263.286 88.414L271.732 87.3313C271.732 87.3313 271.477 81.5289 270.67 78.8606C270.67 78.8606 261.875 80.5478 260.702 80.6382C259.529 80.7287 250 83.1715 250 83.1715Z" stroke="#263238" stroke-width="0.21" stroke-linecap="round" stroke-linejoin="round"/>
<path d="M269.286 88.2072L278.548 86.9276C277.942 86.6427 276.909 85.866 276.392 85.4646C276.199 85.3159 276.079 85.2168 276.079 85.2168L275.729 84.9901C274.063 83.8145 272.103 83.8146 270.437 83.6188C268.771 83.4231 268.917 83.4714 267.441 83.521C266.332 83.557 265.223 83.5081 264.122 83.3748C263.141 83.2769 261.415 83.0812 260.611 83.3748C260.217 83.5185 259.972 83.7774 259.92 84.1019C259.868 84.4265 260.017 84.8452 260.426 85.2775C261.23 86.1187 264.532 86.4618 264.94 86.4618C265.347 86.4618 266.621 86.4618 267.111 86.7566C267.105 86.7566 268.6 87.547 269.286 88.2072Z" fill="white"/>
<path opacity="0.4" d="M275.069 84.8935C275.411 85.1611 275.904 85.3432 276.392 85.4646C276.199 85.3159 276.078 85.2168 276.078 85.2168L275.729 84.9901C274.063 83.8145 272.103 83.8146 270.437 83.6188C268.771 83.4231 268.917 83.4714 267.441 83.521C266.332 83.557 265.223 83.5081 264.122 83.3748C263.141 83.2769 261.415 83.0812 260.611 83.3748C260.217 83.5185 259.972 83.7774 259.92 84.1019C260.096 84.7213 260.726 85.3407 261.805 85.5563C263.616 85.9279 262.153 84.2518 263.688 83.8641C265.223 83.4764 265.637 84.04 266.023 84.2717C266.41 84.5033 267.262 84.2072 268.407 83.8641C269.551 83.521 274.129 84.1589 275.069 84.8935Z" fill="#167738"/>
<path d="M269.286 88.2072C268.6 87.5457 267.105 86.7566 267.105 86.7566C266.609 86.4618 265.341 86.4618 264.933 86.4618C264.526 86.4618 261.223 86.1186 260.419 85.2775C259.615 84.4364 259.8 83.6671 260.605 83.3747C261.41 83.0824 263.135 83.2769 264.116 83.3747C265.219 83.5088 266.33 83.5581 267.441 83.5222C268.917 83.4726 268.771 83.423 270.437 83.62C272.103 83.817 274.063 83.8157 275.729 84.9913L276.079 85.218C276.079 85.218 277.715 86.5361 278.548 86.9275" stroke="#263238" stroke-width="0.21" stroke-linecap="round" stroke-linejoin="round"/>
<path d="M265.367 83.8704C265.367 83.8704 264.786 84.9939 264.836 85.5563" stroke="#263238" stroke-width="0.21" stroke-linecap="round" stroke-linejoin="round"/>
<path opacity="0.2" d="M235.238 60.5105C235.238 60.5105 227.661 55.1859 227.191 54.8127C226.72 54.4396 219.425 55.0284 216.084 54.2547C212.744 53.4809 193.92 55.2633 193.92 55.2633C193.92 55.2633 192.396 54.3193 192.747 51.0752C193.098 47.8312 191.324 44.9164 192.908 41.1484C194.493 37.3805 224.311 40.5655 224.311 40.5655L247.224 44.72L235.238 60.5105Z" fill="black" fill-opacity="0.7"/>
<path d="M235.82 64.7479C235.82 64.7479 253.157 59.7632 255.138 56.5829C256.275 54.7473 256.569 52.0711 256.199 49.7762C255.931 48.1141 255.32 46.648 254.446 45.8495C252.367 43.9467 251.034 41.0805 249.676 39.7409C248.319 38.4013 244.163 38.9167 240.526 38.3989C236.889 37.8811 236.61 36.5075 233.056 36.6302C229.502 36.7529 218.584 36.8196 215.307 34.8781C212.031 32.9366 209.684 33.1761 206.526 32.5982C203.369 32.0203 191.501 26.3857 191.501 26.3857L190.143 43.9183C190.143 43.9183 197.309 44.7268 203.208 45.8144C206.008 46.3305 208.525 46.9093 209.851 47.4925C212.414 48.6102 215.061 49.525 217.768 50.2282C220.035 51.9078 224.654 52.4037 228.623 52.2317L231.749 56.4895C233.152 59.8885 235.82 64.7479 235.82 64.7479Z" fill="white"/>
<path opacity="0.4" d="M235.82 64.748C235.82 64.748 253.157 59.7632 255.137 56.5829C256.275 54.7473 256.569 52.0711 256.199 49.7762C254.167 44.4786 250.935 43.3904 250.104 42.7424C248.998 41.88 242.847 41.3354 239.451 42.4831C236.056 43.6308 234.702 43.2808 232.926 42.9071C228.994 42.079 227.46 46.3 226.084 46.8882C224.709 47.4764 216.71 48.3368 213.89 46.8769C212.39 46.1021 204.964 44.5522 203.213 45.8164C206.013 46.3325 208.531 46.9113 209.857 47.4946C212.42 48.6123 215.067 49.527 217.773 50.2302C220.04 51.9098 224.659 52.4058 228.628 52.2338L231.755 56.4915C233.151 59.8885 235.82 64.748 235.82 64.748Z" fill="#167738"/>
<path d="M231.96 44.0291C231.96 44.0291 232.973 42.9229 232.866 42.072" stroke="#263238" stroke-width="0.21" stroke-linecap="round" stroke-linejoin="round"/>
<path d="M236.054 45.6467C236.054 45.6467 238.127 44.3338 238.41 42.6163" stroke="#263238" stroke-width="0.21" stroke-linecap="round" stroke-linejoin="round"/>
<path d="M248.733 42.1865C248.733 42.1865 248.014 44.6589 246.356 45.2441" stroke="#263238" stroke-width="0.21" stroke-linecap="round" stroke-linejoin="round"/>
<path d="M231.753 56.495C231.753 56.495 232.425 55.8145 233.026 55.7392" stroke="#263238" stroke-width="0.21" stroke-linecap="round" stroke-linejoin="round"/>
<path d="M190.144 43.9291C190.144 43.9291 205.728 45.69 209.863 47.5019C212.426 48.6197 215.073 49.5344 217.78 50.2376C220.047 51.9172 224.669 52.4128 228.638 52.2408L231.764 56.4986C233.163 59.8925 235.828 64.7415 235.828 64.7415C235.828 64.7415 253.164 59.7568 255.145 56.5765C257.126 53.3961 256.52 47.7749 254.441 45.8475C252.361 43.9201 251.028 41.0785 249.671 39.7389C248.313 38.3993 244.157 38.9147 240.52 38.3969C236.883 37.8791 236.605 36.5054 233.051 36.6282C229.497 36.7509 218.578 36.8176 215.302 34.8761C212.025 32.9346 209.678 33.174 206.521 32.5961C203.363 32.0182 191.501 26.3857 191.501 26.3857" stroke="#263238" stroke-width="0.21" stroke-linecap="round" stroke-linejoin="round"/>
<path d="M235.485 71.3681L275.46 37.6416L277.039 44.2212L280.423 64.3896L241.975 71.3177L235.485 71.3681Z" fill="#263238" stroke="#263238" stroke-width="0.21" stroke-linecap="round" stroke-linejoin="round"/>
<path d="M235.482 71.3683L279.518 63.1955L275.459 37.6415L241.719 43.9275L231.242 45.8807L233.094 57.0048L235.482 71.3683Z" fill="#757575"/>
<mask id="mask2_90_7657" style="mask-type:luminance" maskUnits="userSpaceOnUse" x="231" y="37" width="49" height="35">
<path d="M235.482 71.3683L279.518 63.1955L275.459 37.6415L241.719 43.9275L231.242 45.8807L233.094 57.0048L235.482 71.3683Z" fill="white"/>
</mask>
<g mask="url(#mask2_90_7657)">
<path d="M273.928 59.9958C274.145 61.721 272.921 63.2948 271.196 63.511C269.471 63.7273 267.897 62.5041 267.681 60.7789C267.465 59.0538 268.688 57.48 270.413 57.2637C272.138 57.0475 273.712 58.2707 273.928 59.9958Z" fill="#BFBFBF" stroke="white" stroke-width="0.21" stroke-miterlimit="10"/>
<path d="M268.621 59.7671L269.164 61.8489" stroke="white" stroke-width="0.21" stroke-linecap="round" stroke-linejoin="round"/>
<path d="M269.064 59.1345L269.773 62.2759" stroke="white" stroke-width="0.21" stroke-linecap="round" stroke-linejoin="round"/>
<path d="M272.154 58.3884L272.863 61.5325" stroke="white" stroke-width="0.21" stroke-linecap="round" stroke-linejoin="round"/>
<path d="M269.903 60.085C269.935 60.1697 269.934 60.2637 269.899 60.3476C269.864 60.4314 269.799 60.4986 269.716 60.5351L269.769 60.7691L271.988 60.2476L271.906 59.8995L270.214 60.2976L270.15 60.0321L269.903 60.085Z" fill="white"/>
<path d="M270.144 61.25C270.162 61.39 270.275 61.4415 270.421 61.4068L270.448 61.4034L270.417 61.2678L270.393 61.2708C270.329 61.2789 270.297 61.2665 270.286 61.2214C270.275 61.1763 270.295 61.1436 270.359 61.1301C270.423 61.1166 270.482 61.1311 270.585 61.2058C270.627 61.2449 270.678 61.2733 270.734 61.2887C270.79 61.3041 270.848 61.3059 270.905 61.2942C271.051 61.2595 271.116 61.1692 271.082 61.0286C271.048 60.8879 270.949 60.8374 270.805 60.8691L270.749 60.8762L270.779 61.0091L270.846 61.0007C270.911 60.9926 270.94 61.0081 270.951 61.0532C270.962 61.0983 270.945 61.1333 270.881 61.1468C270.817 61.1603 270.758 61.1458 270.655 61.0711C270.613 61.032 270.562 61.0036 270.506 60.9882C270.45 60.9728 270.392 60.9709 270.335 60.9827C270.176 61.0218 270.1 61.1161 270.144 61.25Z" fill="white"/>
<path d="M270.214 61.4983L270.316 61.9396L270.446 61.9069L270.411 61.7581L271.187 61.5761L271.155 61.4351L270.377 61.6174L270.342 61.4687L270.214 61.4983Z" fill="white"/>
<path d="M235.821 58.1202L234.1 53.248C234.056 53.1222 234.122 52.9842 234.248 52.9398L237.285 51.8669C237.411 51.8225 237.549 51.8884 237.593 52.0142L239.314 56.8864C239.359 57.0122 239.293 57.1502 239.167 57.1946L236.13 58.2675C236.004 58.3119 235.866 58.246 235.821 58.1202Z" fill="white" stroke="white" stroke-width="0.21" stroke-linecap="round" stroke-linejoin="round"/>
<path d="M237.29 53.7411L237.269 53.7247C237.269 53.7247 237.237 53.7287 237.221 53.7169C237.208 53.7056 237.192 53.6974 237.175 53.6927C237.169 53.6922 237.164 53.6929 237.158 53.6947C237.158 53.6947 237.16 53.7082 237.142 53.7186C237.139 53.7258 237.134 53.7321 237.128 53.7371C237.122 53.7421 237.115 53.7457 237.108 53.7476C237.103 53.7471 237.098 53.7477 237.094 53.7493L237.096 53.7655C237.045 53.7719 237.003 53.7443 236.959 53.717C236.852 53.6511 236.802 53.641 236.739 53.6653C236.676 53.6895 236.661 53.7188 236.675 53.7636C236.689 53.8083 236.723 53.8231 236.786 53.8016L236.824 53.7968L236.87 53.9278L236.841 53.9315C236.795 53.9557 236.743 53.9615 236.693 53.9479C236.643 53.9343 236.601 53.9022 236.574 53.8582L236.512 53.8825L236.47 53.77L236.536 53.7481C236.523 53.6431 236.582 53.5674 236.7 53.5252C236.752 53.5082 236.809 53.5049 236.863 53.5158C236.918 53.5267 236.969 53.5513 237.011 53.5874C237.115 53.6537 237.171 53.6631 237.231 53.6392C237.291 53.6153 237.308 53.5829 237.292 53.5385C237.275 53.4941 237.243 53.4762 237.183 53.4975L237.112 53.5227L237.066 53.3918L237.128 53.3841C237.151 53.3699 237.177 53.3604 237.203 53.3563C237.23 53.3522 237.258 53.3536 237.284 53.3602C237.31 53.3668 237.335 53.3787 237.357 53.395C237.378 53.4113 237.396 53.4319 237.41 53.4553L237.475 53.4472L237.516 53.5596L237.451 53.5815L237.459 53.6516C237.455 53.6737 237.445 53.6945 237.431 53.7125C237.417 53.731 237.4 53.747 237.38 53.76C237.306 53.7391 237.298 53.7401 237.29 53.7411Z" fill="white"/>
<path d="M237.34 54.4871C237.318 54.4886 237.297 54.4858 237.276 54.4787C237.265 54.4774 237.254 54.4788 237.244 54.4828C237.236 54.4879 237.23 54.4954 237.227 54.504C237.172 54.5848 237.075 54.5067 237.05 54.4388C237.041 54.4153 237.038 54.3899 237.041 54.3651C237.045 54.3402 237.055 54.3166 237.07 54.2967L236.867 54.3796L236.952 54.6206L236.826 54.6637L236.699 54.3022C236.716 54.2921 236.734 54.2843 236.753 54.279C236.772 54.2766 236.781 54.3002 236.802 54.2975C236.824 54.2948 236.821 54.2951 236.832 54.2938C236.848 54.2967 236.863 54.3056 236.873 54.3186C236.875 54.3321 236.901 54.3425 236.917 54.3378C236.922 54.339 236.928 54.3383 236.933 54.3358C236.956 54.3225 236.975 54.3019 236.986 54.2772C236.986 54.2664 236.991 54.2561 236.998 54.2483L237.015 54.2462C237.033 54.2439 237.041 54.221 237.05 54.2035C237.059 54.186 237.14 54.1348 237.197 54.1112L237.244 54.2421L237.217 54.2455C237.154 54.2671 237.142 54.3041 237.156 54.3462C237.169 54.3882 237.205 54.4111 237.267 54.3869L237.461 54.3188C237.523 54.311 237.536 54.2629 237.52 54.2185C237.503 54.174 237.474 54.1559 237.411 54.1774L237.33 54.2067L237.283 54.0758L237.356 54.0502C237.384 54.0361 237.415 54.0281 237.446 54.0268C237.477 54.0255 237.509 54.0308 237.538 54.0425C237.567 54.0542 237.593 54.0719 237.614 54.0945C237.636 54.1171 237.653 54.144 237.663 54.1735C237.673 54.203 237.677 54.2344 237.675 54.2656C237.672 54.2967 237.662 54.3269 237.647 54.3542C237.632 54.3814 237.611 54.4051 237.586 54.4236C237.56 54.4421 237.532 54.455 237.501 54.4615C237.449 54.4777 237.395 54.4864 237.34 54.4871Z" fill="white"/>
<path d="M237.937 56.1984C237.916 56.1985 237.894 56.1957 237.873 56.19C237.862 56.1887 237.851 56.1901 237.841 56.194C237.833 56.1992 237.828 56.2066 237.825 56.2152C237.769 56.2933 237.671 56.2153 237.647 56.15C237.638 56.1265 237.635 56.1012 237.639 56.0763C237.642 56.0514 237.652 56.0279 237.667 56.0079L237.464 56.0908L237.549 56.3318L237.423 56.3749L237.296 56.0134C237.313 56.0022 237.331 55.9943 237.351 55.9902C237.369 55.9878 237.378 56.0087 237.399 56.0087C237.421 56.0087 237.418 56.0063 237.429 56.005C237.445 56.0079 237.46 56.0168 237.47 56.0299C237.472 56.0433 237.498 56.0538 237.514 56.0491C237.53 56.0443 237.514 56.0491 237.53 56.047C237.554 56.0335 237.573 56.0118 237.583 55.9857C237.584 55.9759 237.589 55.9667 237.596 55.9595C237.596 55.9595 237.596 55.9595 237.612 55.9575C237.628 55.9554 237.639 55.9349 237.648 55.9174C237.657 55.8999 237.738 55.8487 237.795 55.8251L237.841 55.956L237.814 55.9594C237.751 55.981 237.74 56.018 237.753 56.0601C237.767 56.1022 237.802 56.1223 237.865 56.1008L238.059 56.0327C238.121 56.0249 238.134 55.9768 238.117 55.9324C238.101 55.888 238.071 55.8698 238.008 55.8914L237.927 55.9207L237.881 55.7897L237.954 55.7641C237.981 55.7524 238.011 55.7465 238.04 55.7466C238.07 55.7468 238.1 55.753 238.127 55.7649C238.154 55.7769 238.178 55.7943 238.199 55.816C238.219 55.8378 238.234 55.8635 238.244 55.8915C238.254 55.9195 238.258 55.9492 238.256 55.9788C238.254 56.0085 238.246 56.0374 238.232 56.0637C238.218 56.0901 238.2 56.1134 238.177 56.1321C238.153 56.1509 238.127 56.1647 238.098 56.1727C238.046 56.1902 237.992 56.1988 237.937 56.1984Z" fill="white"/>
<path d="M237.111 54.8276C237.048 54.8492 237.034 54.8865 237.05 54.9283C237.054 54.9418 237.062 54.9537 237.073 54.9618C237.085 54.9698 237.099 54.9736 237.113 54.9723L237.119 55.0181C237.127 55.0187 237.134 55.021 237.142 55.0248C237.149 55.0286 237.155 55.0339 237.16 55.0403C237.175 55.0548 237.186 55.0753 237.202 55.0925C237.175 55.1049 237.145 55.1114 237.115 55.1116C237.085 55.1118 237.056 55.1057 237.028 55.0936C237.001 55.0815 236.977 55.0638 236.957 55.0416C236.936 55.0193 236.921 54.9931 236.912 54.9647C236.899 54.9362 236.892 54.905 236.892 54.8735C236.892 54.8419 236.9 54.8108 236.914 54.7827C236.928 54.7545 236.948 54.7299 236.974 54.7108C236.999 54.6918 237.028 54.6788 237.059 54.6728C237.076 54.6694 237.093 54.6672 237.11 54.6664C237.153 54.661 237.14 54.6626 237.161 54.7037C237.183 54.7448 237.206 54.7555 237.215 54.7161L237.218 54.7404C237.218 54.7404 237.237 54.738 237.245 54.737C237.253 54.736 237.258 54.7353 237.267 54.7205C237.275 54.7221 237.282 54.7211 237.289 54.7178C237.289 54.7178 237.321 54.6919 237.326 54.6858C237.338 54.6763 237.348 54.6638 237.354 54.6494C237.371 54.6117 237.348 54.5983 237.4 54.5808C237.453 54.5632 237.458 54.5599 237.484 54.5511C237.512 54.5371 237.543 54.5292 237.575 54.5279C237.606 54.5267 237.637 54.5322 237.667 54.5439C237.696 54.5557 237.722 54.5736 237.744 54.5963C237.766 54.619 237.782 54.6461 237.793 54.6758C237.803 54.7055 237.808 54.737 237.805 54.7684C237.802 54.7998 237.793 54.8303 237.778 54.8578C237.763 54.8854 237.742 54.9094 237.717 54.9283C237.692 54.9472 237.663 54.9606 237.632 54.9674L237.449 55.0342L237.447 55.018C237.428 54.9879 237.407 54.9594 237.384 54.9329L237.36 54.9113L237.595 54.8271C237.66 54.819 237.673 54.7682 237.656 54.7264C237.64 54.6847 237.608 54.6642 237.545 54.6857L237.188 54.8097C237.165 54.8108 237.143 54.8193 237.126 54.834L237.111 54.8276Z" fill="white"/>
<path d="M237.639 55.4341L237.641 55.4476C237.627 55.4493 237.614 55.451 237.595 55.4533L237.602 55.5126L237.401 55.5844C237.372 55.5984 237.342 55.6063 237.31 55.6075C237.279 55.6088 237.247 55.6033 237.218 55.5915C237.189 55.5797 237.163 55.5619 237.141 55.5392C237.119 55.5164 237.102 55.4893 237.092 55.4597C237.081 55.43 237.077 55.3984 237.08 55.367C237.082 55.3357 237.091 55.3052 237.107 55.2776C237.122 55.25 237.143 55.226 237.168 55.2071C237.193 55.1882 237.222 55.1749 237.253 55.168L237.29 55.1633C237.309 55.1801 237.337 55.1875 237.353 55.2047C237.369 55.2218 237.359 55.2531 237.404 55.2393C237.449 55.2255 237.44 55.2184 237.455 55.2329C237.47 55.2474 237.457 55.2518 237.477 55.2521C237.481 55.2548 237.487 55.256 237.492 55.2553C237.497 55.2546 237.502 55.2522 237.506 55.2484C237.506 55.2484 237.504 55.2295 237.528 55.2238C237.552 55.2181 237.568 55.2187 237.571 55.2019C237.575 55.1851 237.533 55.1548 237.532 55.1248C237.533 55.1138 237.538 55.1035 237.545 55.0949C237.552 55.0863 237.562 55.0798 237.572 55.076C237.616 55.0565 237.662 55.0408 237.708 55.0288C237.736 55.0154 237.766 55.0082 237.796 55.0077C237.826 55.0072 237.856 55.0134 237.884 55.0259C237.912 55.0383 237.936 55.0568 237.956 55.0798C237.976 55.1029 237.99 55.1301 237.998 55.1593C238.01 55.1889 238.016 55.2208 238.014 55.2527C238.012 55.2845 238.004 55.3157 237.989 55.3438C237.971 55.3702 237.949 55.3934 237.923 55.4122C237.911 55.426 237.894 55.4349 237.876 55.4372C237.858 55.4395 237.839 55.435 237.824 55.4247L237.822 55.4112L237.755 55.4004C237.755 55.4004 237.755 55.4004 237.741 55.4213C237.727 55.4422 237.69 55.4277 237.675 55.457C237.659 55.4863 237.644 55.4281 237.639 55.4341ZM237.808 55.2981C237.871 55.2765 237.885 55.2392 237.869 55.1947C237.852 55.1503 237.82 55.1325 237.757 55.154L237.286 55.3225C237.223 55.3441 237.208 55.3787 237.224 55.4232C237.241 55.4676 237.273 55.4854 237.336 55.4639L237.808 55.2981Z" fill="white"/>
<path d="M238.003 55.6317L238.137 55.5849L238.09 55.4513L237.956 55.4981L238.003 55.6317Z" fill="white"/>
<path d="M237.904 56.7876C237.906 56.8037 237.844 56.8115 237.823 56.8196C237.795 56.8336 237.764 56.8415 237.732 56.8428C237.701 56.844 237.669 56.8385 237.64 56.8268C237.611 56.815 237.585 56.7971 237.563 56.7744C237.541 56.7517 237.524 56.7246 237.514 56.6949C237.503 56.6652 237.499 56.6337 237.502 56.6023C237.504 56.5709 237.514 56.5404 237.529 56.5129C237.544 56.4853 237.565 56.4613 237.59 56.4424C237.615 56.4235 237.644 56.4101 237.675 56.4033L237.85 56.3402C237.887 56.3712 237.934 56.3298 237.973 56.3412C238.013 56.3527 237.973 56.3412 237.99 56.3392C238.006 56.3372 238.009 56.2958 238.03 56.2931C238.03 56.2931 238.06 56.2675 238.074 56.252C238.086 56.2419 238.1 56.2353 238.116 56.2331C238.144 56.2191 238.175 56.2112 238.206 56.2099C238.238 56.2087 238.269 56.2142 238.298 56.226C238.327 56.2377 238.354 56.2556 238.376 56.2783C238.397 56.3011 238.414 56.3281 238.425 56.3578C238.435 56.3875 238.439 56.4191 238.437 56.4504C238.434 56.4818 238.425 56.5123 238.41 56.5399C238.395 56.5674 238.374 56.5914 238.349 56.6103C238.323 56.6292 238.294 56.6426 238.264 56.6495L238.12 56.7003C238.082 56.7051 237.988 56.766 237.953 56.7213C237.917 56.6765 237.95 56.6997 237.93 56.6967C237.924 56.6942 237.917 56.6933 237.91 56.6942C237.903 56.6951 237.896 56.6977 237.89 56.7018C237.867 56.7374 237.916 56.7559 237.904 56.7876ZM238.12 56.5936C238.136 56.5916 238.138 56.564 238.158 56.5478C238.183 56.5341 238.211 56.5242 238.239 56.5185C238.302 56.497 238.314 56.4599 238.3 56.4179C238.287 56.3758 238.251 56.3529 238.189 56.3772C238.17 56.3795 238.119 56.4105 238.102 56.4071C238.085 56.4038 238.099 56.3802 238.065 56.3735C238.036 56.3689 238.006 56.3727 237.979 56.3843C237.973 56.3864 237.966 56.3872 237.96 56.3867C237.96 56.3867 237.934 56.3762 237.925 56.3911C237.925 56.3911 237.89 56.3954 237.866 56.3985C237.909 56.4806 237.777 56.4944 237.724 56.5147C237.672 56.5349 237.647 56.5736 237.663 56.6153C237.679 56.6571 237.712 56.6776 237.772 56.6564C237.825 56.6312 237.88 56.6132 237.938 56.6028C237.941 56.6138 237.948 56.6235 237.957 56.6302C237.966 56.637 237.978 56.6405 237.989 56.6401C238.003 56.6356 238.018 56.6338 238.032 56.6347C238.032 56.6347 238.056 56.6317 238.067 56.6303C238.078 56.629 238.065 56.6142 238.064 56.6034C238.066 56.5956 238.07 56.5884 238.075 56.5825C238.081 56.5765 238.087 56.572 238.095 56.5694L238.12 56.5936Z" fill="white"/>
<path d="M235.758 55.5276L236.072 56.4128" stroke="white" stroke-width="0.21" stroke-linecap="round" stroke-linejoin="round"/>
<path d="M235.046 53.5164L235.604 55.0875" stroke="white" stroke-width="0.21" stroke-linecap="round" stroke-linejoin="round"/>
<path d="M235.654 53.3037L236.02 54.341" stroke="white" stroke-width="0.21" stroke-linecap="round" stroke-linejoin="round"/>
<path opacity="0.4" d="M275.213 38.8678C275.02 40.3292 275.007 41.8088 275.174 43.2734C275.439 45.9096 276.148 47.5275 275.352 49.8154C274.555 52.1033 276.651 53.2602 275.842 55.4538C275.034 57.6475 273.447 58.8174 273.634 60.0029C273.821 61.1884 254.97 65.351 251.759 66.3333C248.548 67.3156 239.55 69.677 237.744 70.3273L278.803 62.7984L275.213 38.8678Z" fill="white"/>
<path d="M267.089 40.001L275.902 45.5673L274.602 38.6846L267.089 40.001Z" fill="#167738" stroke="white" stroke-width="0.21" stroke-linecap="round" stroke-linejoin="round"/>
<path d="M253.476 59.412L256.503 58.9259C256.925 58.8581 257.33 58.7078 257.694 58.4835C258.059 58.2593 258.375 57.9654 258.626 57.6188C258.876 57.2722 259.056 56.8796 259.155 56.4634C259.254 56.0472 259.27 55.6156 259.202 55.1933L258.7 52.0835C258.632 51.6599 258.481 51.254 258.256 50.8889C258.031 50.5239 257.736 50.2069 257.388 49.9562C257.04 49.7056 256.645 49.5261 256.228 49.4282C255.81 49.3303 255.377 49.3159 254.954 49.3858L251.013 50.022C250.161 50.1595 249.398 50.6299 248.892 51.3298C248.387 52.0297 248.179 52.9017 248.317 53.7543L248.816 56.8644C248.827 56.9506 248.837 57.0367 248.868 57.1313C249.234 56.6415 249.76 56.2954 250.354 56.1531C250.949 56.0108 251.574 56.0814 252.122 56.3526C252.67 56.6237 253.105 57.0783 253.353 57.6373C253.6 58.1962 253.644 58.8242 253.476 59.412Z" fill="#167738" stroke="white" stroke-width="0.21" stroke-linecap="round" stroke-linejoin="round"/>
<path d="M250.921 60.3034C251.212 60.2571 251.483 60.1254 251.699 59.9251C251.915 59.7248 252.067 59.4649 252.136 59.1782C252.204 58.8916 252.186 58.5911 252.084 58.3147C251.981 58.0383 251.799 57.7985 251.561 57.6256C251.322 57.4527 251.037 57.3544 250.743 57.3433C250.448 57.3321 250.157 57.4085 249.906 57.5629C249.655 57.7173 249.456 57.9426 249.333 58.2105C249.21 58.4783 249.169 58.7766 249.215 59.0676C249.279 59.4573 249.493 59.8061 249.813 60.0377C250.133 60.2693 250.531 60.3649 250.921 60.3034Z" fill="#167738" stroke="white" stroke-width="0.21" stroke-linecap="round" stroke-linejoin="round"/>
<path opacity="0.4" d="M255.443 50.2268L252.092 55.3102C252.092 55.3102 249.916 54.9921 249.324 55.6571L249.048 53.4517C248.979 52.9208 249.116 52.3839 249.43 51.9505C249.745 51.5172 250.212 51.2202 250.738 51.1201L255.443 50.2268Z" fill="white"/>
<path opacity="0.4" d="M250.738 58.1901L249.785 59.3079C249.785 59.3079 249.296 58.7483 249.661 58.3251C250.027 57.9018 250.738 58.1901 250.738 58.1901Z" fill="white"/>
<path d="M274.135 54.771L275.384 62.1333" stroke="white" stroke-width="0.21" stroke-linecap="round" stroke-linejoin="round"/>
<path d="M274.56 52.1138L276.342 62.013" stroke="white" stroke-width="0.21" stroke-linecap="round" stroke-linejoin="round"/>
<path d="M277.612 59.2036L277.939 61.8129" stroke="white" stroke-width="0.21" stroke-linecap="round" stroke-linejoin="round"/>
<path opacity="0.2" d="M249.285 53.5397C250.643 49.4911 243.692 46.1613 242.624 44.8236C242.354 44.4947 242.051 44.1946 241.719 43.9279L231.242 45.8811L233.093 57.0025C234.656 56.7327 236.396 56.5392 237.439 56.7641C239.712 57.245 247.93 57.5852 249.285 53.5397Z" fill="white" fill-opacity="0.7"/>
<path opacity="0.4" d="M249.078 49.2196C249.078 49.2196 250.786 52.1072 250.173 53.5898C249.56 55.0725 248.244 56.7526 244.935 57.3835C244.935 57.3835 249.861 58.6122 250.81 54.7708C251.759 50.9293 249.078 49.2196 249.078 49.2196Z" fill="white"/>
<path opacity="0.4" d="M250.808 47.7934C250.808 47.7934 253.249 53.7782 250.57 56.8053C250.57 56.8053 252.198 56.2402 252.322 53.3201C252.445 50.3999 250.808 47.7934 250.808 47.7934Z" fill="white"/>
<path opacity="0.4" d="M241.299 59.1026C240.403 58.7364 248.002 58.3719 248.002 58.3719C248.002 58.3719 243.137 59.8459 241.299 59.1026Z" fill="white"/>
</g>
<path d="M235.482 71.3683L279.518 63.1955L275.459 37.6415L241.719 43.9275L231.242 45.8807L233.094 57.0048L235.482 71.3683Z" stroke="#263238" stroke-width="0.21" stroke-linecap="round" stroke-linejoin="round"/>
<path opacity="0.4" d="M279.92 64.4799L279.566 63.5752L239.22 70.8998L241.951 70.9595L279.92 64.4799Z" fill="white"/>
<path d="M249.286 53.5389C249.43 53.1622 249.481 52.7569 249.437 52.3563C249.393 51.9557 249.255 51.5713 249.033 51.2348C248.629 50.6549 248.052 50.2186 247.384 49.9893C245.333 49.1659 240.604 46.8348 239.283 46.4616C237.962 46.0884 234.265 45.3592 232.63 44.3745C230.994 43.3898 228.673 43.0297 228.673 43.0297L206.889 45.3281C210.111 45.5724 213.9 46.8836 213.9 46.8836C214.886 48.3117 216.222 49.4626 217.781 50.2262C218.108 50.4643 218.457 50.6706 218.824 50.8422C221.735 52.2442 226.687 52.4795 230.469 52.0985C234.745 51.6719 236.849 52.814 240.843 54.5863C244.837 56.3585 248.642 55.0966 249.286 53.5389Z" fill="white"/>
<path opacity="0.4" d="M249.286 53.5391C249.425 53.1616 249.474 52.7571 249.43 52.3573C249.386 51.9576 249.25 51.5734 249.033 51.2351C248.852 52.4995 248.426 54.183 247.456 53.9299C245.908 53.5359 247.885 51.5677 247.064 50.8062C246.244 50.0447 241.764 47.4665 240.208 49.6553C238.653 51.8442 235.554 51.6062 234.535 50.3665C233.515 49.1267 231.597 50.2561 228.459 51.0815C226.562 51.5928 222.073 51.2173 218.822 50.8535C221.733 52.2555 226.686 52.4908 230.467 52.1098C234.743 51.6832 236.848 52.8253 240.841 54.5976C244.835 56.3699 248.693 55.0904 249.286 53.5391Z" fill="#C9C9C9"/>
<path d="M206.875 45.3298C210.097 45.5741 213.885 46.8853 213.885 46.8853C214.872 48.3134 216.208 49.4643 217.767 50.2279C220.39 52.172 226.171 52.5305 230.444 52.1016C234.717 51.6726 236.824 52.8171 240.818 54.5893C244.812 56.3616 248.606 55.2542 249.284 53.5281C249.76 52.3252 249.432 50.8045 247.381 49.9785C245.331 49.1525 240.602 46.824 239.281 46.4509C237.96 46.0777 234.263 45.3485 232.627 44.3638C230.992 43.379 228.671 43.019 228.671 43.019" stroke="#263238" stroke-width="0.21" stroke-linecap="round" stroke-linejoin="round"/>
<path d="M239.114 48.3155C239.114 48.3155 239.175 50.0746 238.624 50.9534" stroke="#263238" stroke-width="0.21" stroke-linecap="round" stroke-linejoin="round"/>
<path d="M229.021 42.3379C229.021 42.3379 229.787 41.8974 230.817 43.5734" stroke="#263238" stroke-width="0.21" stroke-linecap="round" stroke-linejoin="round"/>
</g>
<defs>
<linearGradient id="paint0_linear_90_7657" x1="0" y1="0" x2="289.683" y2="195.239" gradientUnits="userSpaceOnUse">
<stop stop-color="#369BB3"/>
<stop offset="1" stop-color="#3D1F96"/>
</linearGradient>
<clipPath id="clip0_90_7657">
<rect width="105" height="105" fill="white" transform="matrix(0 1 1 0 200 13)"/>
</clipPath>
</defs>
</svg>
